  0
SECTION
  2
HEADER
  9
$ACADVER
  1
AC1015
  9
$ACADMAINTVER
 70
     6
  9
$DWGCODEPAGE
  3
ANSI_1252
  9
$INSBASE
 10
0.0
 20
0.0
 30
0.0
  9
$EXTMIN
 10
-2.825
 20
-92.425
 30
0.0
  9
$EXTMAX
 10
344.8375
 20
2.825
 30
0.0
  9
$LIMMIN
 10
0.0
 20
0.0
  9
$LIMMAX
 10
420.0
 20
297.0
  9
$ORTHOMODE
 70
     0
  9
$REGENMODE
 70
     1
  9
$FILLMODE
 70
     1
  9
$QTEXTMODE
 70
     0
  9
$MIRRTEXT
 70
     1
  9
$LTSCALE
 40
1.0
  9
$ATTMODE
 70
     1
  9
$TEXTSIZE
 40
6.35
  9
$TRACEWID
 40
1.0
  9
$TEXTSTYLE
  7
Standard
  9
$CLAYER
  8
0
  9
$CELTYPE
  6
ByLayer
  9
$CECOLOR
 62
   256
  9
$CELTSCALE
 40
1.0
  9
$DISPSILH
 70
     0
  9
$DIMSCALE
 40
1.0
  9
$DIMASZ
 40
5.9944
  9
$DIMEXO
 40
0.9906
  9
$DIMDLI
 40
3.75
  9
$DIMRND
 40
0.0
  9
$DIMDLE
 40
0.0
  9
$DIMEXE
 40
0.9906
  9
$DIMTP
 40
0.0
  9
$DIMTM
 40
0.0
  9
$DIMTXT
 40
6.35
  9
$DIMCEN
 40
2.5
  9
$DIMTSZ
 40
0.0
  9
$DIMTOL
 70
     0
  9
$DIMLIM
 70
     0
  9
$DIMTIH
 70
     1
  9
$DIMTOH
 70
     1
  9
$DIMSE1
 70
     0
  9
$DIMSE2
 70
     0
  9
$DIMTAD
 70
     1
  9
$DIMZIN
 70
     1
  9
$DIMBLK
  1

  9
$DIMASO
 70
     1
  9
$DIMSHO
 70
     1
  9
$DIMPOST
  1

  9
$DIMAPOST
  1

  9
$DIMALT
 70
     0
  9
$DIMALTD
 70
     3
  9
$DIMALTF
 40
0.0393700787
  9
$DIMLFAC
 40
1.0
  9
$DIMTOFL
 70
     1
  9
$DIMTVP
 40
0.0
  9
$DIMTIX
 70
     0
  9
$DIMSOXD
 70
     0
  9
$DIMSAH
 70
     0
  9
$DIMBLK1
  1

  9
$DIMBLK2
  1

  9
$DIMSTYLE
  2
ISO-25
  9
$DIMCLRD
 70
     0
  9
$DIMCLRE
 70
     0
  9
$DIMCLRT
 70
     0
  9
$DIMTFAC
 40
1.0
  9
$DIMGAP
 40
1.524
  9
$DIMJUST
 70
     0
  9
$DIMSD1
 70
     0
  9
$DIMSD2
 70
     0
  9
$DIMTOLJ
 70
     0
  9
$DIMTZIN
 70
     1
  9
$DIMALTZ
 70
     0
  9
$DIMALTTZ
 70
     0
  9
$DIMUPT
 70
     0
  9
$DIMDEC
 70
     4
  9
$DIMTDEC
 70
     2
  9
$DIMALTU
 70
     2
  9
$DIMALTTD
 70
     3
  9
$DIMTXSTY
  7
Standard
  9
$DIMAUNIT
 70
     0
  9
$DIMADEC
 70
     3
  9
$DIMALTRND
 40
0.0
  9
$DIMAZIN
 70
     0
  9
$DIMDSEP
 70
    44
  9
$DIMATFIT
 70
     3
  9
$DIMFRAC
 70
     0
  9
$DIMLDRBLK
  1

  9
$DIMLUNIT
 70
     2
  9
$DIMLWD
 70
    -2
  9
$DIMLWE
 70
    -2
  9
$DIMTMOVE
 70
     0
  9
$LUNITS
 70
     2
  9
$LUPREC
 70
     4
  9
$SKETCHINC
 40
1.0
  9
$FILLETRAD
 40
10.0
  9
$AUNITS
 70
     0
  9
$AUPREC
 70
     3
  9
$MENU
  1
.
  9
$ELEVATION
 40
0.0
  9
$PELEVATION
 40
0.0
  9
$THICKNESS
 40
0.0
  9
$LIMCHECK
 70
     0
  9
$CHAMFERA
 40
0.0
  9
$CHAMFERB
 40
0.0
  9
$CHAMFERC
 40
0.0
  9
$CHAMFERD
 40
0.0
  9
$SKPOLY
 70
     0
  9
$TDCREATE
 40
2458864.637240058
  9
$TDUCREATE
 40
2458864.887240058
  9
$TDUPDATE
 40
2458864.63725772
  9
$TDUUPDATE
 40
2458864.88725772
  9
$TDINDWG
 40
0.0000000116
  9
$TDUSRTIMER
 40
0.0000000116
  9
$USRTIMER
 70
     1
  9
$ANGBASE
 50
0.0
  9
$ANGDIR
 70
     0
  9
$PDMODE
 70
     0
  9
$PDSIZE
 40
-1.0
  9
$PLINEWID
 40
0.0
  9
$SPLFRAME
 70
     0
  9
$SPLINETYPE
 70
     6
  9
$SPLINESEGS
 70
     8
  9
$HANDSEED
  5
5B3
  9
$SURFTAB1
 70
     6
  9
$SURFTAB2
 70
     6
  9
$SURFTYPE
 70
     6
  9
$SURFU
 70
     6
  9
$SURFV
 70
     6
  9
$UCSBASE
  2

  9
$UCSNAME
  2

  9
$UCSORG
 10
0.0
 20
0.0
 30
0.0
  9
$UCSXDIR
 10
1.0
 20
0.0
 30
0.0
  9
$UCSYDIR
 10
0.0
 20
1.0
 30
0.0
  9
$UCSORTHOREF
  2

  9
$UCSORTHOVIEW
 70
     0
  9
$UCSORGTOP
 10
0.0
 20
0.0
 30
0.0
  9
$UCSORGBOTTOM
 10
0.0
 20
0.0
 30
0.0
  9
$UCSORGLEFT
 10
0.0
 20
0.0
 30
0.0
  9
$UCSORGRIGHT
 10
0.0
 20
0.0
 30
0.0
  9
$UCSORGFRONT
 10
0.0
 20
0.0
 30
0.0
  9
$UCSORGBACK
 10
0.0
 20
0.0
 30
0.0
  9
$PUCSBASE
  2

  9
$PUCSNAME
  2

  9
$PUCSORG
 10
0.0
 20
0.0
 30
0.0
  9
$PUCSXDIR
 10
1.0
 20
0.0
 30
0.0
  9
$PUCSYDIR
 10
0.0
 20
1.0
 30
0.0
  9
$PUCSORTHOREF
  2

  9
$PUCSORTHOVIEW
 70
     0
  9
$PUCSORGTOP
 10
0.0
 20
0.0
 30
0.0
  9
$PUCSORGBOTTOM
 10
0.0
 20
0.0
 30
0.0
  9
$PUCSORGLEFT
 10
0.0
 20
0.0
 30
0.0
  9
$PUCSORGRIGHT
 10
0.0
 20
0.0
 30
0.0
  9
$PUCSORGFRONT
 10
0.0
 20
0.0
 30
0.0
  9
$PUCSORGBACK
 10
0.0
 20
0.0
 30
0.0
  9
$USERI1
 70
     0
  9
$USERI2
 70
     0
  9
$USERI3
 70
     0
  9
$USERI4
 70
     0
  9
$USERI5
 70
     0
  9
$USERR1
 40
0.0
  9
$USERR2
 40
0.0
  9
$USERR3
 40
0.0
  9
$USERR4
 40
0.0
  9
$USERR5
 40
0.0
  9
$WORLDVIEW
 70
     1
  9
$SHADEDGE
 70
     3
  9
$SHADEDIF
 70
    70
  9
$TILEMODE
 70
     1
  9
$MAXACTVP
 70
    64
  9
$PINSBASE
 10
0.0
 20
0.0
 30
0.0
  9
$PLIMCHECK
 70
     0
  9
$PEXTMIN
 10
1.0000000000E+20
 20
1.0000000000E+20
 30
1.0000000000E+20
  9
$PEXTMAX
 10
-1.0000000000E+20
 20
-1.0000000000E+20
 30
-1.0000000000E+20
  9
$PLIMMIN
 10
0.0
 20
0.0
  9
$PLIMMAX
 10
420.0
 20
297.0
  9
$UNITMODE
 70
     0
  9
$VISRETAIN
 70
     1
  9
$PLINEGEN
 70
     0
  9
$PSLTSCALE
 70
     1
  9
$TREEDEPTH
 70
  3020
  9
$CMLSTYLE
  2
Standard
  9
$CMLJUST
 70
     0
  9
$CMLSCALE
 40
20.0
  9
$PROXYGRAPHICS
 70
     1
  9
$MEASUREMENT
 70
     1
  9
$CELWEIGHT
370
    -1
  9
$ENDCAPS
280
     0
  9
$JOINSTYLE
280
     0
  9
$LWDISPLAY
290
     1
  9
$INSUNITS
 70
     4
  9
$HYPERLINKBASE
  1

  9
$STYLESHEET
  1

  9
$XEDIT
290
     1
  9
$CEPSNTYPE
380
     0
  9
$PSTYLEMODE
290
     1
  9
$FINGERPRINTGUID
  2
{4af3c826-d2ce-4bf1-885d-b3455072efbc}
  9
$VERSIONGUID
  2
{FAEB1C32-E019-11D5-929B-00C0DF256EC4}
  9
$EXTNAMES
290
     1
  9
$PSVPSCALE
 40
0.0
  9
$OLESTARTUP
290
     0
  0
ENDSEC
  0
SECTION
  2
CLASSES
  0
CLASS
  1
ACDBDICTIONARYWDFLT
  2
AcDbDictionaryWithDefault
  3
ObjectDBX Classes
 90
        0
280
     0
281
     0
  0
CLASS
  1
VISUALSTYLE
  2
AcDbVisualStyle
  3
ObjectDBX Classes
 90
     4095
280
     0
281
     0
  0
CLASS
  1
MATERIAL
  2
AcDbMaterial
  3
ObjectDBX Classes
 90
     1153
280
     0
281
     0
  0
CLASS
  1
SCALE
  2
AcDbScale
  3
ObjectDBX Classes
 90
     1153
280
     0
281
     0
  0
CLASS
  1
TABLESTYLE
  2
AcDbTableStyle
  3
ObjectDBX Classes
 90
     4095
280
     0
281
     0
  0
CLASS
  1
MLEADERSTYLE
  2
AcDbMLeaderStyle
  3
ACDB_MLEADERSTYLE_CLASS
 90
     4095
280
     0
281
     0
  0
CLASS
  1
SUN
  2
AcDbSun
  3
SCENEOE
 90
     1153
280
     0
281
     0
  0
CLASS
  1
ACDBPLACEHOLDER
  2
AcDbPlaceHolder
  3
ObjectDBX Classes
 90
        0
280
     0
281
     0
  0
CLASS
  1
LAYOUT
  2
AcDbLayout
  3
ObjectDBX Classes
 90
        0
280
     0
281
     0
  0
ENDSEC
  0
SECTION
  2
TABLES
  0
TABLE
  2
VPORT
  5
8
330
0
100
AcDbSymbolTable
 70
     1
  0
VPORT
  5
29
330
8
100
AcDbSymbolTableRecord
100
AcDbViewportTableRecord
  2
*Active
 70
     0
 10
0.0
 20
0.0
 11
1.0
 21
1.0
 12
171.00625
 22
-44.8
 13
0.0
 23
0.0
 14
10.0
 24
10.0
 15
10.0
 25
10.0
 16
0.0
 26
0.0
 36
1.0
 17
0.0
 27
0.0
 37
0.0
 40
97.155
 41
3.65
 42
50.0
 43
0.0
 44
0.0
 50
0.0
 51
0.0
 71
     0
 72
   100
 73
     1
 74
     3
 75
     0
 76
     0
 77
     0
 78
     0
281
     0
 65
     1
110
0.0
120
0.0
130
0.0
111
1.0
121
0.0
131
0.0
112
0.0
122
1.0
132
0.0
 79
     0
146
0.0
  0
ENDTAB
  0
TABLE
  2
LTYPE
  5
5
330
0
100
AcDbSymbolTable
 70
     6
  0
LTYPE
  5
14
330
5
100
AcDbSymbolTableRecord
100
AcDbLinetypeTableRecord
  2
ByBlock
 70
     0
  3

 72
    65
 73
     0
 40
0.0
  0
LTYPE
  5
15
330
5
100
AcDbSymbolTableRecord
100
AcDbLinetypeTableRecord
  2
ByLayer
 70
     0
  3

 72
    65
 73
     0
 40
0.0
  0
LTYPE
  5
16
330
5
100
AcDbSymbolTableRecord
100
AcDbLinetypeTableRecord
  2
Continuous
 70
     0
  3
Solid line
 72
    65
 73
     0
 40
0.0
  0
LTYPE
  5
6E
330
5
100
AcDbSymbolTableRecord
100
AcDbLinetypeTableRecord
  2
HIDDEN
 70
     0
  3
Hidden __ __ __ __ __ __ __ __ __ __ __ __ __ __
 72
    65
 73
     2
 40
1.905
 49
1.27
 74
     0
 49
-0.635
 74
     0
  0
LTYPE
  5
6F
330
5
100
AcDbSymbolTableRecord
100
AcDbLinetypeTableRecord
  2
PHANTOM
 70
     0
  3
Phantom ______  __  __  ______  __  __  ______
 72
    65
 73
     6
 40
12.7
 49
6.35
 74
     0
 49
-1.27
 74
     0
 49
1.27
 74
     0
 49
-1.27
 74
     0
 49
1.27
 74
     0
 49
-1.27
 74
     0
  0
LTYPE
  5
70
330
5
100
AcDbSymbolTableRecord
100
AcDbLinetypeTableRecord
  2
CENTER
 70
     0
  3
Center ____ _ ____ _ ____ _ ____ _ ____ _ ____
 72
    65
 73
     4
 40
10.16
 49
6.35
 74
     0
 49
-1.27
 74
     0
 49
1.27
 74
     0
 49
-1.27
 74
     0
  0
LTYPE
  5
71
330
5
100
AcDbSymbolTableRecord
100
AcDbLinetypeTableRecord
  2
CENTERX2
 70
     0
  3
Center (2x) ________  __  ________  __  _____
 72
    65
 73
     4
 40
20.32
 49
12.7
 74
     0
 49
-2.54
 74
     0
 49
2.54
 74
     0
 49
-2.54
 74
     0
  0
LTYPE
  5
72
330
5
100
AcDbSymbolTableRecord
100
AcDbLinetypeTableRecord
  2
DOT2
 70
     0
  3
Dot (.5x) ........................................
 72
    65
 73
     2
 40
0.635
 49
0.0
 74
     0
 49
-0.635
 74
     0
  0
ENDTAB
  0
TABLE
  2
LAYER
  5
2
330
0
100
AcDbSymbolTable
 70
     1
  0
LAYER
  5
10
330
2
100
AcDbSymbolTableRecord
100
AcDbLayerTableRecord
  2
0
 70
     0
 62
     7
  6
Continuous
370
    -3
390
F
  0
ENDTAB
  0
TABLE
  2
STYLE
  5
3
330
0
100
AcDbSymbolTable
 70
     1
  0
STYLE
  5
11
330
3
100
AcDbSymbolTableRecord
100
AcDbTextStyleTableRecord
  2
Standard
 70
     0
 40
0.0
 41
1.0
 50
0.0
 71
     0
 42
6.35
  3
txt
  4

  0
ENDTAB
  0
TABLE
  2
VIEW
  5
6
330
0
100
AcDbSymbolTable
 70
     0
  0
ENDTAB
  0
TABLE
  2
UCS
  5
7
330
0
100
AcDbSymbolTable
 70
     0
  0
ENDTAB
  0
TABLE
  2
APPID
  5
9
330
0
100
AcDbSymbolTable
 70
     1
  0
APPID
  5
12
330
9
100
AcDbSymbolTableRecord
100
AcDbRegAppTableRecord
  2
ACAD
 70
     0
  0
ENDTAB
  0
TABLE
  2
DIMSTYLE
  5
A
330
0
100
AcDbSymbolTable
 70
     1
100
AcDbDimStyleTable
  0
DIMSTYLE
105
27
330
A
100
AcDbSymbolTableRecord
100
AcDbDimStyleTableRecord
  2
ISO-25
 70
     0
 41
2.5
 42
0.625
 43
3.75
 44
1.25
 73
     0
 74
     0
 77
     1
 78
     8
140
2.5
141
2.5
143
0.0393700787
147
0.625
171
     3
172
     1
178
     0
271
     2
272
     2
274
     3
278
    44
283
     0
284
     8
340
11
  0
ENDTAB
  0
TABLE
  2
BLOCK_RECORD
  5
1
330
0
100
AcDbSymbolTable
 70
     1
  0
BLOCK_RECORD
  5
1F
330
1
100
AcDbSymbolTableRecord
100
AcDbBlockTableRecord
  2
*Model_Space
340
22
  0
BLOCK_RECORD
  5
1B
330
1
100
AcDbSymbolTableRecord
100
AcDbBlockTableRecord
  2
*Paper_Space
340
1E
  0
BLOCK_RECORD
  5
23
330
1
100
AcDbSymbolTableRecord
100
AcDbBlockTableRecord
  2
*Paper_Space0
340
26
  0
ENDTAB
  0
ENDSEC
  0
SECTION
  2
BLOCKS
  0
BLOCK
  5
20
330
1F
100
AcDbEntity
  8
0
100
AcDbBlockBegin
  2
*Model_Space
 70
     0
 10
0.0
 20
0.0
 30
0.0
  3
*Model_Space
  1

  0
ENDBLK
  5
21
330
1F
100
AcDbEntity
  8
0
100
AcDbBlockEnd
  0
BLOCK
  5
1C
330
1B
100
AcDbEntity
 67
     1
  8
0
100
AcDbBlockBegin
  2
*Paper_Space
 70
     0
 10
0.0
 20
0.0
 30
0.0
  3
*Paper_Space
  1

  0
ENDBLK
  5
1D
330
1B
100
AcDbEntity
 67
     1
  8
0
100
AcDbBlockEnd
  0
BLOCK
  5
24
330
23
100
AcDbEntity
  8
0
100
AcDbBlockBegin
  2
*Paper_Space0
 70
     0
 10
0.0
 20
0.0
 30
0.0
  3
*Paper_Space0
  1

  0
ENDBLK
  5
25
330
23
100
AcDbEntity
  8
0
100
AcDbBlockEnd
  0
ENDSEC
  0
SECTION
  2
ENTITIES
  0
LINE
  5
313
330
1F
100
AcDbEntity
  8
0
  6
Continuous
 62
     7
370
    25
100
AcDbLine
 10
290.2125
 20
0.0
 30
0.0
 11
290.2125
 21
-13.4
 31
0.0
  0
LINE
  5
314
330
1F
100
AcDbEntity
  8
0
  6
Continuous
 62
     7
370
    25
100
AcDbLine
 10
290.5125
 20
-13.7
 30
0.0
 11
291.2995
 21
-13.7
 31
0.0
  0
LINE
  5
315
330
1F
100
AcDbEntity
  8
0
  6
Continuous
 62
     7
370
    25
100
AcDbLine
 10
291.2995
 20
-17.1787
 30
0.0
 11
291.2995
 21
-13.7
 31
0.0
  0
LINE
  5
316
330
1F
100
AcDbEntity
  8
0
  6
Continuous
 62
     7
370
    25
100
AcDbLine
 10
291.2995
 20
-17.1787
 30
0.0
 11
298.2995
 21
-17.1787
 31
0.0
  0
LINE
  5
317
330
1F
100
AcDbEntity
  8
0
  6
Continuous
 62
     7
370
    25
100
AcDbLine
 10
298.2995
 20
-17.1787
 30
0.0
 11
298.2995
 21
-15.95
 31
0.0
  0
LINE
  5
318
330
1F
100
AcDbEntity
  8
0
  6
Continuous
 62
     7
370
    25
100
AcDbLine
 10
298.2995
 20
-15.95
 30
0.0
 11
315.1755
 21
-15.95
 31
0.0
  0
LINE
  5
319
330
1F
100
AcDbEntity
  8
0
  6
Continuous
 62
     7
370
    25
100
AcDbLine
 10
315.1755
 20
-17.1787
 30
0.0
 11
315.1755
 21
-15.95
 31
0.0
  0
LINE
  5
31A
330
1F
100
AcDbEntity
  8
0
  6
Continuous
 62
     7
370
    25
100
AcDbLine
 10
315.1755
 20
-17.1787
 30
0.0
 11
322.1755
 21
-17.1787
 31
0.0
  0
LINE
  5
31B
330
1F
100
AcDbEntity
  8
0
  6
Continuous
 62
     7
370
    25
100
AcDbLine
 10
322.1755
 20
-17.1787
 30
0.0
 11
322.1755
 21
-13.7
 31
0.0
  0
LINE
  5
31C
330
1F
100
AcDbEntity
  8
0
  6
Continuous
 62
     7
370
    25
100
AcDbLine
 10
322.1755
 20
-13.7
 30
0.0
 11
322.9625
 21
-13.7
 31
0.0
  0
LINE
  5
31D
330
1F
100
AcDbEntity
  8
0
  6
Continuous
 62
     7
370
    25
100
AcDbLine
 10
323.2625
 20
-13.4
 30
0.0
 11
323.2625
 21
0.0
 31
0.0
  0
LINE
  5
31E
330
1F
100
AcDbEntity
  8
0
  6
Continuous
 62
     7
370
    25
100
AcDbLine
 10
322.9625
 20
0.3
 30
0.0
 11
322.1755
 21
0.3
 31
0.0
  0
LINE
  5
31F
330
1F
100
AcDbEntity
  8
0
  6
Continuous
 62
     7
370
    25
100
AcDbLine
 10
322.1755
 20
0.3
 30
0.0
 11
322.1755
 21
2.1213
 31
0.0
  0
LINE
  5
320
330
1F
100
AcDbEntity
  8
0
  6
Continuous
 62
     7
370
    25
100
AcDbLine
 10
315.1755
 20
2.1213
 30
0.0
 11
322.1755
 21
2.1213
 31
0.0
  0
LINE
  5
321
330
1F
100
AcDbEntity
  8
0
  6
Continuous
 62
     7
370
    25
100
AcDbLine
 10
315.1755
 20
0.3
 30
0.0
 11
315.1755
 21
2.1213
 31
0.0
  0
LINE
  5
322
330
1F
100
AcDbEntity
  8
0
  6
Continuous
 62
     7
370
    25
100
AcDbLine
 10
315.1755
 20
0.3
 30
0.0
 11
298.2995
 21
0.3
 31
0.0
  0
LINE
  5
323
330
1F
100
AcDbEntity
  8
0
  6
Continuous
 62
     7
370
    25
100
AcDbLine
 10
298.2995
 20
0.3
 30
0.0
 11
298.2995
 21
2.1213
 31
0.0
  0
LINE
  5
324
330
1F
100
AcDbEntity
  8
0
  6
Continuous
 62
     7
370
    25
100
AcDbLine
 10
291.2995
 20
2.1213
 30
0.0
 11
298.2995
 21
2.1213
 31
0.0
  0
LINE
  5
325
330
1F
100
AcDbEntity
  8
0
  6
Continuous
 62
     7
370
    25
100
AcDbLine
 10
291.2995
 20
0.3
 30
0.0
 11
291.2995
 21
2.1213
 31
0.0
  0
LINE
  5
326
330
1F
100
AcDbEntity
  8
0
  6
Continuous
 62
     7
370
    25
100
AcDbLine
 10
291.2995
 20
0.3
 30
0.0
 11
290.5125
 21
0.3
 31
0.0
  0
LINE
  5
327
330
1F
100
AcDbEntity
  8
0
  6
Continuous
 62
     7
370
    25
100
AcDbLine
 10
92.86875
 20
-89.9
 30
0.0
 11
108.65
 21
-89.9
 31
0.0
  0
LINE
  5
328
330
1F
100
AcDbEntity
  8
0
  6
Continuous
 62
     7
370
    25
100
AcDbLine
 10
108.95
 20
-89.6
 30
0.0
 11
108.95
 21
-76.2
 31
0.0
  0
LINE
  5
329
330
1F
100
AcDbEntity
  8
0
  6
Continuous
 62
     7
370
    25
100
AcDbLine
 10
108.65
 20
-75.9
 30
0.0
 11
92.86875
 21
-75.9
 31
0.0
  0
LINE
  5
32A
330
1F
100
AcDbEntity
  8
0
  6
Continuous
 62
     7
370
    25
100
AcDbLine
 10
92.56875
 20
-76.2
 30
0.0
 11
92.56875
 21
-89.6
 31
0.0
  0
LINE
  5
32B
330
1F
100
AcDbEntity
  8
0
  6
Continuous
 62
     7
370
    25
100
AcDbLine
 10
69.05625
 20
-89.9
 30
0.0
 11
84.8375
 21
-89.9
 31
0.0
  0
LINE
  5
32C
330
1F
100
AcDbEntity
  8
0
  6
Continuous
 62
     7
370
    25
100
AcDbLine
 10
85.1375
 20
-89.6
 30
0.0
 11
85.1375
 21
-76.2
 31
0.0
  0
LINE
  5
32D
330
1F
100
AcDbEntity
  8
0
  6
Continuous
 62
     7
370
    25
100
AcDbLine
 10
84.8375
 20
-75.9
 30
0.0
 11
69.05625
 21
-75.9
 31
0.0
  0
LINE
  5
32E
330
1F
100
AcDbEntity
  8
0
  6
Continuous
 62
     7
370
    25
100
AcDbLine
 10
68.75625
 20
-76.2
 30
0.0
 11
68.75625
 21
-89.6
 31
0.0
  0
LINE
  5
32F
330
1F
100
AcDbEntity
  8
0
  6
Continuous
 62
     7
370
    25
100
AcDbLine
 10
45.24375
 20
-89.9
 30
0.0
 11
61.025
 21
-89.9
 31
0.0
  0
LINE
  5
330
330
1F
100
AcDbEntity
  8
0
  6
Continuous
 62
     7
370
    25
100
AcDbLine
 10
61.325
 20
-89.6
 30
0.0
 11
61.325
 21
-76.2
 31
0.0
  0
LINE
  5
331
330
1F
100
AcDbEntity
  8
0
  6
Continuous
 62
     7
370
    25
100
AcDbLine
 10
61.025
 20
-75.9
 30
0.0
 11
45.24375
 21
-75.9
 31
0.0
  0
LINE
  5
332
330
1F
100
AcDbEntity
  8
0
  6
Continuous
 62
     7
370
    25
100
AcDbLine
 10
44.94375
 20
-76.2
 30
0.0
 11
44.94375
 21
-89.6
 31
0.0
  0
LINE
  5
333
330
1F
100
AcDbEntity
  8
0
  6
Continuous
 62
     7
370
    25
100
AcDbLine
 10
45.24375
 20
-51.8
 30
0.0
 11
63.40625
 21
-51.8
 31
0.0
  0
LINE
  5
334
330
1F
100
AcDbEntity
  8
0
  6
Continuous
 62
     7
370
    25
100
AcDbLine
 10
63.70625
 20
-51.5
 30
0.0
 11
63.70625
 21
-38.1
 31
0.0
  0
LINE
  5
335
330
1F
100
AcDbEntity
  8
0
  6
Continuous
 62
     7
370
    25
100
AcDbLine
 10
63.40625
 20
-37.8
 30
0.0
 11
45.24375
 21
-37.8
 31
0.0
  0
LINE
  5
336
330
1F
100
AcDbEntity
  8
0
  6
Continuous
 62
     7
370
    25
100
AcDbLine
 10
44.94375
 20
-38.1
 30
0.0
 11
44.94375
 21
-51.5
 31
0.0
  0
LINE
  5
337
330
1F
100
AcDbEntity
  8
0
  6
Continuous
 62
     7
370
    25
100
AcDbLine
 10
257.175
 20
-89.9
 30
0.0
 11
272.95625
 21
-89.9
 31
0.0
  0
LINE
  5
338
330
1F
100
AcDbEntity
  8
0
  6
Continuous
 62
     7
370
    25
100
AcDbLine
 10
273.25625
 20
-89.6
 30
0.0
 11
273.25625
 21
-76.2
 31
0.0
  0
LINE
  5
339
330
1F
100
AcDbEntity
  8
0
  6
Continuous
 62
     7
370
    25
100
AcDbLine
 10
272.95625
 20
-75.9
 30
0.0
 11
257.175
 21
-75.9
 31
0.0
  0
LINE
  5
33A
330
1F
100
AcDbEntity
  8
0
  6
Continuous
 62
     7
370
    25
100
AcDbLine
 10
256.875
 20
-76.2
 30
0.0
 11
256.875
 21
-89.6
 31
0.0
  0
LINE
  5
33B
330
1F
100
AcDbEntity
  8
0
  6
Continuous
 62
     7
370
    25
100
AcDbLine
 10
13.4
 20
0.3
 30
0.0
 11
0.0
 21
0.3
 31
0.0
  0
LINE
  5
33C
330
1F
100
AcDbEntity
  8
0
  6
Continuous
 62
     7
370
    25
100
AcDbLine
 10
-0.3
 20
0.0
 30
0.0
 11
-0.3
 21
-13.4
 31
0.0
  0
LINE
  5
33D
330
1F
100
AcDbEntity
  8
0
  6
Continuous
 62
     7
370
    25
100
AcDbLine
 10
0.0
 20
-13.7
 30
0.0
 11
13.4
 21
-13.7
 31
0.0
  0
LINE
  5
33E
330
1F
100
AcDbEntity
  8
0
  6
Continuous
 62
     7
370
    25
100
AcDbLine
 10
13.7
 20
-13.4
 30
0.0
 11
13.7
 21
0.0
 31
0.0
  0
LINE
  5
33F
330
1F
100
AcDbEntity
  8
0
  6
Continuous
 62
     7
370
    25
100
AcDbLine
 10
32.45
 20
0.3
 30
0.0
 11
19.05
 21
0.3
 31
0.0
  0
LINE
  5
340
330
1F
100
AcDbEntity
  8
0
  6
Continuous
 62
     7
370
    25
100
AcDbLine
 10
18.75
 20
0.0
 30
0.0
 11
18.75
 21
-13.4
 31
0.0
  0
LINE
  5
341
330
1F
100
AcDbEntity
  8
0
  6
Continuous
 62
     7
370
    25
100
AcDbLine
 10
19.05
 20
-13.7
 30
0.0
 11
32.45
 21
-13.7
 31
0.0
  0
LINE
  5
342
330
1F
100
AcDbEntity
  8
0
  6
Continuous
 62
     7
370
    25
100
AcDbLine
 10
32.75
 20
-13.4
 30
0.0
 11
32.75
 21
0.0
 31
0.0
  0
LINE
  5
343
330
1F
100
AcDbEntity
  8
0
  6
Continuous
 62
     7
370
    25
100
AcDbLine
 10
32.45
 20
-18.75
 30
0.0
 11
19.05
 21
-18.75
 31
0.0
  0
LINE
  5
344
330
1F
100
AcDbEntity
  8
0
  6
Continuous
 62
     7
370
    25
100
AcDbLine
 10
18.75
 20
-19.05
 30
0.0
 11
18.75
 21
-32.45
 31
0.0
  0
LINE
  5
345
330
1F
100
AcDbEntity
  8
0
  6
Continuous
 62
     7
370
    25
100
AcDbLine
 10
19.05
 20
-32.75
 30
0.0
 11
32.45
 21
-32.75
 31
0.0
  0
LINE
  5
346
330
1F
100
AcDbEntity
  8
0
  6
Continuous
 62
     7
370
    25
100
AcDbLine
 10
32.75
 20
-32.45
 30
0.0
 11
32.75
 21
-19.05
 31
0.0
  0
LINE
  5
347
330
1F
100
AcDbEntity
  8
0
  6
Continuous
 62
     7
370
    25
100
AcDbLine
 10
32.45
 20
-37.8
 30
0.0
 11
19.05
 21
-37.8
 31
0.0
  0
LINE
  5
348
330
1F
100
AcDbEntity
  8
0
  6
Continuous
 62
     7
370
    25
100
AcDbLine
 10
18.75
 20
-38.1
 30
0.0
 11
18.75
 21
-51.5
 31
0.0
  0
LINE
  5
349
330
1F
100
AcDbEntity
  8
0
  6
Continuous
 62
     7
370
    25
100
AcDbLine
 10
19.05
 20
-51.8
 30
0.0
 11
32.45
 21
-51.8
 31
0.0
  0
LINE
  5
34A
330
1F
100
AcDbEntity
  8
0
  6
Continuous
 62
     7
370
    25
100
AcDbLine
 10
32.75
 20
-51.5
 30
0.0
 11
32.75
 21
-38.1
 31
0.0
  0
LINE
  5
34B
330
1F
100
AcDbEntity
  8
0
  6
Continuous
 62
     7
370
    25
100
AcDbLine
 10
32.45
 20
-56.85
 30
0.0
 11
19.05
 21
-56.85
 31
0.0
  0
LINE
  5
34C
330
1F
100
AcDbEntity
  8
0
  6
Continuous
 62
     7
370
    25
100
AcDbLine
 10
18.75
 20
-57.15
 30
0.0
 11
18.75
 21
-70.55
 31
0.0
  0
LINE
  5
34D
330
1F
100
AcDbEntity
  8
0
  6
Continuous
 62
     7
370
    25
100
AcDbLine
 10
19.05
 20
-70.85
 30
0.0
 11
32.45
 21
-70.85
 31
0.0
  0
LINE
  5
34E
330
1F
100
AcDbEntity
  8
0
  6
Continuous
 62
     7
370
    25
100
AcDbLine
 10
32.75
 20
-70.55
 30
0.0
 11
32.75
 21
-57.15
 31
0.0
  0
LINE
  5
34F
330
1F
100
AcDbEntity
  8
0
  6
Continuous
 62
     7
370
    25
100
AcDbLine
 10
32.45
 20
-75.9
 30
0.0
 11
19.05
 21
-75.9
 31
0.0
  0
LINE
  5
350
330
1F
100
AcDbEntity
  8
0
  6
Continuous
 62
     7
370
    25
100
AcDbLine
 10
18.75
 20
-76.2
 30
0.0
 11
18.75
 21
-89.6
 31
0.0
  0
LINE
  5
351
330
1F
100
AcDbEntity
  8
0
  6
Continuous
 62
     7
370
    25
100
AcDbLine
 10
19.05
 20
-89.9
 30
0.0
 11
32.45
 21
-89.9
 31
0.0
  0
LINE
  5
352
330
1F
100
AcDbEntity
  8
0
  6
Continuous
 62
     7
370
    25
100
AcDbLine
 10
32.75
 20
-89.6
 30
0.0
 11
32.75
 21
-76.2
 31
0.0
  0
LINE
  5
353
330
1F
100
AcDbEntity
  8
0
  6
Continuous
 62
     7
370
    25
100
AcDbLine
 10
13.4
 20
-18.75
 30
0.0
 11
0.0
 21
-18.75
 31
0.0
  0
LINE
  5
354
330
1F
100
AcDbEntity
  8
0
  6
Continuous
 62
     7
370
    25
100
AcDbLine
 10
-0.3
 20
-19.05
 30
0.0
 11
-0.3
 21
-32.45
 31
0.0
  0
LINE
  5
355
330
1F
100
AcDbEntity
  8
0
  6
Continuous
 62
     7
370
    25
100
AcDbLine
 10
0.0
 20
-32.75
 30
0.0
 11
13.4
 21
-32.75
 31
0.0
  0
LINE
  5
356
330
1F
100
AcDbEntity
  8
0
  6
Continuous
 62
     7
370
    25
100
AcDbLine
 10
13.7
 20
-32.45
 30
0.0
 11
13.7
 21
-19.05
 31
0.0
  0
LINE
  5
357
330
1F
100
AcDbEntity
  8
0
  6
Continuous
 62
     7
370
    25
100
AcDbLine
 10
13.4
 20
-37.8
 30
0.0
 11
0.0
 21
-37.8
 31
0.0
  0
LINE
  5
358
330
1F
100
AcDbEntity
  8
0
  6
Continuous
 62
     7
370
    25
100
AcDbLine
 10
-0.3
 20
-38.1
 30
0.0
 11
-0.3
 21
-51.5
 31
0.0
  0
LINE
  5
359
330
1F
100
AcDbEntity
  8
0
  6
Continuous
 62
     7
370
    25
100
AcDbLine
 10
0.0
 20
-51.8
 30
0.0
 11
13.4
 21
-51.8
 31
0.0
  0
LINE
  5
35A
330
1F
100
AcDbEntity
  8
0
  6
Continuous
 62
     7
370
    25
100
AcDbLine
 10
13.7
 20
-51.5
 30
0.0
 11
13.7
 21
-38.1
 31
0.0
  0
LINE
  5
35B
330
1F
100
AcDbEntity
  8
0
  6
Continuous
 62
     7
370
    25
100
AcDbLine
 10
13.4
 20
-56.85
 30
0.0
 11
0.0
 21
-56.85
 31
0.0
  0
LINE
  5
35C
330
1F
100
AcDbEntity
  8
0
  6
Continuous
 62
     7
370
    25
100
AcDbLine
 10
-0.3
 20
-57.15
 30
0.0
 11
-0.3
 21
-70.55
 31
0.0
  0
LINE
  5
35D
330
1F
100
AcDbEntity
  8
0
  6
Continuous
 62
     7
370
    25
100
AcDbLine
 10
0.0
 20
-70.85
 30
0.0
 11
13.4
 21
-70.85
 31
0.0
  0
LINE
  5
35E
330
1F
100
AcDbEntity
  8
0
  6
Continuous
 62
     7
370
    25
100
AcDbLine
 10
13.7
 20
-70.55
 30
0.0
 11
13.7
 21
-57.15
 31
0.0
  0
LINE
  5
35F
330
1F
100
AcDbEntity
  8
0
  6
Continuous
 62
     7
370
    25
100
AcDbLine
 10
13.4
 20
-75.9
 30
0.0
 11
0.0
 21
-75.9
 31
0.0
  0
LINE
  5
360
330
1F
100
AcDbEntity
  8
0
  6
Continuous
 62
     7
370
    25
100
AcDbLine
 10
-0.3
 20
-76.2
 30
0.0
 11
-0.3
 21
-89.6
 31
0.0
  0
LINE
  5
361
330
1F
100
AcDbEntity
  8
0
  6
Continuous
 62
     7
370
    25
100
AcDbLine
 10
0.0
 20
-89.9
 30
0.0
 11
13.4
 21
-89.9
 31
0.0
  0
LINE
  5
362
330
1F
100
AcDbEntity
  8
0
  6
Continuous
 62
     7
370
    25
100
AcDbLine
 10
13.7
 20
-89.6
 30
0.0
 11
13.7
 21
-76.2
 31
0.0
  0
LINE
  5
363
330
1F
100
AcDbEntity
  8
0
  6
Continuous
 62
     7
370
    25
100
AcDbLine
 10
56.2625
 20
0.3
 30
0.0
 11
42.8625
 21
0.3
 31
0.0
  0
LINE
  5
364
330
1F
100
AcDbEntity
  8
0
  6
Continuous
 62
     7
370
    25
100
AcDbLine
 10
42.5625
 20
0.0
 30
0.0
 11
42.5625
 21
-13.4
 31
0.0
  0
LINE
  5
365
330
1F
100
AcDbEntity
  8
0
  6
Continuous
 62
     7
370
    25
100
AcDbLine
 10
42.8625
 20
-13.7
 30
0.0
 11
56.2625
 21
-13.7
 31
0.0
  0
LINE
  5
366
330
1F
100
AcDbEntity
  8
0
  6
Continuous
 62
     7
370
    25
100
AcDbLine
 10
56.5625
 20
-13.4
 30
0.0
 11
56.5625
 21
0.0
 31
0.0
  0
LINE
  5
367
330
1F
100
AcDbEntity
  8
0
  6
Continuous
 62
     7
370
    25
100
AcDbLine
 10
75.3125
 20
0.3
 30
0.0
 11
61.9125
 21
0.3
 31
0.0
  0
LINE
  5
368
330
1F
100
AcDbEntity
  8
0
  6
Continuous
 62
     7
370
    25
100
AcDbLine
 10
61.6125
 20
0.0
 30
0.0
 11
61.6125
 21
-13.4
 31
0.0
  0
LINE
  5
369
330
1F
100
AcDbEntity
  8
0
  6
Continuous
 62
     7
370
    25
100
AcDbLine
 10
61.9125
 20
-13.7
 30
0.0
 11
75.3125
 21
-13.7
 31
0.0
  0
LINE
  5
36A
330
1F
100
AcDbEntity
  8
0
  6
Continuous
 62
     7
370
    25
100
AcDbLine
 10
75.6125
 20
-13.4
 30
0.0
 11
75.6125
 21
0.0
 31
0.0
  0
LINE
  5
36B
330
1F
100
AcDbEntity
  8
0
  6
Continuous
 62
     7
370
    25
100
AcDbLine
 10
94.3625
 20
0.3
 30
0.0
 11
80.9625
 21
0.3
 31
0.0
  0
LINE
  5
36C
330
1F
100
AcDbEntity
  8
0
  6
Continuous
 62
     7
370
    25
100
AcDbLine
 10
80.6625
 20
0.0
 30
0.0
 11
80.6625
 21
-13.4
 31
0.0
  0
LINE
  5
36D
330
1F
100
AcDbEntity
  8
0
  6
Continuous
 62
     7
370
    25
100
AcDbLine
 10
80.9625
 20
-13.7
 30
0.0
 11
94.3625
 21
-13.7
 31
0.0
  0
LINE
  5
36E
330
1F
100
AcDbEntity
  8
0
  6
Continuous
 62
     7
370
    25
100
AcDbLine
 10
94.6625
 20
-13.4
 30
0.0
 11
94.6625
 21
0.0
 31
0.0
  0
LINE
  5
36F
330
1F
100
AcDbEntity
  8
0
  6
Continuous
 62
     7
370
    25
100
AcDbLine
 10
113.4125
 20
0.3
 30
0.0
 11
100.0125
 21
0.3
 31
0.0
  0
LINE
  5
370
330
1F
100
AcDbEntity
  8
0
  6
Continuous
 62
     7
370
    25
100
AcDbLine
 10
99.7125
 20
0.0
 30
0.0
 11
99.7125
 21
-13.4
 31
0.0
  0
LINE
  5
371
330
1F
100
AcDbEntity
  8
0
  6
Continuous
 62
     7
370
    25
100
AcDbLine
 10
100.0125
 20
-13.7
 30
0.0
 11
113.4125
 21
-13.7
 31
0.0
  0
LINE
  5
372
330
1F
100
AcDbEntity
  8
0
  6
Continuous
 62
     7
370
    25
100
AcDbLine
 10
113.7125
 20
-13.4
 30
0.0
 11
113.7125
 21
0.0
 31
0.0
  0
LINE
  5
373
330
1F
100
AcDbEntity
  8
0
  6
Continuous
 62
     7
370
    25
100
AcDbLine
 10
132.4625
 20
0.3
 30
0.0
 11
119.0625
 21
0.3
 31
0.0
  0
LINE
  5
374
330
1F
100
AcDbEntity
  8
0
  6
Continuous
 62
     7
370
    25
100
AcDbLine
 10
118.7625
 20
0.0
 30
0.0
 11
118.7625
 21
-13.4
 31
0.0
  0
LINE
  5
375
330
1F
100
AcDbEntity
  8
0
  6
Continuous
 62
     7
370
    25
100
AcDbLine
 10
119.0625
 20
-13.7
 30
0.0
 11
132.4625
 21
-13.7
 31
0.0
  0
LINE
  5
376
330
1F
100
AcDbEntity
  8
0
  6
Continuous
 62
     7
370
    25
100
AcDbLine
 10
132.7625
 20
-13.4
 30
0.0
 11
132.7625
 21
0.0
 31
0.0
  0
LINE
  5
377
330
1F
100
AcDbEntity
  8
0
  6
Continuous
 62
     7
370
    25
100
AcDbLine
 10
151.5125
 20
0.3
 30
0.0
 11
138.1125
 21
0.3
 31
0.0
  0
LINE
  5
378
330
1F
100
AcDbEntity
  8
0
  6
Continuous
 62
     7
370
    25
100
AcDbLine
 10
137.8125
 20
0.0
 30
0.0
 11
137.8125
 21
-13.4
 31
0.0
  0
LINE
  5
379
330
1F
100
AcDbEntity
  8
0
  6
Continuous
 62
     7
370
    25
100
AcDbLine
 10
138.1125
 20
-13.7
 30
0.0
 11
151.5125
 21
-13.7
 31
0.0
  0
LINE
  5
37A
330
1F
100
AcDbEntity
  8
0
  6
Continuous
 62
     7
370
    25
100
AcDbLine
 10
151.8125
 20
-13.4
 30
0.0
 11
151.8125
 21
0.0
 31
0.0
  0
LINE
  5
37B
330
1F
100
AcDbEntity
  8
0
  6
Continuous
 62
     7
370
    25
100
AcDbLine
 10
170.5625
 20
0.3
 30
0.0
 11
157.1625
 21
0.3
 31
0.0
  0
LINE
  5
37C
330
1F
100
AcDbEntity
  8
0
  6
Continuous
 62
     7
370
    25
100
AcDbLine
 10
156.8625
 20
0.0
 30
0.0
 11
156.8625
 21
-13.4
 31
0.0
  0
LINE
  5
37D
330
1F
100
AcDbEntity
  8
0
  6
Continuous
 62
     7
370
    25
100
AcDbLine
 10
157.1625
 20
-13.7
 30
0.0
 11
170.5625
 21
-13.7
 31
0.0
  0
LINE
  5
37E
330
1F
100
AcDbEntity
  8
0
  6
Continuous
 62
     7
370
    25
100
AcDbLine
 10
170.8625
 20
-13.4
 30
0.0
 11
170.8625
 21
0.0
 31
0.0
  0
LINE
  5
37F
330
1F
100
AcDbEntity
  8
0
  6
Continuous
 62
     7
370
    25
100
AcDbLine
 10
189.6125
 20
0.3
 30
0.0
 11
176.2125
 21
0.3
 31
0.0
  0
LINE
  5
380
330
1F
100
AcDbEntity
  8
0
  6
Continuous
 62
     7
370
    25
100
AcDbLine
 10
175.9125
 20
0.0
 30
0.0
 11
175.9125
 21
-13.4
 31
0.0
  0
LINE
  5
381
330
1F
100
AcDbEntity
  8
0
  6
Continuous
 62
     7
370
    25
100
AcDbLine
 10
176.2125
 20
-13.7
 30
0.0
 11
189.6125
 21
-13.7
 31
0.0
  0
LINE
  5
382
330
1F
100
AcDbEntity
  8
0
  6
Continuous
 62
     7
370
    25
100
AcDbLine
 10
189.9125
 20
-13.4
 30
0.0
 11
189.9125
 21
0.0
 31
0.0
  0
LINE
  5
383
330
1F
100
AcDbEntity
  8
0
  6
Continuous
 62
     7
370
    25
100
AcDbLine
 10
208.6625
 20
0.3
 30
0.0
 11
195.2625
 21
0.3
 31
0.0
  0
LINE
  5
384
330
1F
100
AcDbEntity
  8
0
  6
Continuous
 62
     7
370
    25
100
AcDbLine
 10
194.9625
 20
0.0
 30
0.0
 11
194.9625
 21
-13.4
 31
0.0
  0
LINE
  5
385
330
1F
100
AcDbEntity
  8
0
  6
Continuous
 62
     7
370
    25
100
AcDbLine
 10
195.2625
 20
-13.7
 30
0.0
 11
208.6625
 21
-13.7
 31
0.0
  0
LINE
  5
386
330
1F
100
AcDbEntity
  8
0
  6
Continuous
 62
     7
370
    25
100
AcDbLine
 10
208.9625
 20
-13.4
 30
0.0
 11
208.9625
 21
0.0
 31
0.0
  0
LINE
  5
387
330
1F
100
AcDbEntity
  8
0
  6
Continuous
 62
     7
370
    25
100
AcDbLine
 10
227.7125
 20
0.3
 30
0.0
 11
214.3125
 21
0.3
 31
0.0
  0
LINE
  5
388
330
1F
100
AcDbEntity
  8
0
  6
Continuous
 62
     7
370
    25
100
AcDbLine
 10
214.0125
 20
0.0
 30
0.0
 11
214.0125
 21
-13.4
 31
0.0
  0
LINE
  5
389
330
1F
100
AcDbEntity
  8
0
  6
Continuous
 62
     7
370
    25
100
AcDbLine
 10
214.3125
 20
-13.7
 30
0.0
 11
227.7125
 21
-13.7
 31
0.0
  0
LINE
  5
38A
330
1F
100
AcDbEntity
  8
0
  6
Continuous
 62
     7
370
    25
100
AcDbLine
 10
228.0125
 20
-13.4
 30
0.0
 11
228.0125
 21
0.0
 31
0.0
  0
LINE
  5
38B
330
1F
100
AcDbEntity
  8
0
  6
Continuous
 62
     7
370
    25
100
AcDbLine
 10
246.7625
 20
0.3
 30
0.0
 11
233.3625
 21
0.3
 31
0.0
  0
LINE
  5
38C
330
1F
100
AcDbEntity
  8
0
  6
Continuous
 62
     7
370
    25
100
AcDbLine
 10
233.0625
 20
0.0
 30
0.0
 11
233.0625
 21
-13.4
 31
0.0
  0
LINE
  5
38D
330
1F
100
AcDbEntity
  8
0
  6
Continuous
 62
     7
370
    25
100
AcDbLine
 10
233.3625
 20
-13.7
 30
0.0
 11
246.7625
 21
-13.7
 31
0.0
  0
LINE
  5
38E
330
1F
100
AcDbEntity
  8
0
  6
Continuous
 62
     7
370
    25
100
AcDbLine
 10
247.0625
 20
-13.4
 30
0.0
 11
247.0625
 21
0.0
 31
0.0
  0
LINE
  5
38F
330
1F
100
AcDbEntity
  8
0
  6
Continuous
 62
     7
370
    25
100
AcDbLine
 10
265.8125
 20
0.3
 30
0.0
 11
252.4125
 21
0.3
 31
0.0
  0
LINE
  5
390
330
1F
100
AcDbEntity
  8
0
  6
Continuous
 62
     7
370
    25
100
AcDbLine
 10
252.1125
 20
0.0
 30
0.0
 11
252.1125
 21
-13.4
 31
0.0
  0
LINE
  5
391
330
1F
100
AcDbEntity
  8
0
  6
Continuous
 62
     7
370
    25
100
AcDbLine
 10
252.4125
 20
-13.7
 30
0.0
 11
265.8125
 21
-13.7
 31
0.0
  0
LINE
  5
392
330
1F
100
AcDbEntity
  8
0
  6
Continuous
 62
     7
370
    25
100
AcDbLine
 10
266.1125
 20
-13.4
 30
0.0
 11
266.1125
 21
0.0
 31
0.0
  0
LINE
  5
393
330
1F
100
AcDbEntity
  8
0
  6
Continuous
 62
     7
370
    25
100
AcDbLine
 10
284.8625
 20
0.3
 30
0.0
 11
271.4625
 21
0.3
 31
0.0
  0
LINE
  5
394
330
1F
100
AcDbEntity
  8
0
  6
Continuous
 62
     7
370
    25
100
AcDbLine
 10
271.1625
 20
0.0
 30
0.0
 11
271.1625
 21
-13.4
 31
0.0
  0
LINE
  5
395
330
1F
100
AcDbEntity
  8
0
  6
Continuous
 62
     7
370
    25
100
AcDbLine
 10
271.4625
 20
-13.7
 30
0.0
 11
284.8625
 21
-13.7
 31
0.0
  0
LINE
  5
396
330
1F
100
AcDbEntity
  8
0
  6
Continuous
 62
     7
370
    25
100
AcDbLine
 10
285.1625
 20
-13.4
 30
0.0
 11
285.1625
 21
0.0
 31
0.0
  0
LINE
  5
397
330
1F
100
AcDbEntity
  8
0
  6
Continuous
 62
     7
370
    25
100
AcDbLine
 10
342.0125
 20
0.3
 30
0.0
 11
328.6125
 21
0.3
 31
0.0
  0
LINE
  5
398
330
1F
100
AcDbEntity
  8
0
  6
Continuous
 62
     7
370
    25
100
AcDbLine
 10
328.3125
 20
0.0
 30
0.0
 11
328.3125
 21
-13.4
 31
0.0
  0
LINE
  5
399
330
1F
100
AcDbEntity
  8
0
  6
Continuous
 62
     7
370
    25
100
AcDbLine
 10
328.6125
 20
-13.7
 30
0.0
 11
342.0125
 21
-13.7
 31
0.0
  0
LINE
  5
39A
330
1F
100
AcDbEntity
  8
0
  6
Continuous
 62
     7
370
    25
100
AcDbLine
 10
342.3125
 20
-13.4
 30
0.0
 11
342.3125
 21
0.0
 31
0.0
  0
LINE
  5
39B
330
1F
100
AcDbEntity
  8
0
  6
Continuous
 62
     7
370
    25
100
AcDbLine
 10
322.9625
 20
-56.85
 30
0.0
 11
309.5625
 21
-56.85
 31
0.0
  0
LINE
  5
39C
330
1F
100
AcDbEntity
  8
0
  6
Continuous
 62
     7
370
    25
100
AcDbLine
 10
309.2625
 20
-57.15
 30
0.0
 11
309.2625
 21
-70.55
 31
0.0
  0
LINE
  5
39D
330
1F
100
AcDbEntity
  8
0
  6
Continuous
 62
     7
370
    25
100
AcDbLine
 10
309.5625
 20
-70.85
 30
0.0
 11
322.9625
 21
-70.85
 31
0.0
  0
LINE
  5
39E
330
1F
100
AcDbEntity
  8
0
  6
Continuous
 62
     7
370
    25
100
AcDbLine
 10
323.2625
 20
-70.55
 30
0.0
 11
323.2625
 21
-57.15
 31
0.0
  0
LINE
  5
39F
330
1F
100
AcDbEntity
  8
0
  6
Continuous
 62
     7
370
    25
100
AcDbLine
 10
322.9625
 20
-75.9
 30
0.0
 11
309.5625
 21
-75.9
 31
0.0
  0
LINE
  5
3A0
330
1F
100
AcDbEntity
  8
0
  6
Continuous
 62
     7
370
    25
100
AcDbLine
 10
309.2625
 20
-76.2
 30
0.0
 11
309.2625
 21
-89.6
 31
0.0
  0
LINE
  5
3A1
330
1F
100
AcDbEntity
  8
0
  6
Continuous
 62
     7
370
    25
100
AcDbLine
 10
309.5625
 20
-89.9
 30
0.0
 11
322.9625
 21
-89.9
 31
0.0
  0
LINE
  5
3A2
330
1F
100
AcDbEntity
  8
0
  6
Continuous
 62
     7
370
    25
100
AcDbLine
 10
323.2625
 20
-89.6
 30
0.0
 11
323.2625
 21
-76.2
 31
0.0
  0
LINE
  5
3A3
330
1F
100
AcDbEntity
  8
0
  6
Continuous
 62
     7
370
    25
100
AcDbLine
 10
303.9125
 20
-75.9
 30
0.0
 11
290.5125
 21
-75.9
 31
0.0
  0
LINE
  5
3A4
330
1F
100
AcDbEntity
  8
0
  6
Continuous
 62
     7
370
    25
100
AcDbLine
 10
290.2125
 20
-76.2
 30
0.0
 11
290.2125
 21
-89.6
 31
0.0
  0
LINE
  5
3A5
330
1F
100
AcDbEntity
  8
0
  6
Continuous
 62
     7
370
    25
100
AcDbLine
 10
290.5125
 20
-89.9
 30
0.0
 11
303.9125
 21
-89.9
 31
0.0
  0
LINE
  5
3A6
330
1F
100
AcDbEntity
  8
0
  6
Continuous
 62
     7
370
    25
100
AcDbLine
 10
304.2125
 20
-89.6
 30
0.0
 11
304.2125
 21
-76.2
 31
0.0
  0
LINE
  5
3A7
330
1F
100
AcDbEntity
  8
0
  6
Continuous
 62
     7
370
    25
100
AcDbLine
 10
342.0125
 20
-18.75
 30
0.0
 11
328.6125
 21
-18.75
 31
0.0
  0
LINE
  5
3A8
330
1F
100
AcDbEntity
  8
0
  6
Continuous
 62
     7
370
    25
100
AcDbLine
 10
328.3125
 20
-19.05
 30
0.0
 11
328.3125
 21
-32.45
 31
0.0
  0
LINE
  5
3A9
330
1F
100
AcDbEntity
  8
0
  6
Continuous
 62
     7
370
    25
100
AcDbLine
 10
328.6125
 20
-32.75
 30
0.0
 11
342.0125
 21
-32.75
 31
0.0
  0
LINE
  5
3AA
330
1F
100
AcDbEntity
  8
0
  6
Continuous
 62
     7
370
    25
100
AcDbLine
 10
342.3125
 20
-32.45
 30
0.0
 11
342.3125
 21
-19.05
 31
0.0
  0
LINE
  5
3AB
330
1F
100
AcDbEntity
  8
0
  6
Continuous
 62
     7
370
    25
100
AcDbLine
 10
342.0125
 20
-37.8
 30
0.0
 11
328.6125
 21
-37.8
 31
0.0
  0
LINE
  5
3AC
330
1F
100
AcDbEntity
  8
0
  6
Continuous
 62
     7
370
    25
100
AcDbLine
 10
328.3125
 20
-38.1
 30
0.0
 11
328.3125
 21
-51.5
 31
0.0
  0
LINE
  5
3AD
330
1F
100
AcDbEntity
  8
0
  6
Continuous
 62
     7
370
    25
100
AcDbLine
 10
328.6125
 20
-51.8
 30
0.0
 11
342.0125
 21
-51.8
 31
0.0
  0
LINE
  5
3AE
330
1F
100
AcDbEntity
  8
0
  6
Continuous
 62
     7
370
    25
100
AcDbLine
 10
342.3125
 20
-51.5
 30
0.0
 11
342.3125
 21
-38.1
 31
0.0
  0
LINE
  5
3AF
330
1F
100
AcDbEntity
  8
0
  6
Continuous
 62
     7
370
    25
100
AcDbLine
 10
342.0125
 20
-56.85
 30
0.0
 11
328.6125
 21
-56.85
 31
0.0
  0
LINE
  5
3B0
330
1F
100
AcDbEntity
  8
0
  6
Continuous
 62
     7
370
    25
100
AcDbLine
 10
328.3125
 20
-57.15
 30
0.0
 11
328.3125
 21
-70.55
 31
0.0
  0
LINE
  5
3B1
330
1F
100
AcDbEntity
  8
0
  6
Continuous
 62
     7
370
    25
100
AcDbLine
 10
328.6125
 20
-70.85
 30
0.0
 11
342.0125
 21
-70.85
 31
0.0
  0
LINE
  5
3B2
330
1F
100
AcDbEntity
  8
0
  6
Continuous
 62
     7
370
    25
100
AcDbLine
 10
342.3125
 20
-70.55
 30
0.0
 11
342.3125
 21
-57.15
 31
0.0
  0
LINE
  5
3B3
330
1F
100
AcDbEntity
  8
0
  6
Continuous
 62
     7
370
    25
100
AcDbLine
 10
342.0125
 20
-75.9
 30
0.0
 11
328.6125
 21
-75.9
 31
0.0
  0
LINE
  5
3B4
330
1F
100
AcDbEntity
  8
0
  6
Continuous
 62
     7
370
    25
100
AcDbLine
 10
328.3125
 20
-76.2
 30
0.0
 11
328.3125
 21
-89.6
 31
0.0
  0
LINE
  5
3B5
330
1F
100
AcDbEntity
  8
0
  6
Continuous
 62
     7
370
    25
100
AcDbLine
 10
328.6125
 20
-89.9
 30
0.0
 11
342.0125
 21
-89.9
 31
0.0
  0
LINE
  5
3B6
330
1F
100
AcDbEntity
  8
0
  6
Continuous
 62
     7
370
    25
100
AcDbLine
 10
342.3125
 20
-89.6
 30
0.0
 11
342.3125
 21
-76.2
 31
0.0
  0
LINE
  5
3B7
330
1F
100
AcDbEntity
  8
0
  6
Continuous
 62
     7
370
    25
100
AcDbLine
 10
61.025
 20
-18.75
 30
0.0
 11
47.625
 21
-18.75
 31
0.0
  0
LINE
  5
3B8
330
1F
100
AcDbEntity
  8
0
  6
Continuous
 62
     7
370
    25
100
AcDbLine
 10
47.325
 20
-19.05
 30
0.0
 11
47.325
 21
-32.45
 31
0.0
  0
LINE
  5
3B9
330
1F
100
AcDbEntity
  8
0
  6
Continuous
 62
     7
370
    25
100
AcDbLine
 10
47.625
 20
-32.75
 30
0.0
 11
61.025
 21
-32.75
 31
0.0
  0
LINE
  5
3BA
330
1F
100
AcDbEntity
  8
0
  6
Continuous
 62
     7
370
    25
100
AcDbLine
 10
61.325
 20
-32.45
 30
0.0
 11
61.325
 21
-19.05
 31
0.0
  0
LINE
  5
3BB
330
1F
100
AcDbEntity
  8
0
  6
Continuous
 62
     7
370
    25
100
AcDbLine
 10
84.8375
 20
-18.75
 30
0.0
 11
71.4375
 21
-18.75
 31
0.0
  0
LINE
  5
3BC
330
1F
100
AcDbEntity
  8
0
  6
Continuous
 62
     7
370
    25
100
AcDbLine
 10
71.1375
 20
-19.05
 30
0.0
 11
71.1375
 21
-32.45
 31
0.0
  0
LINE
  5
3BD
330
1F
100
AcDbEntity
  8
0
  6
Continuous
 62
     7
370
    25
100
AcDbLine
 10
71.4375
 20
-32.75
 30
0.0
 11
84.8375
 21
-32.75
 31
0.0
  0
LINE
  5
3BE
330
1F
100
AcDbEntity
  8
0
  6
Continuous
 62
     7
370
    25
100
AcDbLine
 10
85.1375
 20
-32.45
 30
0.0
 11
85.1375
 21
-19.05
 31
0.0
  0
LINE
  5
3BF
330
1F
100
AcDbEntity
  8
0
  6
Continuous
 62
     7
370
    25
100
AcDbLine
 10
103.8875
 20
-18.75
 30
0.0
 11
90.4875
 21
-18.75
 31
0.0
  0
LINE
  5
3C0
330
1F
100
AcDbEntity
  8
0
  6
Continuous
 62
     7
370
    25
100
AcDbLine
 10
90.1875
 20
-19.05
 30
0.0
 11
90.1875
 21
-32.45
 31
0.0
  0
LINE
  5
3C1
330
1F
100
AcDbEntity
  8
0
  6
Continuous
 62
     7
370
    25
100
AcDbLine
 10
90.4875
 20
-32.75
 30
0.0
 11
103.8875
 21
-32.75
 31
0.0
  0
LINE
  5
3C2
330
1F
100
AcDbEntity
  8
0
  6
Continuous
 62
     7
370
    25
100
AcDbLine
 10
104.1875
 20
-32.45
 30
0.0
 11
104.1875
 21
-19.05
 31
0.0
  0
LINE
  5
3C3
330
1F
100
AcDbEntity
  8
0
  6
Continuous
 62
     7
370
    25
100
AcDbLine
 10
122.9375
 20
-18.75
 30
0.0
 11
109.5375
 21
-18.75
 31
0.0
  0
LINE
  5
3C4
330
1F
100
AcDbEntity
  8
0
  6
Continuous
 62
     7
370
    25
100
AcDbLine
 10
109.2375
 20
-19.05
 30
0.0
 11
109.2375
 21
-32.45
 31
0.0
  0
LINE
  5
3C5
330
1F
100
AcDbEntity
  8
0
  6
Continuous
 62
     7
370
    25
100
AcDbLine
 10
109.5375
 20
-32.75
 30
0.0
 11
122.9375
 21
-32.75
 31
0.0
  0
LINE
  5
3C6
330
1F
100
AcDbEntity
  8
0
  6
Continuous
 62
     7
370
    25
100
AcDbLine
 10
123.2375
 20
-32.45
 30
0.0
 11
123.2375
 21
-19.05
 31
0.0
  0
LINE
  5
3C7
330
1F
100
AcDbEntity
  8
0
  6
Continuous
 62
     7
370
    25
100
AcDbLine
 10
141.9875
 20
-18.75
 30
0.0
 11
128.5875
 21
-18.75
 31
0.0
  0
LINE
  5
3C8
330
1F
100
AcDbEntity
  8
0
  6
Continuous
 62
     7
370
    25
100
AcDbLine
 10
128.2875
 20
-19.05
 30
0.0
 11
128.2875
 21
-32.45
 31
0.0
  0
LINE
  5
3C9
330
1F
100
AcDbEntity
  8
0
  6
Continuous
 62
     7
370
    25
100
AcDbLine
 10
128.5875
 20
-32.75
 30
0.0
 11
141.9875
 21
-32.75
 31
0.0
  0
LINE
  5
3CA
330
1F
100
AcDbEntity
  8
0
  6
Continuous
 62
     7
370
    25
100
AcDbLine
 10
142.2875
 20
-32.45
 30
0.0
 11
142.2875
 21
-19.05
 31
0.0
  0
LINE
  5
3CB
330
1F
100
AcDbEntity
  8
0
  6
Continuous
 62
     7
370
    25
100
AcDbLine
 10
161.0375
 20
-18.75
 30
0.0
 11
147.6375
 21
-18.75
 31
0.0
  0
LINE
  5
3CC
330
1F
100
AcDbEntity
  8
0
  6
Continuous
 62
     7
370
    25
100
AcDbLine
 10
147.3375
 20
-19.05
 30
0.0
 11
147.3375
 21
-32.45
 31
0.0
  0
LINE
  5
3CD
330
1F
100
AcDbEntity
  8
0
  6
Continuous
 62
     7
370
    25
100
AcDbLine
 10
147.6375
 20
-32.75
 30
0.0
 11
161.0375
 21
-32.75
 31
0.0
  0
LINE
  5
3CE
330
1F
100
AcDbEntity
  8
0
  6
Continuous
 62
     7
370
    25
100
AcDbLine
 10
161.3375
 20
-32.45
 30
0.0
 11
161.3375
 21
-19.05
 31
0.0
  0
LINE
  5
3CF
330
1F
100
AcDbEntity
  8
0
  6
Continuous
 62
     7
370
    25
100
AcDbLine
 10
180.0875
 20
-18.75
 30
0.0
 11
166.6875
 21
-18.75
 31
0.0
  0
LINE
  5
3D0
330
1F
100
AcDbEntity
  8
0
  6
Continuous
 62
     7
370
    25
100
AcDbLine
 10
166.3875
 20
-19.05
 30
0.0
 11
166.3875
 21
-32.45
 31
0.0
  0
LINE
  5
3D1
330
1F
100
AcDbEntity
  8
0
  6
Continuous
 62
     7
370
    25
100
AcDbLine
 10
166.6875
 20
-32.75
 30
0.0
 11
180.0875
 21
-32.75
 31
0.0
  0
LINE
  5
3D2
330
1F
100
AcDbEntity
  8
0
  6
Continuous
 62
     7
370
    25
100
AcDbLine
 10
180.3875
 20
-32.45
 30
0.0
 11
180.3875
 21
-19.05
 31
0.0
  0
LINE
  5
3D3
330
1F
100
AcDbEntity
  8
0
  6
Continuous
 62
     7
370
    25
100
AcDbLine
 10
199.1375
 20
-18.75
 30
0.0
 11
185.7375
 21
-18.75
 31
0.0
  0
LINE
  5
3D4
330
1F
100
AcDbEntity
  8
0
  6
Continuous
 62
     7
370
    25
100
AcDbLine
 10
185.4375
 20
-19.05
 30
0.0
 11
185.4375
 21
-32.45
 31
0.0
  0
LINE
  5
3D5
330
1F
100
AcDbEntity
  8
0
  6
Continuous
 62
     7
370
    25
100
AcDbLine
 10
185.7375
 20
-32.75
 30
0.0
 11
199.1375
 21
-32.75
 31
0.0
  0
LINE
  5
3D6
330
1F
100
AcDbEntity
  8
0
  6
Continuous
 62
     7
370
    25
100
AcDbLine
 10
199.4375
 20
-32.45
 30
0.0
 11
199.4375
 21
-19.05
 31
0.0
  0
LINE
  5
3D7
330
1F
100
AcDbEntity
  8
0
  6
Continuous
 62
     7
370
    25
100
AcDbLine
 10
218.1875
 20
-18.75
 30
0.0
 11
204.7875
 21
-18.75
 31
0.0
  0
LINE
  5
3D8
330
1F
100
AcDbEntity
  8
0
  6
Continuous
 62
     7
370
    25
100
AcDbLine
 10
204.4875
 20
-19.05
 30
0.0
 11
204.4875
 21
-32.45
 31
0.0
  0
LINE
  5
3D9
330
1F
100
AcDbEntity
  8
0
  6
Continuous
 62
     7
370
    25
100
AcDbLine
 10
204.7875
 20
-32.75
 30
0.0
 11
218.1875
 21
-32.75
 31
0.0
  0
LINE
  5
3DA
330
1F
100
AcDbEntity
  8
0
  6
Continuous
 62
     7
370
    25
100
AcDbLine
 10
218.4875
 20
-32.45
 30
0.0
 11
218.4875
 21
-19.05
 31
0.0
  0
LINE
  5
3DB
330
1F
100
AcDbEntity
  8
0
  6
Continuous
 62
     7
370
    25
100
AcDbLine
 10
237.2375
 20
-18.75
 30
0.0
 11
223.8375
 21
-18.75
 31
0.0
  0
LINE
  5
3DC
330
1F
100
AcDbEntity
  8
0
  6
Continuous
 62
     7
370
    25
100
AcDbLine
 10
223.5375
 20
-19.05
 30
0.0
 11
223.5375
 21
-32.45
 31
0.0
  0
LINE
  5
3DD
330
1F
100
AcDbEntity
  8
0
  6
Continuous
 62
     7
370
    25
100
AcDbLine
 10
223.8375
 20
-32.75
 30
0.0
 11
237.2375
 21
-32.75
 31
0.0
  0
LINE
  5
3DE
330
1F
100
AcDbEntity
  8
0
  6
Continuous
 62
     7
370
    25
100
AcDbLine
 10
237.5375
 20
-32.45
 30
0.0
 11
237.5375
 21
-19.05
 31
0.0
  0
LINE
  5
3DF
330
1F
100
AcDbEntity
  8
0
  6
Continuous
 62
     7
370
    25
100
AcDbLine
 10
256.2875
 20
-18.75
 30
0.0
 11
242.8875
 21
-18.75
 31
0.0
  0
LINE
  5
3E0
330
1F
100
AcDbEntity
  8
0
  6
Continuous
 62
     7
370
    25
100
AcDbLine
 10
242.5875
 20
-19.05
 30
0.0
 11
242.5875
 21
-32.45
 31
0.0
  0
LINE
  5
3E1
330
1F
100
AcDbEntity
  8
0
  6
Continuous
 62
     7
370
    25
100
AcDbLine
 10
242.8875
 20
-32.75
 30
0.0
 11
256.2875
 21
-32.75
 31
0.0
  0
LINE
  5
3E2
330
1F
100
AcDbEntity
  8
0
  6
Continuous
 62
     7
370
    25
100
AcDbLine
 10
256.5875
 20
-32.45
 30
0.0
 11
256.5875
 21
-19.05
 31
0.0
  0
LINE
  5
3E3
330
1F
100
AcDbEntity
  8
0
  6
Continuous
 62
     7
370
    25
100
AcDbLine
 10
275.3375
 20
-18.75
 30
0.0
 11
261.9375
 21
-18.75
 31
0.0
  0
LINE
  5
3E4
330
1F
100
AcDbEntity
  8
0
  6
Continuous
 62
     7
370
    25
100
AcDbLine
 10
261.6375
 20
-19.05
 30
0.0
 11
261.6375
 21
-32.45
 31
0.0
  0
LINE
  5
3E5
330
1F
100
AcDbEntity
  8
0
  6
Continuous
 62
     7
370
    25
100
AcDbLine
 10
261.9375
 20
-32.75
 30
0.0
 11
275.3375
 21
-32.75
 31
0.0
  0
LINE
  5
3E6
330
1F
100
AcDbEntity
  8
0
  6
Continuous
 62
     7
370
    25
100
AcDbLine
 10
275.6375
 20
-32.45
 30
0.0
 11
275.6375
 21
-19.05
 31
0.0
  0
LINE
  5
3E7
330
1F
100
AcDbEntity
  8
0
  6
Continuous
 62
     7
370
    25
100
AcDbLine
 10
294.3875
 20
-18.75
 30
0.0
 11
280.9875
 21
-18.75
 31
0.0
  0
LINE
  5
3E8
330
1F
100
AcDbEntity
  8
0
  6
Continuous
 62
     7
370
    25
100
AcDbLine
 10
280.6875
 20
-19.05
 30
0.0
 11
280.6875
 21
-32.45
 31
0.0
  0
LINE
  5
3E9
330
1F
100
AcDbEntity
  8
0
  6
Continuous
 62
     7
370
    25
100
AcDbLine
 10
280.9875
 20
-32.75
 30
0.0
 11
294.3875
 21
-32.75
 31
0.0
  0
LINE
  5
3EA
330
1F
100
AcDbEntity
  8
0
  6
Continuous
 62
     7
370
    25
100
AcDbLine
 10
294.6875
 20
-32.45
 30
0.0
 11
294.6875
 21
-19.05
 31
0.0
  0
LINE
  5
3EB
330
1F
100
AcDbEntity
  8
0
  6
Continuous
 62
     7
370
    25
100
AcDbLine
 10
318.2
 20
-18.75
 30
0.0
 11
304.8
 21
-18.75
 31
0.0
  0
LINE
  5
3EC
330
1F
100
AcDbEntity
  8
0
  6
Continuous
 62
     7
370
    25
100
AcDbLine
 10
304.5
 20
-19.05
 30
0.0
 11
304.5
 21
-32.45
 31
0.0
  0
LINE
  5
3ED
330
1F
100
AcDbEntity
  8
0
  6
Continuous
 62
     7
370
    25
100
AcDbLine
 10
304.8
 20
-32.75
 30
0.0
 11
318.2
 21
-32.75
 31
0.0
  0
LINE
  5
3EE
330
1F
100
AcDbEntity
  8
0
  6
Continuous
 62
     7
370
    25
100
AcDbLine
 10
318.5
 20
-32.45
 30
0.0
 11
318.5
 21
-19.05
 31
0.0
  0
LINE
  5
3EF
330
1F
100
AcDbEntity
  8
0
  6
Continuous
 62
     7
370
    25
100
AcDbLine
 10
89.6
 20
-37.8
 30
0.0
 11
76.2
 21
-37.8
 31
0.0
  0
LINE
  5
3F0
330
1F
100
AcDbEntity
  8
0
  6
Continuous
 62
     7
370
    25
100
AcDbLine
 10
75.9
 20
-38.1
 30
0.0
 11
75.9
 21
-51.5
 31
0.0
  0
LINE
  5
3F1
330
1F
100
AcDbEntity
  8
0
  6
Continuous
 62
     7
370
    25
100
AcDbLine
 10
76.2
 20
-51.8
 30
0.0
 11
89.6
 21
-51.8
 31
0.0
  0
LINE
  5
3F2
330
1F
100
AcDbEntity
  8
0
  6
Continuous
 62
     7
370
    25
100
AcDbLine
 10
89.9
 20
-51.5
 30
0.0
 11
89.9
 21
-38.1
 31
0.0
  0
LINE
  5
3F3
330
1F
100
AcDbEntity
  8
0
  6
Continuous
 62
     7
370
    25
100
AcDbLine
 10
108.65
 20
-37.8
 30
0.0
 11
95.25
 21
-37.8
 31
0.0
  0
LINE
  5
3F4
330
1F
100
AcDbEntity
  8
0
  6
Continuous
 62
     7
370
    25
100
AcDbLine
 10
94.95
 20
-38.1
 30
0.0
 11
94.95
 21
-51.5
 31
0.0
  0
LINE
  5
3F5
330
1F
100
AcDbEntity
  8
0
  6
Continuous
 62
     7
370
    25
100
AcDbLine
 10
95.25
 20
-51.8
 30
0.0
 11
108.65
 21
-51.8
 31
0.0
  0
LINE
  5
3F6
330
1F
100
AcDbEntity
  8
0
  6
Continuous
 62
     7
370
    25
100
AcDbLine
 10
108.95
 20
-51.5
 30
0.0
 11
108.95
 21
-38.1
 31
0.0
  0
LINE
  5
3F7
330
1F
100
AcDbEntity
  8
0
  6
Continuous
 62
     7
370
    25
100
AcDbLine
 10
127.7
 20
-37.8
 30
0.0
 11
114.3
 21
-37.8
 31
0.0
  0
LINE
  5
3F8
330
1F
100
AcDbEntity
  8
0
  6
Continuous
 62
     7
370
    25
100
AcDbLine
 10
114.0
 20
-38.1
 30
0.0
 11
114.0
 21
-51.5
 31
0.0
  0
LINE
  5
3F9
330
1F
100
AcDbEntity
  8
0
  6
Continuous
 62
     7
370
    25
100
AcDbLine
 10
114.3
 20
-51.8
 30
0.0
 11
127.7
 21
-51.8
 31
0.0
  0
LINE
  5
3FA
330
1F
100
AcDbEntity
  8
0
  6
Continuous
 62
     7
370
    25
100
AcDbLine
 10
128.0
 20
-51.5
 30
0.0
 11
128.0
 21
-38.1
 31
0.0
  0
LINE
  5
3FB
330
1F
100
AcDbEntity
  8
0
  6
Continuous
 62
     7
370
    25
100
AcDbLine
 10
146.75
 20
-37.8
 30
0.0
 11
133.35
 21
-37.8
 31
0.0
  0
LINE
  5
3FC
330
1F
100
AcDbEntity
  8
0
  6
Continuous
 62
     7
370
    25
100
AcDbLine
 10
133.05
 20
-38.1
 30
0.0
 11
133.05
 21
-51.5
 31
0.0
  0
LINE
  5
3FD
330
1F
100
AcDbEntity
  8
0
  6
Continuous
 62
     7
370
    25
100
AcDbLine
 10
133.35
 20
-51.8
 30
0.0
 11
146.75
 21
-51.8
 31
0.0
  0
LINE
  5
3FE
330
1F
100
AcDbEntity
  8
0
  6
Continuous
 62
     7
370
    25
100
AcDbLine
 10
147.05
 20
-51.5
 30
0.0
 11
147.05
 21
-38.1
 31
0.0
  0
LINE
  5
3FF
330
1F
100
AcDbEntity
  8
0
  6
Continuous
 62
     7
370
    25
100
AcDbLine
 10
165.8
 20
-37.8
 30
0.0
 11
152.4
 21
-37.8
 31
0.0
  0
LINE
  5
400
330
1F
100
AcDbEntity
  8
0
  6
Continuous
 62
     7
370
    25
100
AcDbLine
 10
152.1
 20
-38.1
 30
0.0
 11
152.1
 21
-51.5
 31
0.0
  0
LINE
  5
401
330
1F
100
AcDbEntity
  8
0
  6
Continuous
 62
     7
370
    25
100
AcDbLine
 10
152.4
 20
-51.8
 30
0.0
 11
165.8
 21
-51.8
 31
0.0
  0
LINE
  5
402
330
1F
100
AcDbEntity
  8
0
  6
Continuous
 62
     7
370
    25
100
AcDbLine
 10
166.1
 20
-51.5
 30
0.0
 11
166.1
 21
-38.1
 31
0.0
  0
LINE
  5
403
330
1F
100
AcDbEntity
  8
0
  6
Continuous
 62
     7
370
    25
100
AcDbLine
 10
184.85
 20
-37.8
 30
0.0
 11
171.45
 21
-37.8
 31
0.0
  0
LINE
  5
404
330
1F
100
AcDbEntity
  8
0
  6
Continuous
 62
     7
370
    25
100
AcDbLine
 10
171.15
 20
-38.1
 30
0.0
 11
171.15
 21
-51.5
 31
0.0
  0
LINE
  5
405
330
1F
100
AcDbEntity
  8
0
  6
Continuous
 62
     7
370
    25
100
AcDbLine
 10
171.45
 20
-51.8
 30
0.0
 11
184.85
 21
-51.8
 31
0.0
  0
LINE
  5
406
330
1F
100
AcDbEntity
  8
0
  6
Continuous
 62
     7
370
    25
100
AcDbLine
 10
185.15
 20
-51.5
 30
0.0
 11
185.15
 21
-38.1
 31
0.0
  0
LINE
  5
407
330
1F
100
AcDbEntity
  8
0
  6
Continuous
 62
     7
370
    25
100
AcDbLine
 10
203.9
 20
-37.8
 30
0.0
 11
190.5
 21
-37.8
 31
0.0
  0
LINE
  5
408
330
1F
100
AcDbEntity
  8
0
  6
Continuous
 62
     7
370
    25
100
AcDbLine
 10
190.2
 20
-38.1
 30
0.0
 11
190.2
 21
-51.5
 31
0.0
  0
LINE
  5
409
330
1F
100
AcDbEntity
  8
0
  6
Continuous
 62
     7
370
    25
100
AcDbLine
 10
190.5
 20
-51.8
 30
0.0
 11
203.9
 21
-51.8
 31
0.0
  0
LINE
  5
40A
330
1F
100
AcDbEntity
  8
0
  6
Continuous
 62
     7
370
    25
100
AcDbLine
 10
204.2
 20
-51.5
 30
0.0
 11
204.2
 21
-38.1
 31
0.0
  0
LINE
  5
40B
330
1F
100
AcDbEntity
  8
0
  6
Continuous
 62
     7
370
    25
100
AcDbLine
 10
222.95
 20
-37.8
 30
0.0
 11
209.55
 21
-37.8
 31
0.0
  0
LINE
  5
40C
330
1F
100
AcDbEntity
  8
0
  6
Continuous
 62
     7
370
    25
100
AcDbLine
 10
209.25
 20
-38.1
 30
0.0
 11
209.25
 21
-51.5
 31
0.0
  0
LINE
  5
40D
330
1F
100
AcDbEntity
  8
0
  6
Continuous
 62
     7
370
    25
100
AcDbLine
 10
209.55
 20
-51.8
 30
0.0
 11
222.95
 21
-51.8
 31
0.0
  0
LINE
  5
40E
330
1F
100
AcDbEntity
  8
0
  6
Continuous
 62
     7
370
    25
100
AcDbLine
 10
223.25
 20
-51.5
 30
0.0
 11
223.25
 21
-38.1
 31
0.0
  0
LINE
  5
40F
330
1F
100
AcDbEntity
  8
0
  6
Continuous
 62
     7
370
    25
100
AcDbLine
 10
242.0
 20
-37.8
 30
0.0
 11
228.6
 21
-37.8
 31
0.0
  0
LINE
  5
410
330
1F
100
AcDbEntity
  8
0
  6
Continuous
 62
     7
370
    25
100
AcDbLine
 10
228.3
 20
-38.1
 30
0.0
 11
228.3
 21
-51.5
 31
0.0
  0
LINE
  5
411
330
1F
100
AcDbEntity
  8
0
  6
Continuous
 62
     7
370
    25
100
AcDbLine
 10
228.6
 20
-51.8
 30
0.0
 11
242.0
 21
-51.8
 31
0.0
  0
LINE
  5
412
330
1F
100
AcDbEntity
  8
0
  6
Continuous
 62
     7
370
    25
100
AcDbLine
 10
242.3
 20
-51.5
 30
0.0
 11
242.3
 21
-38.1
 31
0.0
  0
LINE
  5
413
330
1F
100
AcDbEntity
  8
0
  6
Continuous
 62
     7
370
    25
100
AcDbLine
 10
261.05
 20
-37.8
 30
0.0
 11
247.65
 21
-37.8
 31
0.0
  0
LINE
  5
414
330
1F
100
AcDbEntity
  8
0
  6
Continuous
 62
     7
370
    25
100
AcDbLine
 10
247.35
 20
-38.1
 30
0.0
 11
247.35
 21
-51.5
 31
0.0
  0
LINE
  5
415
330
1F
100
AcDbEntity
  8
0
  6
Continuous
 62
     7
370
    25
100
AcDbLine
 10
247.65
 20
-51.8
 30
0.0
 11
261.05
 21
-51.8
 31
0.0
  0
LINE
  5
416
330
1F
100
AcDbEntity
  8
0
  6
Continuous
 62
     7
370
    25
100
AcDbLine
 10
261.35
 20
-51.5
 30
0.0
 11
261.35
 21
-38.1
 31
0.0
  0
LINE
  5
417
330
1F
100
AcDbEntity
  8
0
  6
Continuous
 62
     7
370
    25
100
AcDbLine
 10
280.1
 20
-37.8
 30
0.0
 11
266.7
 21
-37.8
 31
0.0
  0
LINE
  5
418
330
1F
100
AcDbEntity
  8
0
  6
Continuous
 62
     7
370
    25
100
AcDbLine
 10
266.4
 20
-38.1
 30
0.0
 11
266.4
 21
-51.5
 31
0.0
  0
LINE
  5
419
330
1F
100
AcDbEntity
  8
0
  6
Continuous
 62
     7
370
    25
100
AcDbLine
 10
266.7
 20
-51.8
 30
0.0
 11
280.1
 21
-51.8
 31
0.0
  0
LINE
  5
41A
330
1F
100
AcDbEntity
  8
0
  6
Continuous
 62
     7
370
    25
100
AcDbLine
 10
280.4
 20
-51.5
 30
0.0
 11
280.4
 21
-38.1
 31
0.0
  0
LINE
  5
41B
330
1F
100
AcDbEntity
  8
0
  6
Continuous
 62
     7
370
    25
100
AcDbLine
 10
99.125
 20
-56.85
 30
0.0
 11
85.725
 21
-56.85
 31
0.0
  0
LINE
  5
41C
330
1F
100
AcDbEntity
  8
0
  6
Continuous
 62
     7
370
    25
100
AcDbLine
 10
85.425
 20
-57.15
 30
0.0
 11
85.425
 21
-70.55
 31
0.0
  0
LINE
  5
41D
330
1F
100
AcDbEntity
  8
0
  6
Continuous
 62
     7
370
    25
100
AcDbLine
 10
85.725
 20
-70.85
 30
0.0
 11
99.125
 21
-70.85
 31
0.0
  0
LINE
  5
41E
330
1F
100
AcDbEntity
  8
0
  6
Continuous
 62
     7
370
    25
100
AcDbLine
 10
99.425
 20
-70.55
 30
0.0
 11
99.425
 21
-57.15
 31
0.0
  0
LINE
  5
41F
330
1F
100
AcDbEntity
  8
0
  6
Continuous
 62
     7
370
    25
100
AcDbLine
 10
118.175
 20
-56.85
 30
0.0
 11
104.775
 21
-56.85
 31
0.0
  0
LINE
  5
420
330
1F
100
AcDbEntity
  8
0
  6
Continuous
 62
     7
370
    25
100
AcDbLine
 10
104.475
 20
-57.15
 30
0.0
 11
104.475
 21
-70.55
 31
0.0
  0
LINE
  5
421
330
1F
100
AcDbEntity
  8
0
  6
Continuous
 62
     7
370
    25
100
AcDbLine
 10
104.775
 20
-70.85
 30
0.0
 11
118.175
 21
-70.85
 31
0.0
  0
LINE
  5
422
330
1F
100
AcDbEntity
  8
0
  6
Continuous
 62
     7
370
    25
100
AcDbLine
 10
118.475
 20
-70.55
 30
0.0
 11
118.475
 21
-57.15
 31
0.0
  0
LINE
  5
423
330
1F
100
AcDbEntity
  8
0
  6
Continuous
 62
     7
370
    25
100
AcDbLine
 10
137.225
 20
-56.85
 30
0.0
 11
123.825
 21
-56.85
 31
0.0
  0
LINE
  5
424
330
1F
100
AcDbEntity
  8
0
  6
Continuous
 62
     7
370
    25
100
AcDbLine
 10
123.525
 20
-57.15
 30
0.0
 11
123.525
 21
-70.55
 31
0.0
  0
LINE
  5
425
330
1F
100
AcDbEntity
  8
0
  6
Continuous
 62
     7
370
    25
100
AcDbLine
 10
123.825
 20
-70.85
 30
0.0
 11
137.225
 21
-70.85
 31
0.0
  0
LINE
  5
426
330
1F
100
AcDbEntity
  8
0
  6
Continuous
 62
     7
370
    25
100
AcDbLine
 10
137.525
 20
-70.55
 30
0.0
 11
137.525
 21
-57.15
 31
0.0
  0
LINE
  5
427
330
1F
100
AcDbEntity
  8
0
  6
Continuous
 62
     7
370
    25
100
AcDbLine
 10
156.275
 20
-56.85
 30
0.0
 11
142.875
 21
-56.85
 31
0.0
  0
LINE
  5
428
330
1F
100
AcDbEntity
  8
0
  6
Continuous
 62
     7
370
    25
100
AcDbLine
 10
142.575
 20
-57.15
 30
0.0
 11
142.575
 21
-70.55
 31
0.0
  0
LINE
  5
429
330
1F
100
AcDbEntity
  8
0
  6
Continuous
 62
     7
370
    25
100
AcDbLine
 10
142.875
 20
-70.85
 30
0.0
 11
156.275
 21
-70.85
 31
0.0
  0
LINE
  5
42A
330
1F
100
AcDbEntity
  8
0
  6
Continuous
 62
     7
370
    25
100
AcDbLine
 10
156.575
 20
-70.55
 30
0.0
 11
156.575
 21
-57.15
 31
0.0
  0
LINE
  5
42B
330
1F
100
AcDbEntity
  8
0
  6
Continuous
 62
     7
370
    25
100
AcDbLine
 10
175.325
 20
-56.85
 30
0.0
 11
161.925
 21
-56.85
 31
0.0
  0
LINE
  5
42C
330
1F
100
AcDbEntity
  8
0
  6
Continuous
 62
     7
370
    25
100
AcDbLine
 10
161.625
 20
-57.15
 30
0.0
 11
161.625
 21
-70.55
 31
0.0
  0
LINE
  5
42D
330
1F
100
AcDbEntity
  8
0
  6
Continuous
 62
     7
370
    25
100
AcDbLine
 10
161.925
 20
-70.85
 30
0.0
 11
175.325
 21
-70.85
 31
0.0
  0
LINE
  5
42E
330
1F
100
AcDbEntity
  8
0
  6
Continuous
 62
     7
370
    25
100
AcDbLine
 10
175.625
 20
-70.55
 30
0.0
 11
175.625
 21
-57.15
 31
0.0
  0
LINE
  5
42F
330
1F
100
AcDbEntity
  8
0
  6
Continuous
 62
     7
370
    25
100
AcDbLine
 10
194.375
 20
-56.85
 30
0.0
 11
180.975
 21
-56.85
 31
0.0
  0
LINE
  5
430
330
1F
100
AcDbEntity
  8
0
  6
Continuous
 62
     7
370
    25
100
AcDbLine
 10
180.675
 20
-57.15
 30
0.0
 11
180.675
 21
-70.55
 31
0.0
  0
LINE
  5
431
330
1F
100
AcDbEntity
  8
0
  6
Continuous
 62
     7
370
    25
100
AcDbLine
 10
180.975
 20
-70.85
 30
0.0
 11
194.375
 21
-70.85
 31
0.0
  0
LINE
  5
432
330
1F
100
AcDbEntity
  8
0
  6
Continuous
 62
     7
370
    25
100
AcDbLine
 10
194.675
 20
-70.55
 30
0.0
 11
194.675
 21
-57.15
 31
0.0
  0
LINE
  5
433
330
1F
100
AcDbEntity
  8
0
  6
Continuous
 62
     7
370
    25
100
AcDbLine
 10
213.425
 20
-56.85
 30
0.0
 11
200.025
 21
-56.85
 31
0.0
  0
LINE
  5
434
330
1F
100
AcDbEntity
  8
0
  6
Continuous
 62
     7
370
    25
100
AcDbLine
 10
199.725
 20
-57.15
 30
0.0
 11
199.725
 21
-70.55
 31
0.0
  0
LINE
  5
435
330
1F
100
AcDbEntity
  8
0
  6
Continuous
 62
     7
370
    25
100
AcDbLine
 10
200.025
 20
-70.85
 30
0.0
 11
213.425
 21
-70.85
 31
0.0
  0
LINE
  5
436
330
1F
100
AcDbEntity
  8
0
  6
Continuous
 62
     7
370
    25
100
AcDbLine
 10
213.725
 20
-70.55
 30
0.0
 11
213.725
 21
-57.15
 31
0.0
  0
LINE
  5
437
330
1F
100
AcDbEntity
  8
0
  6
Continuous
 62
     7
370
    25
100
AcDbLine
 10
232.475
 20
-56.85
 30
0.0
 11
219.075
 21
-56.85
 31
0.0
  0
LINE
  5
438
330
1F
100
AcDbEntity
  8
0
  6
Continuous
 62
     7
370
    25
100
AcDbLine
 10
218.775
 20
-57.15
 30
0.0
 11
218.775
 21
-70.55
 31
0.0
  0
LINE
  5
439
330
1F
100
AcDbEntity
  8
0
  6
Continuous
 62
     7
370
    25
100
AcDbLine
 10
219.075
 20
-70.85
 30
0.0
 11
232.475
 21
-70.85
 31
0.0
  0
LINE
  5
43A
330
1F
100
AcDbEntity
  8
0
  6
Continuous
 62
     7
370
    25
100
AcDbLine
 10
232.775
 20
-70.55
 30
0.0
 11
232.775
 21
-57.15
 31
0.0
  0
LINE
  5
43B
330
1F
100
AcDbEntity
  8
0
  6
Continuous
 62
     7
370
    25
100
AcDbLine
 10
251.525
 20
-56.85
 30
0.0
 11
238.125
 21
-56.85
 31
0.0
  0
LINE
  5
43C
330
1F
100
AcDbEntity
  8
0
  6
Continuous
 62
     7
370
    25
100
AcDbLine
 10
237.825
 20
-57.15
 30
0.0
 11
237.825
 21
-70.55
 31
0.0
  0
LINE
  5
43D
330
1F
100
AcDbEntity
  8
0
  6
Continuous
 62
     7
370
    25
100
AcDbLine
 10
238.125
 20
-70.85
 30
0.0
 11
251.525
 21
-70.85
 31
0.0
  0
LINE
  5
43E
330
1F
100
AcDbEntity
  8
0
  6
Continuous
 62
     7
370
    25
100
AcDbLine
 10
251.825
 20
-70.55
 30
0.0
 11
251.825
 21
-57.15
 31
0.0
  0
LINE
  5
43F
330
1F
100
AcDbEntity
  8
0
  6
Continuous
 62
     7
370
    25
100
AcDbLine
 10
270.575
 20
-56.85
 30
0.0
 11
257.175
 21
-56.85
 31
0.0
  0
LINE
  5
440
330
1F
100
AcDbEntity
  8
0
  6
Continuous
 62
     7
370
    25
100
AcDbLine
 10
256.875
 20
-57.15
 30
0.0
 11
256.875
 21
-70.55
 31
0.0
  0
LINE
  5
441
330
1F
100
AcDbEntity
  8
0
  6
Continuous
 62
     7
370
    25
100
AcDbLine
 10
257.175
 20
-70.85
 30
0.0
 11
270.575
 21
-70.85
 31
0.0
  0
LINE
  5
442
330
1F
100
AcDbEntity
  8
0
  6
Continuous
 62
     7
370
    25
100
AcDbLine
 10
270.875
 20
-70.55
 30
0.0
 11
270.875
 21
-57.15
 31
0.0
  0
LINE
  5
443
330
1F
100
AcDbEntity
  8
0
  6
Continuous
 62
     7
370
    25
100
AcDbLine
 10
296.76875
 20
-56.85
 30
0.0
 11
283.36875
 21
-56.85
 31
0.0
  0
LINE
  5
444
330
1F
100
AcDbEntity
  8
0
  6
Continuous
 62
     7
370
    25
100
AcDbLine
 10
283.06875
 20
-57.15
 30
0.0
 11
283.06875
 21
-70.55
 31
0.0
  0
LINE
  5
445
330
1F
100
AcDbEntity
  8
0
  6
Continuous
 62
     7
370
    25
100
AcDbLine
 10
283.36875
 20
-70.85
 30
0.0
 11
296.76875
 21
-70.85
 31
0.0
  0
LINE
  5
446
330
1F
100
AcDbEntity
  8
0
  6
Continuous
 62
     7
370
    25
100
AcDbLine
 10
297.06875
 20
-70.55
 30
0.0
 11
297.06875
 21
-57.15
 31
0.0
  0
LINE
  5
447
330
1F
100
AcDbEntity
  8
0
  6
Continuous
 62
     7
370
    25
100
AcDbLine
 10
344.8375
 20
-90.425
 30
0.0
 11
344.8375
 21
0.825
 31
0.0
  0
LINE
  5
448
330
1F
100
AcDbEntity
  8
0
  6
Continuous
 62
     7
370
    25
100
AcDbLine
 10
-0.825
 20
-92.425
 30
0.0
 11
342.8375
 21
-92.425
 31
0.0
  0
LINE
  5
449
330
1F
100
AcDbEntity
  8
0
  6
Continuous
 62
     7
370
    25
100
AcDbLine
 10
-2.825
 20
0.825
 30
0.0
 11
-2.825
 21
-90.425
 31
0.0
  0
LINE
  5
44A
330
1F
100
AcDbEntity
  8
0
  6
Continuous
 62
     7
370
    25
100
AcDbLine
 10
342.8375
 20
2.825
 30
0.0
 11
-0.825
 21
2.825
 31
0.0
  0
LINE
  5
44B
330
1F
100
AcDbEntity
  8
0
  6
Continuous
 62
     7
370
    25
100
AcDbLine
 10
129.2625
 20
-91.7213
 30
0.0
 11
117.50625
 21
-91.7213
 31
0.0
  0
LINE
  5
44C
330
1F
100
AcDbEntity
  8
0
  6
Continuous
 62
     7
370
    25
100
AcDbLine
 10
129.2625
 20
-91.7213
 30
0.0
 11
129.2625
 21
-75.9
 31
0.0
  0
LINE
  5
44D
330
1F
100
AcDbEntity
  8
0
  6
Continuous
 62
     7
370
    25
100
AcDbLine
 10
164.30625
 20
-75.9
 30
0.0
 11
129.2625
 21
-75.9
 31
0.0
  0
LINE
  5
44E
330
1F
100
AcDbEntity
  8
0
  6
Continuous
 62
     7
370
    25
100
AcDbLine
 10
164.00625
 20
-76.2
 30
0.0
 11
164.00625
 21
-89.6
 31
0.0
  0
LINE
  5
44F
330
1F
100
AcDbEntity
  8
0
  6
Continuous
 62
     7
370
    25
100
AcDbLine
 10
164.30625
 20
-89.9
 30
0.0
 11
189.6125
 21
-89.9
 31
0.0
  0
LINE
  5
450
330
1F
100
AcDbEntity
  8
0
  6
Continuous
 62
     7
370
    25
100
AcDbLine
 10
189.9125
 20
-89.6
 30
0.0
 11
189.9125
 21
-76.2
 31
0.0
  0
LINE
  5
451
330
1F
100
AcDbEntity
  8
0
  6
Continuous
 62
     7
370
    25
100
AcDbLine
 10
217.50625
 20
-75.9
 30
0.0
 11
189.6125
 21
-75.9
 31
0.0
  0
LINE
  5
452
330
1F
100
AcDbEntity
  8
0
  6
Continuous
 62
     7
370
    25
100
AcDbLine
 10
217.50625
 20
-75.9
 30
0.0
 11
217.50625
 21
-88.8
 31
0.0
  0
LINE
  5
453
330
1F
100
AcDbEntity
  8
0
  6
Continuous
 62
     7
370
    25
100
AcDbLine
 10
217.51875
 20
-88.8856956825
 30
0.0
 11
217.51875
 21
-91.7213
 31
0.0
  0
LINE
  5
454
330
1F
100
AcDbEntity
  8
0
  6
Continuous
 62
     7
370
    25
100
AcDbLine
 10
224.51875
 20
-91.7213
 30
0.0
 11
217.51875
 21
-91.7213
 31
0.0
  0
LINE
  5
455
330
1F
100
AcDbEntity
  8
0
  6
Continuous
 62
     7
370
    25
100
AcDbLine
 10
224.51875
 20
-75.9
 30
0.0
 11
224.51875
 21
-91.7213
 31
0.0
  0
LINE
  5
456
330
1F
100
AcDbEntity
  8
0
  6
Continuous
 62
     7
370
    25
100
AcDbLine
 10
235.74375
 20
-75.9
 30
0.0
 11
224.51875
 21
-75.9
 31
0.0
  0
LINE
  5
457
330
1F
100
AcDbEntity
  8
0
  6
Continuous
 62
     7
370
    25
100
AcDbLine
 10
235.44375
 20
-76.2
 30
0.0
 11
235.44375
 21
-89.6
 31
0.0
  0
LINE
  5
458
330
1F
100
AcDbEntity
  8
0
  6
Continuous
 62
     7
370
    25
100
AcDbLine
 10
235.74375
 20
-89.9
 30
0.0
 11
236.5625
 21
-89.9
 31
0.0
  0
LINE
  5
459
330
1F
100
AcDbEntity
  8
0
  6
Continuous
 62
     7
370
    25
100
AcDbLine
 10
236.5625
 20
-89.9
 30
0.0
 11
236.5625
 21
-91.7213
 31
0.0
  0
LINE
  5
45A
330
1F
100
AcDbEntity
  8
0
  6
Continuous
 62
     7
370
    25
100
AcDbLine
 10
243.5625
 20
-91.7213
 30
0.0
 11
236.5625
 21
-91.7213
 31
0.0
  0
LINE
  5
45B
330
1F
100
AcDbEntity
  8
0
  6
Continuous
 62
     7
370
    25
100
AcDbLine
 10
243.5625
 20
-89.9
 30
0.0
 11
243.5625
 21
-91.7213
 31
0.0
  0
LINE
  5
45C
330
1F
100
AcDbEntity
  8
0
  6
Continuous
 62
     7
370
    25
100
AcDbLine
 10
243.5625
 20
-89.9
 30
0.0
 11
249.14375
 21
-89.9
 31
0.0
  0
LINE
  5
45D
330
1F
100
AcDbEntity
  8
0
  6
Continuous
 62
     7
370
    25
100
AcDbLine
 10
249.44375
 20
-89.6
 30
0.0
 11
249.44375
 21
-76.2
 31
0.0
  0
LINE
  5
45E
330
1F
100
AcDbEntity
  8
0
  6
Continuous
 62
     7
370
    25
100
AcDbLine
 10
249.14375
 20
-75.9
 30
0.0
 11
243.5625
 21
-75.9
 31
0.0
  0
LINE
  5
45F
330
1F
100
AcDbEntity
  8
0
  6
Continuous
 62
     7
370
    25
100
AcDbLine
 10
243.5625
 20
-72.4213
 30
0.0
 11
243.5625
 21
-75.9
 31
0.0
  0
LINE
  5
460
330
1F
100
AcDbEntity
  8
0
  6
Continuous
 62
     7
370
    25
100
AcDbLine
 10
243.5625
 20
-72.4213
 30
0.0
 11
236.5625
 21
-72.4213
 31
0.0
  0
LINE
  5
461
330
1F
100
AcDbEntity
  8
0
  6
Continuous
 62
     7
370
    25
100
AcDbLine
 10
236.5625
 20
-72.4213
 30
0.0
 11
236.5625
 21
-73.65
 31
0.0
  0
LINE
  5
462
330
1F
100
AcDbEntity
  8
0
  6
Continuous
 62
     7
370
    25
100
AcDbLine
 10
236.5625
 20
-73.65
 30
0.0
 11
224.51875
 21
-73.65
 31
0.0
  0
LINE
  5
463
330
1F
100
AcDbEntity
  8
0
  6
Continuous
 62
     7
370
    25
100
AcDbLine
 10
224.51875
 20
-72.4213
 30
0.0
 11
224.51875
 21
-73.65
 31
0.0
  0
LINE
  5
464
330
1F
100
AcDbEntity
  8
0
  6
Continuous
 62
     7
370
    25
100
AcDbLine
 10
224.51875
 20
-72.4213
 30
0.0
 11
217.51875
 21
-72.4213
 31
0.0
  0
LINE
  5
465
330
1F
100
AcDbEntity
  8
0
  6
Continuous
 62
     7
370
    25
100
AcDbLine
 10
217.51875
 20
-72.4213
 30
0.0
 11
217.51875
 21
-73.65
 31
0.0
  0
LINE
  5
466
330
1F
100
AcDbEntity
  8
0
  6
Continuous
 62
     7
370
    25
100
AcDbLine
 10
217.51875
 20
-73.65
 30
0.0
 11
129.2625
 21
-73.65
 31
0.0
  0
LINE
  5
467
330
1F
100
AcDbEntity
  8
0
  6
Continuous
 62
     7
370
    25
100
AcDbLine
 10
129.2625
 20
-72.4213
 30
0.0
 11
129.2625
 21
-73.65
 31
0.0
  0
LINE
  5
468
330
1F
100
AcDbEntity
  8
0
  6
Continuous
 62
     7
370
    25
100
AcDbLine
 10
129.2625
 20
-72.4213
 30
0.0
 11
117.50625
 21
-72.4213
 31
0.0
  0
LINE
  5
469
330
1F
100
AcDbEntity
  8
0
  6
Continuous
 62
     7
370
    25
100
AcDbLine
 10
117.50625
 20
-72.4213
 30
0.0
 11
117.50625
 21
-91.7213
 31
0.0
  0
LINE
  5
46A
330
1F
100
AcDbEntity
  8
0
  6
Continuous
 62
     7
370
    25
100
AcDbLine
 10
295.91825
 20
-37.8
 30
0.0
 11
295.91825
 21
-35.9787
 31
0.0
  0
LINE
  5
46B
330
1F
100
AcDbEntity
  8
0
  6
Continuous
 62
     7
370
    25
100
AcDbLine
 10
288.91825
 20
-35.9787
 30
0.0
 11
295.91825
 21
-35.9787
 31
0.0
  0
LINE
  5
46C
330
1F
100
AcDbEntity
  8
0
  6
Continuous
 62
     7
370
    25
100
AcDbLine
 10
288.91825
 20
-35.9787
 30
0.0
 11
288.91825
 21
-55.2787
 31
0.0
  0
LINE
  5
46D
330
1F
100
AcDbEntity
  8
0
  6
Continuous
 62
     7
370
    25
100
AcDbLine
 10
288.91825
 20
-55.2787
 30
0.0
 11
295.91825
 21
-55.2787
 31
0.0
  0
LINE
  5
46E
330
1F
100
AcDbEntity
  8
0
  6
Continuous
 62
     7
370
    25
100
AcDbLine
 10
295.91825
 20
-55.2787
 30
0.0
 11
295.91825
 21
-54.05
 31
0.0
  0
LINE
  5
46F
330
1F
100
AcDbEntity
  8
0
  6
Continuous
 62
     7
370
    25
100
AcDbLine
 10
295.91825
 20
-54.05
 30
0.0
 11
312.79425
 21
-54.05
 31
0.0
  0
LINE
  5
470
330
1F
100
AcDbEntity
  8
0
  6
Continuous
 62
     7
370
    25
100
AcDbLine
 10
312.79425
 20
-55.2787
 30
0.0
 11
312.79425
 21
-54.05
 31
0.0
  0
LINE
  5
471
330
1F
100
AcDbEntity
  8
0
  6
Continuous
 62
     7
370
    25
100
AcDbLine
 10
312.79425
 20
-55.2787
 30
0.0
 11
319.79425
 21
-55.2787
 31
0.0
  0
LINE
  5
472
330
1F
100
AcDbEntity
  8
0
  6
Continuous
 62
     7
370
    25
100
AcDbLine
 10
319.79425
 20
-55.2787
 30
0.0
 11
319.79425
 21
-35.9787
 31
0.0
  0
LINE
  5
473
330
1F
100
AcDbEntity
  8
0
  6
Continuous
 62
     7
370
    25
100
AcDbLine
 10
312.79425
 20
-35.9787
 30
0.0
 11
319.79425
 21
-35.9787
 31
0.0
  0
LINE
  5
474
330
1F
100
AcDbEntity
  8
0
  6
Continuous
 62
     7
370
    25
100
AcDbLine
 10
312.79425
 20
-35.9787
 30
0.0
 11
312.79425
 21
-37.8
 31
0.0
  0
LINE
  5
475
330
1F
100
AcDbEntity
  8
0
  6
Continuous
 62
     7
370
    25
100
AcDbLine
 10
312.79425
 20
-37.8
 30
0.0
 11
295.91825
 21
-37.8
 31
0.0
  0
LINE
  5
476
330
1F
100
AcDbEntity
  8
0
  6
Continuous
 62
     7
370
    25
100
AcDbLine
 10
53.03075
 20
-56.85
 30
0.0
 11
53.03075
 21
-55.0287
 31
0.0
  0
LINE
  5
477
330
1F
100
AcDbEntity
  8
0
  6
Continuous
 62
     7
370
    25
100
AcDbLine
 10
46.03075
 20
-55.0287
 30
0.0
 11
53.03075
 21
-55.0287
 31
0.0
  0
LINE
  5
478
330
1F
100
AcDbEntity
  8
0
  6
Continuous
 62
     7
370
    25
100
AcDbLine
 10
46.03075
 20
-55.0287
 30
0.0
 11
46.03075
 21
-74.3287
 31
0.0
  0
LINE
  5
479
330
1F
100
AcDbEntity
  8
0
  6
Continuous
 62
     7
370
    25
100
AcDbLine
 10
46.03075
 20
-74.3287
 30
0.0
 11
53.03075
 21
-74.3287
 31
0.0
  0
LINE
  5
47A
330
1F
100
AcDbEntity
  8
0
  6
Continuous
 62
     7
370
    25
100
AcDbLine
 10
53.03075
 20
-74.3287
 30
0.0
 11
53.03075
 21
-73.1
 31
0.0
  0
LINE
  5
47B
330
1F
100
AcDbEntity
  8
0
  6
Continuous
 62
     7
370
    25
100
AcDbLine
 10
53.03075
 20
-73.1
 30
0.0
 11
69.90675
 21
-73.1
 31
0.0
  0
LINE
  5
47C
330
1F
100
AcDbEntity
  8
0
  6
Continuous
 62
     7
370
    25
100
AcDbLine
 10
69.90675
 20
-74.3287
 30
0.0
 11
69.90675
 21
-73.1
 31
0.0
  0
LINE
  5
47D
330
1F
100
AcDbEntity
  8
0
  6
Continuous
 62
     7
370
    25
100
AcDbLine
 10
69.90675
 20
-74.3287
 30
0.0
 11
76.90675
 21
-74.3287
 31
0.0
  0
LINE
  5
47E
330
1F
100
AcDbEntity
  8
0
  6
Continuous
 62
     7
370
    25
100
AcDbLine
 10
76.90675
 20
-74.3287
 30
0.0
 11
76.90675
 21
-55.0287
 31
0.0
  0
LINE
  5
47F
330
1F
100
AcDbEntity
  8
0
  6
Continuous
 62
     7
370
    25
100
AcDbLine
 10
69.90675
 20
-55.0287
 30
0.0
 11
76.90675
 21
-55.0287
 31
0.0
  0
LINE
  5
480
330
1F
100
AcDbEntity
  8
0
  6
Continuous
 62
     7
370
    25
100
AcDbLine
 10
69.90675
 20
-55.0287
 30
0.0
 11
69.90675
 21
-56.85
 31
0.0
  0
LINE
  5
481
330
1F
100
AcDbEntity
  8
0
  6
Continuous
 62
     7
370
    25
100
AcDbLine
 10
69.90675
 20
-56.85
 30
0.0
 11
53.03075
 21
-56.85
 31
0.0
  0
ARC
  5
482
330
1F
100
AcDbEntity
  8
0
  6
Continuous
 62
     7
370
    25
100
AcDbCircle
 10
290.5125
 20
0.0
 30
0.0
 40
0.3000000000000114
100
AcDbArc
 50
90.0
 51
180.0
  0
ARC
  5
483
330
1F
100
AcDbEntity
  8
0
  6
Continuous
 62
     7
370
    25
100
AcDbCircle
 10
290.5125
 20
-13.4
 30
0.0
 40
0.3000000000000682
100
AcDbArc
 50
180.0
 51
270.0
  0
ARC
  5
484
330
1F
100
AcDbEntity
  8
0
  6
Continuous
 62
     7
370
    25
100
AcDbCircle
 10
322.9625
 20
-13.4
 30
0.0
 40
0.3000000000001251
100
AcDbArc
 50
270.0
 51
360.0
  0
ARC
  5
485
330
1F
100
AcDbEntity
  8
0
  6
Continuous
 62
     7
370
    25
100
AcDbCircle
 10
322.9625
 20
0.0
 30
0.0
 40
0.3000000000000114
100
AcDbArc
 50
360.0
 51
90.0
  0
ARC
  5
486
330
1F
100
AcDbEntity
  8
0
  6
Continuous
 62
     7
370
    25
100
AcDbCircle
 10
92.86875
 20
-89.6
 30
0.0
 40
0.3000000000000114
100
AcDbArc
 50
180.0
 51
270.0
  0
ARC
  5
487
330
1F
100
AcDbEntity
  8
0
  6
Continuous
 62
     7
370
    25
100
AcDbCircle
 10
108.65
 20
-89.6
 30
0.0
 40
0.2999999999999687
100
AcDbArc
 50
270.0
 51
0.0
  0
ARC
  5
488
330
1F
100
AcDbEntity
  8
0
  6
Continuous
 62
     7
370
    25
100
AcDbCircle
 10
108.65
 20
-76.2
 30
0.0
 40
0.2999999999999829
100
AcDbArc
 50
360.0
 51
90.0
  0
ARC
  5
489
330
1F
100
AcDbEntity
  8
0
  6
Continuous
 62
     7
370
    25
100
AcDbCircle
 10
92.86875
 20
-76.2
 30
0.0
 40
0.3000000000000256
100
AcDbArc
 50
90.0
 51
180.0
  0
ARC
  5
48A
330
1F
100
AcDbEntity
  8
0
  6
Continuous
 62
     7
370
    25
100
AcDbCircle
 10
69.05625
 20
-89.6
 30
0.0
 40
0.2999999999999687
100
AcDbArc
 50
180.0
 51
270.0
  0
ARC
  5
48B
330
1F
100
AcDbEntity
  8
0
  6
Continuous
 62
     7
370
    25
100
AcDbCircle
 10
84.8375
 20
-89.6
 30
0.0
 40
0.2999999999999829
100
AcDbArc
 50
270.0
 51
0.0
  0
ARC
  5
48C
330
1F
100
AcDbEntity
  8
0
  6
Continuous
 62
     7
370
    25
100
AcDbCircle
 10
84.8375
 20
-76.2
 30
0.0
 40
0.2999999999999829
100
AcDbArc
 50
360.0
 51
90.0
  0
ARC
  5
48D
330
1F
100
AcDbEntity
  8
0
  6
Continuous
 62
     7
370
    25
100
AcDbCircle
 10
69.05625
 20
-76.2
 30
0.0
 40
0.3000000000000256
100
AcDbArc
 50
90.0
 51
180.0
  0
ARC
  5
48E
330
1F
100
AcDbEntity
  8
0
  6
Continuous
 62
     7
370
    25
100
AcDbCircle
 10
45.24375
 20
-89.6
 30
0.0
 40
0.3000000000000256
100
AcDbArc
 50
180.0
 51
270.0
  0
ARC
  5
48F
330
1F
100
AcDbEntity
  8
0
  6
Continuous
 62
     7
370
    25
100
AcDbCircle
 10
61.025
 20
-89.6
 30
0.0
 40
0.2999999999999829
100
AcDbArc
 50
270.0
 51
0.0
  0
ARC
  5
490
330
1F
100
AcDbEntity
  8
0
  6
Continuous
 62
     7
370
    25
100
AcDbCircle
 10
61.025
 20
-76.2
 30
0.0
 40
0.2999999999999972
100
AcDbArc
 50
0.0
 51
90.0
  0
ARC
  5
491
330
1F
100
AcDbEntity
  8
0
  6
Continuous
 62
     7
370
    25
100
AcDbCircle
 10
45.24375
 20
-76.2
 30
0.0
 40
0.3000000000000398
100
AcDbArc
 50
90.0
 51
180.0
  0
ARC
  5
492
330
1F
100
AcDbEntity
  8
0
  6
Continuous
 62
     7
370
    25
100
AcDbCircle
 10
45.24375
 20
-51.5
 30
0.0
 40
0.2999999999999901
100
AcDbArc
 50
180.0
 51
270.0
  0
ARC
  5
493
330
1F
100
AcDbEntity
  8
0
  6
Continuous
 62
     7
370
    25
100
AcDbCircle
 10
63.40625
 20
-51.5
 30
0.0
 40
0.2999999999999972
100
AcDbArc
 50
270.0
 51
0.0
  0
ARC
  5
494
330
1F
100
AcDbEntity
  8
0
  6
Continuous
 62
     7
370
    25
100
AcDbCircle
 10
63.40625
 20
-38.1
 30
0.0
 40
0.3000000000000256
100
AcDbArc
 50
0.0
 51
90.0
  0
ARC
  5
495
330
1F
100
AcDbEntity
  8
0
  6
Continuous
 62
     7
370
    25
100
AcDbCircle
 10
45.24375
 20
-38.1
 30
0.0
 40
0.3000000000000114
100
AcDbArc
 50
90.0
 51
180.0
  0
ARC
  5
496
330
1F
100
AcDbEntity
  8
0
  6
Continuous
 62
     7
370
    25
100
AcDbCircle
 10
257.175
 20
-89.6
 30
0.0
 40
0.3000000000000682
100
AcDbArc
 50
180.0
 51
270.0
  0
ARC
  5
497
330
1F
100
AcDbEntity
  8
0
  6
Continuous
 62
     7
370
    25
100
AcDbCircle
 10
272.95625
 20
-89.6
 30
0.0
 40
0.3000000000001819
100
AcDbArc
 50
270.0
 51
360.0
  0
ARC
  5
498
330
1F
100
AcDbEntity
  8
0
  6
Continuous
 62
     7
370
    25
100
AcDbCircle
 10
272.95625
 20
-76.2
 30
0.0
 40
0.3000000000000114
100
AcDbArc
 50
360.0
 51
90.0
  0
ARC
  5
499
330
1F
100
AcDbEntity
  8
0
  6
Continuous
 62
     7
370
    25
100
AcDbCircle
 10
257.175
 20
-76.2
 30
0.0
 40
0.2999999999999545
100
AcDbArc
 50
90.0
 51
180.0
  0
ARC
  5
49A
330
1F
100
AcDbEntity
  8
0
  6
Continuous
 62
     7
370
    25
100
AcDbCircle
 10
13.4
 20
0.0
 30
0.0
 40
0.2999999999999972
100
AcDbArc
 50
0.0
 51
90.0
  0
ARC
  5
49B
330
1F
100
AcDbEntity
  8
0
  6
Continuous
 62
     7
370
    25
100
AcDbCircle
 10
0.0
 20
0.0
 30
0.0
 40
0.2999999999999979
100
AcDbArc
 50
90.0
 51
180.0
  0
ARC
  5
49C
330
1F
100
AcDbEntity
  8
0
  6
Continuous
 62
     7
370
    25
100
AcDbCircle
 10
0.0
 20
-13.4
 30
0.0
 40
0.2999999999999994
100
AcDbArc
 50
180.0
 51
270.0
  0
ARC
  5
49D
330
1F
100
AcDbEntity
  8
0
  6
Continuous
 62
     7
370
    25
100
AcDbCircle
 10
13.4
 20
-13.4
 30
0.0
 40
0.2999999999999901
100
AcDbArc
 50
270.0
 51
0.0
  0
ARC
  5
49E
330
1F
100
AcDbEntity
  8
0
  6
Continuous
 62
     7
370
    25
100
AcDbCircle
 10
32.45
 20
0.0
 30
0.0
 40
0.3000000000000052
100
AcDbArc
 50
0.0
 51
90.0
  0
ARC
  5
49F
330
1F
100
AcDbEntity
  8
0
  6
Continuous
 62
     7
370
    25
100
AcDbCircle
 10
19.05
 20
0.0
 30
0.0
 40
0.2999999999999829
100
AcDbArc
 50
90.0
 51
180.0
  0
ARC
  5
4A0
330
1F
100
AcDbEntity
  8
0
  6
Continuous
 62
     7
370
    25
100
AcDbCircle
 10
19.05
 20
-13.4
 30
0.0
 40
0.2999999999999865
100
AcDbArc
 50
180.0
 51
270.0
  0
ARC
  5
4A1
330
1F
100
AcDbEntity
  8
0
  6
Continuous
 62
     7
370
    25
100
AcDbCircle
 10
32.45
 20
-13.4
 30
0.0
 40
0.2999999999999936
100
AcDbArc
 50
270.0
 51
0.0
  0
ARC
  5
4A2
330
1F
100
AcDbEntity
  8
0
  6
Continuous
 62
     7
370
    25
100
AcDbCircle
 10
32.45
 20
-19.05
 30
0.0
 40
0.3000000000000043
100
AcDbArc
 50
0.0
 51
90.0
  0
ARC
  5
4A3
330
1F
100
AcDbEntity
  8
0
  6
Continuous
 62
     7
370
    25
100
AcDbCircle
 10
19.05
 20
-19.05
 30
0.0
 40
0.2999999999999901
100
AcDbArc
 50
90.0
 51
180.0
  0
ARC
  5
4A4
330
1F
100
AcDbEntity
  8
0
  6
Continuous
 62
     7
370
    25
100
AcDbCircle
 10
19.05
 20
-32.45
 30
0.0
 40
0.2999999999999687
100
AcDbArc
 50
180.0
 51
270.0
  0
ARC
  5
4A5
330
1F
100
AcDbEntity
  8
0
  6
Continuous
 62
     7
370
    25
100
AcDbCircle
 10
32.45
 20
-32.45
 30
0.0
 40
0.2999999999999829
100
AcDbArc
 50
270.0
 51
0.0
  0
ARC
  5
4A6
330
1F
100
AcDbEntity
  8
0
  6
Continuous
 62
     7
370
    25
100
AcDbCircle
 10
32.45
 20
-38.1
 30
0.0
 40
0.3000000000000114
100
AcDbArc
 50
0.0
 51
90.0
  0
ARC
  5
4A7
330
1F
100
AcDbEntity
  8
0
  6
Continuous
 62
     7
370
    25
100
AcDbCircle
 10
19.05
 20
-38.1
 30
0.0
 40
0.2999999999999972
100
AcDbArc
 50
90.0
 51
180.0
  0
ARC
  5
4A8
330
1F
100
AcDbEntity
  8
0
  6
Continuous
 62
     7
370
    25
100
AcDbCircle
 10
19.05
 20
-51.5
 30
0.0
 40
0.2999999999999758
100
AcDbArc
 50
180.0
 51
270.0
  0
ARC
  5
4A9
330
1F
100
AcDbEntity
  8
0
  6
Continuous
 62
     7
370
    25
100
AcDbCircle
 10
32.45
 20
-51.5
 30
0.0
 40
0.2999999999999829
100
AcDbArc
 50
270.0
 51
0.0
  0
ARC
  5
4AA
330
1F
100
AcDbEntity
  8
0
  6
Continuous
 62
     7
370
    25
100
AcDbCircle
 10
32.45
 20
-57.15
 30
0.0
 40
0.3000000000000043
100
AcDbArc
 50
0.0
 51
90.0
  0
ARC
  5
4AB
330
1F
100
AcDbEntity
  8
0
  6
Continuous
 62
     7
370
    25
100
AcDbCircle
 10
19.05
 20
-57.15
 30
0.0
 40
0.2999999999999972
100
AcDbArc
 50
90.0
 51
180.0
  0
ARC
  5
4AC
330
1F
100
AcDbEntity
  8
0
  6
Continuous
 62
     7
370
    25
100
AcDbCircle
 10
19.05
 20
-70.55
 30
0.0
 40
0.2999999999999901
100
AcDbArc
 50
180.0
 51
270.0
  0
ARC
  5
4AD
330
1F
100
AcDbEntity
  8
0
  6
Continuous
 62
     7
370
    25
100
AcDbCircle
 10
32.45
 20
-70.55
 30
0.0
 40
0.2999999999999972
100
AcDbArc
 50
270.0
 51
0.0
  0
ARC
  5
4AE
330
1F
100
AcDbEntity
  8
0
  6
Continuous
 62
     7
370
    25
100
AcDbCircle
 10
32.45
 20
-76.2
 30
0.0
 40
0.3000000000000114
100
AcDbArc
 50
0.0
 51
90.0
  0
ARC
  5
4AF
330
1F
100
AcDbEntity
  8
0
  6
Continuous
 62
     7
370
    25
100
AcDbCircle
 10
19.05
 20
-76.2
 30
0.0
 40
0.3000000000000114
100
AcDbArc
 50
90.0
 51
180.0
  0
ARC
  5
4B0
330
1F
100
AcDbEntity
  8
0
  6
Continuous
 62
     7
370
    25
100
AcDbCircle
 10
19.05
 20
-89.6
 30
0.0
 40
0.3000000000000433
100
AcDbArc
 50
180.0
 51
270.0
  0
ARC
  5
4B1
330
1F
100
AcDbEntity
  8
0
  6
Continuous
 62
     7
370
    25
100
AcDbCircle
 10
32.45
 20
-89.6
 30
0.0
 40
0.2999999999999687
100
AcDbArc
 50
270.0
 51
0.0
  0
ARC
  5
4B2
330
1F
100
AcDbEntity
  8
0
  6
Continuous
 62
     7
370
    25
100
AcDbCircle
 10
13.4
 20
-19.05
 30
0.0
 40
0.2999999999999936
100
AcDbArc
 50
0.0
 51
90.0
  0
ARC
  5
4B3
330
1F
100
AcDbEntity
  8
0
  6
Continuous
 62
     7
370
    25
100
AcDbCircle
 10
0.0
 20
-19.05
 30
0.0
 40
0.2999999999999904
100
AcDbArc
 50
90.0
 51
180.0
  0
ARC
  5
4B4
330
1F
100
AcDbEntity
  8
0
  6
Continuous
 62
     7
370
    25
100
AcDbCircle
 10
0.0
 20
-32.45
 30
0.0
 40
0.2999999999999972
100
AcDbArc
 50
180.0
 51
270.0
  0
ARC
  5
4B5
330
1F
100
AcDbEntity
  8
0
  6
Continuous
 62
     7
370
    25
100
AcDbCircle
 10
13.4
 20
-32.45
 30
0.0
 40
0.2999999999999901
100
AcDbArc
 50
270.0
 51
0.0
  0
ARC
  5
4B6
330
1F
100
AcDbEntity
  8
0
  6
Continuous
 62
     7
370
    25
100
AcDbCircle
 10
13.4
 20
-38.1
 30
0.0
 40
0.300000000000006
100
AcDbArc
 50
0.0
 51
90.0
  0
ARC
  5
4B7
330
1F
100
AcDbEntity
  8
0
  6
Continuous
 62
     7
370
    25
100
AcDbCircle
 10
0.0
 20
-38.1
 30
0.0
 40
0.2999999999999993
100
AcDbArc
 50
90.0
 51
180.0
  0
ARC
  5
4B8
330
1F
100
AcDbEntity
  8
0
  6
Continuous
 62
     7
370
    25
100
AcDbCircle
 10
0.0
 20
-51.5
 30
0.0
 40
0.2999999999999957
100
AcDbArc
 50
180.0
 51
270.0
  0
ARC
  5
4B9
330
1F
100
AcDbEntity
  8
0
  6
Continuous
 62
     7
370
    25
100
AcDbCircle
 10
13.4
 20
-51.5
 30
0.0
 40
0.2999999999999901
100
AcDbArc
 50
270.0
 51
0.0
  0
ARC
  5
4BA
330
1F
100
AcDbEntity
  8
0
  6
Continuous
 62
     7
370
    25
100
AcDbCircle
 10
13.4
 20
-57.15
 30
0.0
 40
0.2999999999999918
100
AcDbArc
 50
0.0
 51
90.0
  0
ARC
  5
4BB
330
1F
100
AcDbEntity
  8
0
  6
Continuous
 62
     7
370
    25
100
AcDbCircle
 10
0.0
 20
-57.15
 30
0.0
 40
0.3000000000000043
100
AcDbArc
 50
90.0
 51
180.0
  0
ARC
  5
4BC
330
1F
100
AcDbEntity
  8
0
  6
Continuous
 62
     7
370
    25
100
AcDbCircle
 10
0.0
 20
-70.55
 30
0.0
 40
0.2999999999999834
100
AcDbArc
 50
180.0
 51
270.0
  0
ARC
  5
4BD
330
1F
100
AcDbEntity
  8
0
  6
Continuous
 62
     7
370
    25
100
AcDbCircle
 10
13.4
 20
-70.55
 30
0.0
 40
0.2999999999999829
100
AcDbArc
 50
270.0
 51
0.0
  0
ARC
  5
4BE
330
1F
100
AcDbEntity
  8
0
  6
Continuous
 62
     7
370
    25
100
AcDbCircle
 10
13.4
 20
-76.2
 30
0.0
 40
0.2999999999999687
100
AcDbArc
 50
360.0
 51
90.0
  0
ARC
  5
4BF
330
1F
100
AcDbEntity
  8
0
  6
Continuous
 62
     7
370
    25
100
AcDbCircle
 10
0.0
 20
-76.2
 30
0.0
 40
0.3000000000000114
100
AcDbArc
 50
90.0
 51
180.0
  0
ARC
  5
4C0
330
1F
100
AcDbEntity
  8
0
  6
Continuous
 62
     7
370
    25
100
AcDbCircle
 10
0.0
 20
-89.6
 30
0.0
 40
0.300000000000054
100
AcDbArc
 50
180.0
 51
270.0
  0
ARC
  5
4C1
330
1F
100
AcDbEntity
  8
0
  6
Continuous
 62
     7
370
    25
100
AcDbCircle
 10
13.4
 20
-89.6
 30
0.0
 40
0.3000000000000256
100
AcDbArc
 50
270.0
 51
0.0
  0
ARC
  5
4C2
330
1F
100
AcDbEntity
  8
0
  6
Continuous
 62
     7
370
    25
100
AcDbCircle
 10
56.2625
 20
0.0
 30
0.0
 40
0.2999999999999854
100
AcDbArc
 50
360.0
 51
90.0
  0
ARC
  5
4C3
330
1F
100
AcDbEntity
  8
0
  6
Continuous
 62
     7
370
    25
100
AcDbCircle
 10
42.8625
 20
0.0
 30
0.0
 40
0.2999999999999917
100
AcDbArc
 50
90.0
 51
180.0
  0
ARC
  5
4C4
330
1F
100
AcDbEntity
  8
0
  6
Continuous
 62
     7
370
    25
100
AcDbCircle
 10
42.8625
 20
-13.4
 30
0.0
 40
0.3000000000000416
100
AcDbArc
 50
180.0
 51
270.0
  0
ARC
  5
4C5
330
1F
100
AcDbEntity
  8
0
  6
Continuous
 62
     7
370
    25
100
AcDbCircle
 10
56.2625
 20
-13.4
 30
0.0
 40
0.3000000000000114
100
AcDbArc
 50
270.0
 51
0.0
  0
ARC
  5
4C6
330
1F
100
AcDbEntity
  8
0
  6
Continuous
 62
     7
370
    25
100
AcDbCircle
 10
75.3125
 20
0.0
 30
0.0
 40
0.2999999999999972
100
AcDbArc
 50
0.0
 51
90.0
  0
ARC
  5
4C7
330
1F
100
AcDbEntity
  8
0
  6
Continuous
 62
     7
370
    25
100
AcDbCircle
 10
61.9125
 20
0.0
 30
0.0
 40
0.2999999999999917
100
AcDbArc
 50
90.0
 51
180.0
  0
ARC
  5
4C8
330
1F
100
AcDbEntity
  8
0
  6
Continuous
 62
     7
370
    25
100
AcDbCircle
 10
61.9125
 20
-13.4
 30
0.0
 40
0.3000000000000416
100
AcDbArc
 50
180.0
 51
270.0
  0
ARC
  5
4C9
330
1F
100
AcDbEntity
  8
0
  6
Continuous
 62
     7
370
    25
100
AcDbCircle
 10
75.3125
 20
-13.4
 30
0.0
 40
0.2999999999999705
100
AcDbArc
 50
270.0
 51
0.0
  0
ARC
  5
4CA
330
1F
100
AcDbEntity
  8
0
  6
Continuous
 62
     7
370
    25
100
AcDbCircle
 10
94.3625
 20
0.0
 30
0.0
 40
0.3000000000000017
100
AcDbArc
 50
0.0
 51
90.0
  0
ARC
  5
4CB
330
1F
100
AcDbEntity
  8
0
  6
Continuous
 62
     7
370
    25
100
AcDbCircle
 10
80.9625
 20
0.0
 30
0.0
 40
0.3000000000000398
100
AcDbArc
 50
90.0
 51
180.0
  0
ARC
  5
4CC
330
1F
100
AcDbEntity
  8
0
  6
Continuous
 62
     7
370
    25
100
AcDbCircle
 10
80.9625
 20
-13.4
 30
0.0
 40
0.3000000000000398
100
AcDbArc
 50
180.0
 51
270.0
  0
ARC
  5
4CD
330
1F
100
AcDbEntity
  8
0
  6
Continuous
 62
     7
370
    25
100
AcDbCircle
 10
94.3625
 20
-13.4
 30
0.0
 40
0.3000000000000114
100
AcDbArc
 50
270.0
 51
0.0
  0
ARC
  5
4CE
330
1F
100
AcDbEntity
  8
0
  6
Continuous
 62
     7
370
    25
100
AcDbCircle
 10
113.4125
 20
0.0
 30
0.0
 40
0.3000000000000114
100
AcDbArc
 50
0.0
 51
90.0
  0
ARC
  5
4CF
330
1F
100
AcDbEntity
  8
0
  6
Continuous
 62
     7
370
    25
100
AcDbCircle
 10
100.0125
 20
0.0
 30
0.0
 40
0.3000000000000398
100
AcDbArc
 50
90.0
 51
180.0
  0
ARC
  5
4D0
330
1F
100
AcDbEntity
  8
0
  6
Continuous
 62
     7
370
    25
100
AcDbCircle
 10
100.0125
 20
-13.4
 30
0.0
 40
0.3000000000000309
100
AcDbArc
 50
180.0
 51
270.0
  0
ARC
  5
4D1
330
1F
100
AcDbEntity
  8
0
  6
Continuous
 62
     7
370
    25
100
AcDbCircle
 10
113.4125
 20
-13.4
 30
0.0
 40
0.3000000000000114
100
AcDbArc
 50
270.0
 51
0.0
  0
ARC
  5
4D2
330
1F
100
AcDbEntity
  8
0
  6
Continuous
 62
     7
370
    25
100
AcDbCircle
 10
132.4625
 20
0.0
 30
0.0
 40
0.3000000000000233
100
AcDbArc
 50
0.0
 51
90.0
  0
ARC
  5
4D3
330
1F
100
AcDbEntity
  8
0
  6
Continuous
 62
     7
370
    25
100
AcDbCircle
 10
119.0625
 20
0.0
 30
0.0
 40
0.3000000000000398
100
AcDbArc
 50
90.0
 51
180.0
  0
ARC
  5
4D4
330
1F
100
AcDbEntity
  8
0
  6
Continuous
 62
     7
370
    25
100
AcDbCircle
 10
119.0625
 20
-13.4
 30
0.0
 40
0.3000000000000274
100
AcDbArc
 50
180.0
 51
270.0
  0
ARC
  5
4D5
330
1F
100
AcDbEntity
  8
0
  6
Continuous
 62
     7
370
    25
100
AcDbCircle
 10
132.4625
 20
-13.4
 30
0.0
 40
0.3000000000000131
100
AcDbArc
 50
270.0
 51
360.0
  0
ARC
  5
4D6
330
1F
100
AcDbEntity
  8
0
  6
Continuous
 62
     7
370
    25
100
AcDbCircle
 10
151.5125
 20
0.0
 30
0.0
 40
0.3000000000000682
100
AcDbArc
 50
0.0
 51
90.0
  0
ARC
  5
4D7
330
1F
100
AcDbEntity
  8
0
  6
Continuous
 62
     7
370
    25
100
AcDbCircle
 10
138.1125
 20
0.0
 30
0.0
 40
0.2999999999999912
100
AcDbArc
 50
90.0
 51
180.0
  0
ARC
  5
4D8
330
1F
100
AcDbEntity
  8
0
  6
Continuous
 62
     7
370
    25
100
AcDbCircle
 10
138.1125
 20
-13.4
 30
0.0
 40
0.3000000000000682
100
AcDbArc
 50
180.0
 51
270.0
  0
ARC
  5
4D9
330
1F
100
AcDbEntity
  8
0
  6
Continuous
 62
     7
370
    25
100
AcDbCircle
 10
151.5125
 20
-13.4
 30
0.0
 40
0.3000000000000682
100
AcDbArc
 50
270.0
 51
360.0
  0
ARC
  5
4DA
330
1F
100
AcDbEntity
  8
0
  6
Continuous
 62
     7
370
    25
100
AcDbCircle
 10
170.5625
 20
0.0
 30
0.0
 40
0.3000000000000233
100
AcDbArc
 50
0.0
 51
90.0
  0
ARC
  5
4DB
330
1F
100
AcDbEntity
  8
0
  6
Continuous
 62
     7
370
    25
100
AcDbCircle
 10
157.1625
 20
0.0
 30
0.0
 40
0.2999999999999912
100
AcDbArc
 50
90.0
 51
180.0
  0
ARC
  5
4DC
330
1F
100
AcDbEntity
  8
0
  6
Continuous
 62
     7
370
    25
100
AcDbCircle
 10
157.1625
 20
-13.4
 30
0.0
 40
0.3000000000000682
100
AcDbArc
 50
180.0
 51
270.0
  0
ARC
  5
4DD
330
1F
100
AcDbEntity
  8
0
  6
Continuous
 62
     7
370
    25
100
AcDbCircle
 10
170.5625
 20
-13.4
 30
0.0
 40
0.3000000000000131
100
AcDbArc
 50
270.0
 51
360.0
  0
ARC
  5
4DE
330
1F
100
AcDbEntity
  8
0
  6
Continuous
 62
     7
370
    25
100
AcDbCircle
 10
189.6125
 20
0.0
 30
0.0
 40
0.3000000000000682
100
AcDbArc
 50
0.0
 51
90.0
  0
ARC
  5
4DF
330
1F
100
AcDbEntity
  8
0
  6
Continuous
 62
     7
370
    25
100
AcDbCircle
 10
176.2125
 20
0.0
 30
0.0
 40
0.3000000000000114
100
AcDbArc
 50
90.0
 51
180.0
  0
ARC
  5
4E0
330
1F
100
AcDbEntity
  8
0
  6
Continuous
 62
     7
370
    25
100
AcDbCircle
 10
176.2125
 20
-13.4
 30
0.0
 40
0.3000000000000398
100
AcDbArc
 50
180.0
 51
270.0
  0
ARC
  5
4E1
330
1F
100
AcDbEntity
  8
0
  6
Continuous
 62
     7
370
    25
100
AcDbCircle
 10
189.6125
 20
-13.4
 30
0.0
 40
0.3000000000000398
100
AcDbArc
 50
270.0
 51
360.0
  0
ARC
  5
4E2
330
1F
100
AcDbEntity
  8
0
  6
Continuous
 62
     7
370
    25
100
AcDbCircle
 10
208.6625
 20
0.0
 30
0.0
 40
0.3000000000000966
100
AcDbArc
 50
0.0
 51
90.0
  0
ARC
  5
4E3
330
1F
100
AcDbEntity
  8
0
  6
Continuous
 62
     7
370
    25
100
AcDbCircle
 10
195.2625
 20
0.0
 30
0.0
 40
0.2999999999999912
100
AcDbArc
 50
90.0
 51
180.0
  0
ARC
  5
4E4
330
1F
100
AcDbEntity
  8
0
  6
Continuous
 62
     7
370
    25
100
AcDbCircle
 10
195.2625
 20
-13.4
 30
0.0
 40
0.3000000000000682
100
AcDbArc
 50
180.0
 51
270.0
  0
ARC
  5
4E5
330
1F
100
AcDbEntity
  8
0
  6
Continuous
 62
     7
370
    25
100
AcDbCircle
 10
208.6625
 20
-13.4
 30
0.0
 40
0.3000000000000682
100
AcDbArc
 50
270.0
 51
360.0
  0
ARC
  5
4E6
330
1F
100
AcDbEntity
  8
0
  6
Continuous
 62
     7
370
    25
100
AcDbCircle
 10
227.7125
 20
0.0
 30
0.0
 40
0.3000000000000233
100
AcDbArc
 50
0.0
 51
90.0
  0
ARC
  5
4E7
330
1F
100
AcDbEntity
  8
0
  6
Continuous
 62
     7
370
    25
100
AcDbCircle
 10
214.3125
 20
0.0
 30
0.0
 40
0.2999999999999912
100
AcDbArc
 50
90.0
 51
180.0
  0
ARC
  5
4E8
330
1F
100
AcDbEntity
  8
0
  6
Continuous
 62
     7
370
    25
100
AcDbCircle
 10
214.3125
 20
-13.4
 30
0.0
 40
0.3000000000000682
100
AcDbArc
 50
180.0
 51
270.0
  0
ARC
  5
4E9
330
1F
100
AcDbEntity
  8
0
  6
Continuous
 62
     7
370
    25
100
AcDbCircle
 10
227.7125
 20
-13.4
 30
0.0
 40
0.3000000000000131
100
AcDbArc
 50
270.0
 51
360.0
  0
ARC
  5
4EA
330
1F
100
AcDbEntity
  8
0
  6
Continuous
 62
     7
370
    25
100
AcDbCircle
 10
246.7625
 20
0.0
 30
0.0
 40
0.3000000000000682
100
AcDbArc
 50
0.0
 51
90.0
  0
ARC
  5
4EB
330
1F
100
AcDbEntity
  8
0
  6
Continuous
 62
     7
370
    25
100
AcDbCircle
 10
233.3625
 20
0.0
 30
0.0
 40
0.2999999999999912
100
AcDbArc
 50
90.0
 51
180.0
  0
ARC
  5
4EC
330
1F
100
AcDbEntity
  8
0
  6
Continuous
 62
     7
370
    25
100
AcDbCircle
 10
233.3625
 20
-13.4
 30
0.0
 40
0.3000000000000398
100
AcDbArc
 50
180.0
 51
270.0
  0
ARC
  5
4ED
330
1F
100
AcDbEntity
  8
0
  6
Continuous
 62
     7
370
    25
100
AcDbCircle
 10
246.7625
 20
-13.4
 30
0.0
 40
0.3000000000000398
100
AcDbArc
 50
270.0
 51
360.0
  0
ARC
  5
4EE
330
1F
100
AcDbEntity
  8
0
  6
Continuous
 62
     7
370
    25
100
AcDbCircle
 10
265.8125
 20
0.0
 30
0.0
 40
0.3000000000000114
100
AcDbArc
 50
360.0
 51
90.0
  0
ARC
  5
4EF
330
1F
100
AcDbEntity
  8
0
  6
Continuous
 62
     7
370
    25
100
AcDbCircle
 10
252.4125
 20
0.0
 30
0.0
 40
0.2999999999999834
100
AcDbArc
 50
90.0
 51
180.0
  0
ARC
  5
4F0
330
1F
100
AcDbEntity
  8
0
  6
Continuous
 62
     7
370
    25
100
AcDbCircle
 10
252.4125
 20
-13.4
 30
0.0
 40
0.3000000000000966
100
AcDbArc
 50
180.0
 51
270.0
  0
ARC
  5
4F1
330
1F
100
AcDbEntity
  8
0
  6
Continuous
 62
     7
370
    25
100
AcDbCircle
 10
265.8125
 20
-13.4
 30
0.0
 40
0.3000000000001837
100
AcDbArc
 50
270.0
 51
360.0
  0
ARC
  5
4F2
330
1F
100
AcDbEntity
  8
0
  6
Continuous
 62
     7
370
    25
100
AcDbCircle
 10
284.8625
 20
0.0
 30
0.0
 40
0.3000000000000114
100
AcDbArc
 50
360.0
 51
90.0
  0
ARC
  5
4F3
330
1F
100
AcDbEntity
  8
0
  6
Continuous
 62
     7
370
    25
100
AcDbCircle
 10
271.4625
 20
0.0
 30
0.0
 40
0.3000000000000114
100
AcDbArc
 50
90.0
 51
180.0
  0
ARC
  5
4F4
330
1F
100
AcDbEntity
  8
0
  6
Continuous
 62
     7
370
    25
100
AcDbCircle
 10
271.4625
 20
-13.4
 30
0.0
 40
0.30000000000007
100
AcDbArc
 50
180.0
 51
270.0
  0
ARC
  5
4F5
330
1F
100
AcDbEntity
  8
0
  6
Continuous
 62
     7
370
    25
100
AcDbCircle
 10
284.8625
 20
-13.4
 30
0.0
 40
0.3000000000001819
100
AcDbArc
 50
270.0
 51
360.0
  0
ARC
  5
4F6
330
1F
100
AcDbEntity
  8
0
  6
Continuous
 62
     7
370
    25
100
AcDbCircle
 10
342.0125
 20
0.0
 30
0.0
 40
0.3000000000000114
100
AcDbArc
 50
360.0
 51
90.0
  0
ARC
  5
4F7
330
1F
100
AcDbEntity
  8
0
  6
Continuous
 62
     7
370
    25
100
AcDbCircle
 10
328.6125
 20
0.0
 30
0.0
 40
0.3000000000001288
100
AcDbArc
 50
90.0
 51
180.0
  0
ARC
  5
4F8
330
1F
100
AcDbEntity
  8
0
  6
Continuous
 62
     7
370
    25
100
AcDbCircle
 10
328.6125
 20
-13.4
 30
0.0
 40
0.3000000000000131
100
AcDbArc
 50
180.0
 51
270.0
  0
ARC
  5
4F9
330
1F
100
AcDbEntity
  8
0
  6
Continuous
 62
     7
370
    25
100
AcDbCircle
 10
342.0125
 20
-13.4
 30
0.0
 40
0.2999999999999208
100
AcDbArc
 50
270.0
 51
0.0
  0
ARC
  5
4FA
330
1F
100
AcDbEntity
  8
0
  6
Continuous
 62
     7
370
    25
100
AcDbCircle
 10
322.9625
 20
-57.15
 30
0.0
 40
0.3000000000000114
100
AcDbArc
 50
360.0
 51
90.0
  0
ARC
  5
4FB
330
1F
100
AcDbEntity
  8
0
  6
Continuous
 62
     7
370
    25
100
AcDbCircle
 10
309.5625
 20
-57.15
 30
0.0
 40
0.3000000000001393
100
AcDbArc
 50
90.0
 51
180.0
  0
ARC
  5
4FC
330
1F
100
AcDbEntity
  8
0
  6
Continuous
 62
     7
370
    25
100
AcDbCircle
 10
309.5625
 20
-70.55
 30
0.0
 40
0.2999999999999829
100
AcDbArc
 50
180.0
 51
270.0
  0
ARC
  5
4FD
330
1F
100
AcDbEntity
  8
0
  6
Continuous
 62
     7
370
    25
100
AcDbCircle
 10
322.9625
 20
-70.55
 30
0.0
 40
0.2999999999999119
100
AcDbArc
 50
270.0
 51
0.0
  0
ARC
  5
4FE
330
1F
100
AcDbEntity
  8
0
  6
Continuous
 62
     7
370
    25
100
AcDbCircle
 10
322.9625
 20
-76.2
 30
0.0
 40
0.3000000000000114
100
AcDbArc
 50
360.0
 51
90.0
  0
ARC
  5
4FF
330
1F
100
AcDbEntity
  8
0
  6
Continuous
 62
     7
370
    25
100
AcDbCircle
 10
309.5625
 20
-76.2
 30
0.0
 40
0.3000000000001251
100
AcDbArc
 50
90.0
 51
180.0
  0
ARC
  5
500
330
1F
100
AcDbEntity
  8
0
  6
Continuous
 62
     7
370
    25
100
AcDbCircle
 10
309.5625
 20
-89.6
 30
0.0
 40
0.3000000000000114
100
AcDbArc
 50
180.0
 51
270.0
  0
ARC
  5
501
330
1F
100
AcDbEntity
  8
0
  6
Continuous
 62
     7
370
    25
100
AcDbCircle
 10
322.9625
 20
-89.6
 30
0.0
 40
0.2999999999999545
100
AcDbArc
 50
270.0
 51
0.0
  0
ARC
  5
502
330
1F
100
AcDbEntity
  8
0
  6
Continuous
 62
     7
370
    25
100
AcDbCircle
 10
303.9125
 20
-76.2
 30
0.0
 40
0.3000000000000114
100
AcDbArc
 50
360.0
 51
90.0
  0
ARC
  5
503
330
1F
100
AcDbEntity
  8
0
  6
Continuous
 62
     7
370
    25
100
AcDbCircle
 10
290.5125
 20
-76.2
 30
0.0
 40
0.3000000000001251
100
AcDbArc
 50
90.0
 51
180.0
  0
ARC
  5
504
330
1F
100
AcDbEntity
  8
0
  6
Continuous
 62
     7
370
    25
100
AcDbCircle
 10
290.5125
 20
-89.6
 30
0.0
 40
0.3000000000000114
100
AcDbArc
 50
180.0
 51
270.0
  0
ARC
  5
505
330
1F
100
AcDbEntity
  8
0
  6
Continuous
 62
     7
370
    25
100
AcDbCircle
 10
303.9125
 20
-89.6
 30
0.0
 40
0.2999999999999545
100
AcDbArc
 50
270.0
 51
0.0
  0
ARC
  5
506
330
1F
100
AcDbEntity
  8
0
  6
Continuous
 62
     7
370
    25
100
AcDbCircle
 10
342.0125
 20
-19.05
 30
0.0
 40
0.3000000000000753
100
AcDbArc
 50
0.0
 51
90.0
  0
ARC
  5
507
330
1F
100
AcDbEntity
  8
0
  6
Continuous
 62
     7
370
    25
100
AcDbCircle
 10
328.6125
 20
-19.05
 30
0.0
 40
0.3000000000001393
100
AcDbArc
 50
90.0
 51
180.0
  0
ARC
  5
508
330
1F
100
AcDbEntity
  8
0
  6
Continuous
 62
     7
370
    25
100
AcDbCircle
 10
328.6125
 20
-32.45
 30
0.0
 40
0.2999999999999687
100
AcDbArc
 50
180.0
 51
270.0
  0
ARC
  5
509
330
1F
100
AcDbEntity
  8
0
  6
Continuous
 62
     7
370
    25
100
AcDbCircle
 10
342.0125
 20
-32.45
 30
0.0
 40
0.2999999999999545
100
AcDbArc
 50
270.0
 51
0.0
  0
ARC
  5
50A
330
1F
100
AcDbEntity
  8
0
  6
Continuous
 62
     7
370
    25
100
AcDbCircle
 10
342.0125
 20
-38.1
 30
0.0
 40
0.3000000000000114
100
AcDbArc
 50
360.0
 51
90.0
  0
ARC
  5
50B
330
1F
100
AcDbEntity
  8
0
  6
Continuous
 62
     7
370
    25
100
AcDbCircle
 10
328.6125
 20
-38.1
 30
0.0
 40
0.3000000000001464
100
AcDbArc
 50
90.0
 51
180.0
  0
ARC
  5
50C
330
1F
100
AcDbEntity
  8
0
  6
Continuous
 62
     7
370
    25
100
AcDbCircle
 10
328.6125
 20
-51.5
 30
0.0
 40
0.3000000000000114
100
AcDbArc
 50
180.0
 51
270.0
  0
ARC
  5
50D
330
1F
100
AcDbEntity
  8
0
  6
Continuous
 62
     7
370
    25
100
AcDbCircle
 10
342.0125
 20
-51.5
 30
0.0
 40
0.2999999999999119
100
AcDbArc
 50
270.0
 51
0.0
  0
ARC
  5
50E
330
1F
100
AcDbEntity
  8
0
  6
Continuous
 62
     7
370
    25
100
AcDbCircle
 10
342.0125
 20
-57.15
 30
0.0
 40
0.3000000000000114
100
AcDbArc
 50
360.0
 51
90.0
  0
ARC
  5
50F
330
1F
100
AcDbEntity
  8
0
  6
Continuous
 62
     7
370
    25
100
AcDbCircle
 10
328.6125
 20
-57.15
 30
0.0
 40
0.3000000000001464
100
AcDbArc
 50
90.0
 51
180.0
  0
ARC
  5
510
330
1F
100
AcDbEntity
  8
0
  6
Continuous
 62
     7
370
    25
100
AcDbCircle
 10
328.6125
 20
-70.55
 30
0.0
 40
0.2999999999999545
100
AcDbArc
 50
180.0
 51
270.0
  0
ARC
  5
511
330
1F
100
AcDbEntity
  8
0
  6
Continuous
 62
     7
370
    25
100
AcDbCircle
 10
342.0125
 20
-70.55
 30
0.0
 40
0.2999999999999119
100
AcDbArc
 50
270.0
 51
0.0
  0
ARC
  5
512
330
1F
100
AcDbEntity
  8
0
  6
Continuous
 62
     7
370
    25
100
AcDbCircle
 10
342.0125
 20
-76.2
 30
0.0
 40
0.3000000000000114
100
AcDbArc
 50
360.0
 51
90.0
  0
ARC
  5
513
330
1F
100
AcDbEntity
  8
0
  6
Continuous
 62
     7
370
    25
100
AcDbCircle
 10
328.6125
 20
-76.2
 30
0.0
 40
0.3000000000000966
100
AcDbArc
 50
90.0
 51
180.0
  0
ARC
  5
514
330
1F
100
AcDbEntity
  8
0
  6
Continuous
 62
     7
370
    25
100
AcDbCircle
 10
328.6125
 20
-89.6
 30
0.0
 40
0.3000000000000114
100
AcDbArc
 50
180.0
 51
270.0
  0
ARC
  5
515
330
1F
100
AcDbEntity
  8
0
  6
Continuous
 62
     7
370
    25
100
AcDbCircle
 10
342.0125
 20
-89.6
 30
0.0
 40
0.2999999999999545
100
AcDbArc
 50
270.0
 51
0.0
  0
ARC
  5
516
330
1F
100
AcDbEntity
  8
0
  6
Continuous
 62
     7
370
    25
100
AcDbCircle
 10
61.025
 20
-19.05
 30
0.0
 40
0.3000000000000185
100
AcDbArc
 50
0.0
 51
90.0
  0
ARC
  5
517
330
1F
100
AcDbEntity
  8
0
  6
Continuous
 62
     7
370
    25
100
AcDbCircle
 10
47.625
 20
-19.05
 30
0.0
 40
0.2999999999999829
100
AcDbArc
 50
90.0
 51
180.0
  0
ARC
  5
518
330
1F
100
AcDbEntity
  8
0
  6
Continuous
 62
     7
370
    25
100
AcDbCircle
 10
47.625
 20
-32.45
 30
0.0
 40
0.2999999999999829
100
AcDbArc
 50
180.0
 51
270.0
  0
ARC
  5
519
330
1F
100
AcDbEntity
  8
0
  6
Continuous
 62
     7
370
    25
100
AcDbCircle
 10
61.025
 20
-32.45
 30
0.0
 40
0.3000000000000185
100
AcDbArc
 50
270.0
 51
360.0
  0
ARC
  5
51A
330
1F
100
AcDbEntity
  8
0
  6
Continuous
 62
     7
370
    25
100
AcDbCircle
 10
84.8375
 20
-19.05
 30
0.0
 40
0.3000000000000256
100
AcDbArc
 50
0.0
 51
90.0
  0
ARC
  5
51B
330
1F
100
AcDbEntity
  8
0
  6
Continuous
 62
     7
370
    25
100
AcDbCircle
 10
71.4375
 20
-19.05
 30
0.0
 40
0.3000000000000114
100
AcDbArc
 50
90.0
 51
180.0
  0
ARC
  5
51C
330
1F
100
AcDbEntity
  8
0
  6
Continuous
 62
     7
370
    25
100
AcDbCircle
 10
71.4375
 20
-32.45
 30
0.0
 40
0.2999999999999972
100
AcDbArc
 50
180.0
 51
270.0
  0
ARC
  5
51D
330
1F
100
AcDbEntity
  8
0
  6
Continuous
 62
     7
370
    25
100
AcDbCircle
 10
84.8375
 20
-32.45
 30
0.0
 40
0.3000000000000114
100
AcDbArc
 50
270.0
 51
360.0
  0
ARC
  5
51E
330
1F
100
AcDbEntity
  8
0
  6
Continuous
 62
     7
370
    25
100
AcDbCircle
 10
103.8875
 20
-19.05
 30
0.0
 40
0.3000000000000114
100
AcDbArc
 50
0.0
 51
90.0
  0
ARC
  5
51F
330
1F
100
AcDbEntity
  8
0
  6
Continuous
 62
     7
370
    25
100
AcDbCircle
 10
90.4875
 20
-19.05
 30
0.0
 40
0.2999999999999972
100
AcDbArc
 50
90.0
 51
180.0
  0
ARC
  5
520
330
1F
100
AcDbEntity
  8
0
  6
Continuous
 62
     7
370
    25
100
AcDbCircle
 10
90.4875
 20
-32.45
 30
0.0
 40
0.2999999999999687
100
AcDbArc
 50
180.0
 51
270.0
  0
ARC
  5
521
330
1F
100
AcDbEntity
  8
0
  6
Continuous
 62
     7
370
    25
100
AcDbCircle
 10
103.8875
 20
-32.45
 30
0.0
 40
0.3000000000000256
100
AcDbArc
 50
270.0
 51
360.0
  0
ARC
  5
522
330
1F
100
AcDbEntity
  8
0
  6
Continuous
 62
     7
370
    25
100
AcDbCircle
 10
122.9375
 20
-19.05
 30
0.0
 40
0.3000000000000256
100
AcDbArc
 50
0.0
 51
90.0
  0
ARC
  5
523
330
1F
100
AcDbEntity
  8
0
  6
Continuous
 62
     7
370
    25
100
AcDbCircle
 10
109.5375
 20
-19.05
 30
0.0
 40
0.3000000000000043
100
AcDbArc
 50
90.0
 51
180.0
  0
ARC
  5
524
330
1F
100
AcDbEntity
  8
0
  6
Continuous
 62
     7
370
    25
100
AcDbCircle
 10
109.5375
 20
-32.45
 30
0.0
 40
0.2999999999999829
100
AcDbArc
 50
180.0
 51
270.0
  0
ARC
  5
525
330
1F
100
AcDbEntity
  8
0
  6
Continuous
 62
     7
370
    25
100
AcDbCircle
 10
122.9375
 20
-32.45
 30
0.0
 40
0.3000000000000256
100
AcDbArc
 50
270.0
 51
360.0
  0
ARC
  5
526
330
1F
100
AcDbEntity
  8
0
  6
Continuous
 62
     7
370
    25
100
AcDbCircle
 10
141.9875
 20
-19.05
 30
0.0
 40
0.2999999999999616
100
AcDbArc
 50
360.0
 51
90.0
  0
ARC
  5
527
330
1F
100
AcDbEntity
  8
0
  6
Continuous
 62
     7
370
    25
100
AcDbCircle
 10
128.5875
 20
-19.05
 30
0.0
 40
0.2999999999999936
100
AcDbArc
 50
90.0
 51
180.0
  0
ARC
  5
528
330
1F
100
AcDbEntity
  8
0
  6
Continuous
 62
     7
370
    25
100
AcDbCircle
 10
128.5875
 20
-32.45
 30
0.0
 40
0.3000000000000114
100
AcDbArc
 50
180.0
 51
270.0
  0
ARC
  5
529
330
1F
100
AcDbEntity
  8
0
  6
Continuous
 62
     7
370
    25
100
AcDbCircle
 10
141.9875
 20
-32.45
 30
0.0
 40
0.2999999999999545
100
AcDbArc
 50
270.0
 51
0.0
  0
ARC
  5
52A
330
1F
100
AcDbEntity
  8
0
  6
Continuous
 62
     7
370
    25
100
AcDbCircle
 10
161.0375
 20
-19.05
 30
0.0
 40
0.2999999999999616
100
AcDbArc
 50
360.0
 51
90.0
  0
ARC
  5
52B
330
1F
100
AcDbEntity
  8
0
  6
Continuous
 62
     7
370
    25
100
AcDbCircle
 10
147.6375
 20
-19.05
 30
0.0
 40
0.2999999999999936
100
AcDbArc
 50
90.0
 51
180.0
  0
ARC
  5
52C
330
1F
100
AcDbEntity
  8
0
  6
Continuous
 62
     7
370
    25
100
AcDbCircle
 10
147.6375
 20
-32.45
 30
0.0
 40
0.3000000000000114
100
AcDbArc
 50
180.0
 51
270.0
  0
ARC
  5
52D
330
1F
100
AcDbEntity
  8
0
  6
Continuous
 62
     7
370
    25
100
AcDbCircle
 10
161.0375
 20
-32.45
 30
0.0
 40
0.2999999999999545
100
AcDbArc
 50
270.0
 51
0.0
  0
ARC
  5
52E
330
1F
100
AcDbEntity
  8
0
  6
Continuous
 62
     7
370
    25
100
AcDbCircle
 10
180.0875
 20
-19.05
 30
0.0
 40
0.2999999999999616
100
AcDbArc
 50
360.0
 51
90.0
  0
ARC
  5
52F
330
1F
100
AcDbEntity
  8
0
  6
Continuous
 62
     7
370
    25
100
AcDbCircle
 10
166.6875
 20
-19.05
 30
0.0
 40
0.2999999999999936
100
AcDbArc
 50
90.0
 51
180.0
  0
ARC
  5
530
330
1F
100
AcDbEntity
  8
0
  6
Continuous
 62
     7
370
    25
100
AcDbCircle
 10
166.6875
 20
-32.45
 30
0.0
 40
0.3000000000000114
100
AcDbArc
 50
180.0
 51
270.0
  0
ARC
  5
531
330
1F
100
AcDbEntity
  8
0
  6
Continuous
 62
     7
370
    25
100
AcDbCircle
 10
180.0875
 20
-32.45
 30
0.0
 40
0.2999999999999545
100
AcDbArc
 50
270.0
 51
0.0
  0
ARC
  5
532
330
1F
100
AcDbEntity
  8
0
  6
Continuous
 62
     7
370
    25
100
AcDbCircle
 10
199.1375
 20
-19.05
 30
0.0
 40
0.2999999999999616
100
AcDbArc
 50
360.0
 51
90.0
  0
ARC
  5
533
330
1F
100
AcDbEntity
  8
0
  6
Continuous
 62
     7
370
    25
100
AcDbCircle
 10
185.7375
 20
-19.05
 30
0.0
 40
0.2999999999999936
100
AcDbArc
 50
90.0
 51
180.0
  0
ARC
  5
534
330
1F
100
AcDbEntity
  8
0
  6
Continuous
 62
     7
370
    25
100
AcDbCircle
 10
185.7375
 20
-32.45
 30
0.0
 40
0.3000000000000114
100
AcDbArc
 50
180.0
 51
270.0
  0
ARC
  5
535
330
1F
100
AcDbEntity
  8
0
  6
Continuous
 62
     7
370
    25
100
AcDbCircle
 10
199.1375
 20
-32.45
 30
0.0
 40
0.2999999999999545
100
AcDbArc
 50
270.0
 51
0.0
  0
ARC
  5
536
330
1F
100
AcDbEntity
  8
0
  6
Continuous
 62
     7
370
    25
100
AcDbCircle
 10
218.1875
 20
-19.05
 30
0.0
 40
0.2999999999999616
100
AcDbArc
 50
360.0
 51
90.0
  0
ARC
  5
537
330
1F
100
AcDbEntity
  8
0
  6
Continuous
 62
     7
370
    25
100
AcDbCircle
 10
204.7875
 20
-19.05
 30
0.0
 40
0.2999999999999936
100
AcDbArc
 50
90.0
 51
180.0
  0
ARC
  5
538
330
1F
100
AcDbEntity
  8
0
  6
Continuous
 62
     7
370
    25
100
AcDbCircle
 10
204.7875
 20
-32.45
 30
0.0
 40
0.3000000000000114
100
AcDbArc
 50
180.0
 51
270.0
  0
ARC
  5
539
330
1F
100
AcDbEntity
  8
0
  6
Continuous
 62
     7
370
    25
100
AcDbCircle
 10
218.1875
 20
-32.45
 30
0.0
 40
0.2999999999999545
100
AcDbArc
 50
270.0
 51
0.0
  0
ARC
  5
53A
330
1F
100
AcDbEntity
  8
0
  6
Continuous
 62
     7
370
    25
100
AcDbCircle
 10
237.2375
 20
-19.05
 30
0.0
 40
0.2999999999999829
100
AcDbArc
 50
360.0
 51
90.0
  0
ARC
  5
53B
330
1F
100
AcDbEntity
  8
0
  6
Continuous
 62
     7
370
    25
100
AcDbCircle
 10
223.8375
 20
-19.05
 30
0.0
 40
0.2999999999999936
100
AcDbArc
 50
90.0
 51
180.0
  0
ARC
  5
53C
330
1F
100
AcDbEntity
  8
0
  6
Continuous
 62
     7
370
    25
100
AcDbCircle
 10
223.8375
 20
-32.45
 30
0.0
 40
0.3000000000000114
100
AcDbArc
 50
180.0
 51
270.0
  0
ARC
  5
53D
330
1F
100
AcDbEntity
  8
0
  6
Continuous
 62
     7
370
    25
100
AcDbCircle
 10
237.2375
 20
-32.45
 30
0.0
 40
0.2999999999999829
100
AcDbArc
 50
270.0
 51
0.0
  0
ARC
  5
53E
330
1F
100
AcDbEntity
  8
0
  6
Continuous
 62
     7
370
    25
100
AcDbCircle
 10
256.2875
 20
-19.05
 30
0.0
 40
0.3000000000000682
100
AcDbArc
 50
0.0
 51
90.0
  0
ARC
  5
53F
330
1F
100
AcDbEntity
  8
0
  6
Continuous
 62
     7
370
    25
100
AcDbCircle
 10
242.8875
 20
-19.05
 30
0.0
 40
0.3000000000000114
100
AcDbArc
 50
90.0
 51
180.0
  0
ARC
  5
540
330
1F
100
AcDbEntity
  8
0
  6
Continuous
 62
     7
370
    25
100
AcDbCircle
 10
242.8875
 20
-32.45
 30
0.0
 40
0.3000000000000114
100
AcDbArc
 50
180.0
 51
270.0
  0
ARC
  5
541
330
1F
100
AcDbEntity
  8
0
  6
Continuous
 62
     7
370
    25
100
AcDbCircle
 10
256.2875
 20
-32.45
 30
0.0
 40
0.2999999999999545
100
AcDbArc
 50
270.0
 51
0.0
  0
ARC
  5
542
330
1F
100
AcDbEntity
  8
0
  6
Continuous
 62
     7
370
    25
100
AcDbCircle
 10
275.3375
 20
-19.05
 30
0.0
 40
0.3000000000000789
100
AcDbArc
 50
0.0
 51
90.0
  0
ARC
  5
543
330
1F
100
AcDbEntity
  8
0
  6
Continuous
 62
     7
370
    25
100
AcDbCircle
 10
261.9375
 20
-19.05
 30
0.0
 40
0.3000000000001819
100
AcDbArc
 50
90.0
 51
180.0
  0
ARC
  5
544
330
1F
100
AcDbEntity
  8
0
  6
Continuous
 62
     7
370
    25
100
AcDbCircle
 10
261.9375
 20
-32.45
 30
0.0
 40
0.3000000000000682
100
AcDbArc
 50
180.0
 51
270.0
  0
ARC
  5
545
330
1F
100
AcDbEntity
  8
0
  6
Continuous
 62
     7
370
    25
100
AcDbCircle
 10
275.3375
 20
-32.45
 30
0.0
 40
0.2999999999999545
100
AcDbArc
 50
270.0
 51
0.0
  0
ARC
  5
546
330
1F
100
AcDbEntity
  8
0
  6
Continuous
 62
     7
370
    25
100
AcDbCircle
 10
294.3875
 20
-19.05
 30
0.0
 40
0.3000000000000682
100
AcDbArc
 50
0.0
 51
90.0
  0
ARC
  5
547
330
1F
100
AcDbEntity
  8
0
  6
Continuous
 62
     7
370
    25
100
AcDbCircle
 10
280.9875
 20
-19.05
 30
0.0
 40
0.3000000000001499
100
AcDbArc
 50
90.0
 51
180.0
  0
ARC
  5
548
330
1F
100
AcDbEntity
  8
0
  6
Continuous
 62
     7
370
    25
100
AcDbCircle
 10
280.9875
 20
-32.45
 30
0.0
 40
0.3000000000000185
100
AcDbArc
 50
180.0
 51
270.0
  0
ARC
  5
549
330
1F
100
AcDbEntity
  8
0
  6
Continuous
 62
     7
370
    25
100
AcDbCircle
 10
294.3875
 20
-32.45
 30
0.0
 40
0.2999999999999545
100
AcDbArc
 50
270.0
 51
0.0
  0
ARC
  5
54A
330
1F
100
AcDbEntity
  8
0
  6
Continuous
 62
     7
370
    25
100
AcDbCircle
 10
318.2
 20
-19.05
 30
0.0
 40
0.3000000000000114
100
AcDbArc
 50
360.0
 51
90.0
  0
ARC
  5
54B
330
1F
100
AcDbEntity
  8
0
  6
Continuous
 62
     7
370
    25
100
AcDbCircle
 10
304.8
 20
-19.05
 30
0.0
 40
0.3000000000000114
100
AcDbArc
 50
90.0
 51
180.0
  0
ARC
  5
54C
330
1F
100
AcDbEntity
  8
0
  6
Continuous
 62
     7
370
    25
100
AcDbCircle
 10
304.8
 20
-32.45
 30
0.0
 40
0.3000000000000682
100
AcDbArc
 50
180.0
 51
270.0
  0
ARC
  5
54D
330
1F
100
AcDbEntity
  8
0
  6
Continuous
 62
     7
370
    25
100
AcDbCircle
 10
318.2
 20
-32.45
 30
0.0
 40
0.3000000000001819
100
AcDbArc
 50
270.0
 51
360.0
  0
ARC
  5
54E
330
1F
100
AcDbEntity
  8
0
  6
Continuous
 62
     7
370
    25
100
AcDbCircle
 10
89.6
 20
-38.1
 30
0.0
 40
0.3000000000000114
100
AcDbArc
 50
0.0
 51
90.0
  0
ARC
  5
54F
330
1F
100
AcDbEntity
  8
0
  6
Continuous
 62
     7
370
    25
100
AcDbCircle
 10
76.2
 20
-38.1
 30
0.0
 40
0.3000000000000043
100
AcDbArc
 50
90.0
 51
180.0
  0
ARC
  5
550
330
1F
100
AcDbEntity
  8
0
  6
Continuous
 62
     7
370
    25
100
AcDbCircle
 10
76.2
 20
-51.5
 30
0.0
 40
0.2999999999999758
100
AcDbArc
 50
180.0
 51
270.0
  0
ARC
  5
551
330
1F
100
AcDbEntity
  8
0
  6
Continuous
 62
     7
370
    25
100
AcDbCircle
 10
89.6
 20
-51.5
 30
0.0
 40
0.2999999999999616
100
AcDbArc
 50
270.0
 51
0.0
  0
ARC
  5
552
330
1F
100
AcDbEntity
  8
0
  6
Continuous
 62
     7
370
    25
100
AcDbCircle
 10
108.65
 20
-38.1
 30
0.0
 40
0.3000000000000043
100
AcDbArc
 50
0.0
 51
90.0
  0
ARC
  5
553
330
1F
100
AcDbEntity
  8
0
  6
Continuous
 62
     7
370
    25
100
AcDbCircle
 10
95.25
 20
-38.1
 30
0.0
 40
0.3000000000000043
100
AcDbArc
 50
90.0
 51
180.0
  0
ARC
  5
554
330
1F
100
AcDbEntity
  8
0
  6
Continuous
 62
     7
370
    25
100
AcDbCircle
 10
95.25
 20
-51.5
 30
0.0
 40
0.2999999999999758
100
AcDbArc
 50
180.0
 51
270.0
  0
ARC
  5
555
330
1F
100
AcDbEntity
  8
0
  6
Continuous
 62
     7
370
    25
100
AcDbCircle
 10
108.65
 20
-51.5
 30
0.0
 40
0.2999999999999901
100
AcDbArc
 50
270.0
 51
0.0
  0
ARC
  5
556
330
1F
100
AcDbEntity
  8
0
  6
Continuous
 62
     7
370
    25
100
AcDbCircle
 10
127.7
 20
-38.1
 30
0.0
 40
0.3000000000000327
100
AcDbArc
 50
0.0
 51
90.0
  0
ARC
  5
557
330
1F
100
AcDbEntity
  8
0
  6
Continuous
 62
     7
370
    25
100
AcDbCircle
 10
114.3
 20
-38.1
 30
0.0
 40
0.3000000000000043
100
AcDbArc
 50
90.0
 51
180.0
  0
ARC
  5
558
330
1F
100
AcDbEntity
  8
0
  6
Continuous
 62
     7
370
    25
100
AcDbCircle
 10
114.3
 20
-51.5
 30
0.0
 40
0.2999999999999758
100
AcDbArc
 50
180.0
 51
270.0
  0
ARC
  5
559
330
1F
100
AcDbEntity
  8
0
  6
Continuous
 62
     7
370
    25
100
AcDbCircle
 10
127.7
 20
-51.5
 30
0.0
 40
0.3000000000000682
100
AcDbArc
 50
270.0
 51
360.0
  0
ARC
  5
55A
330
1F
100
AcDbEntity
  8
0
  6
Continuous
 62
     7
370
    25
100
AcDbCircle
 10
146.75
 20
-38.1
 30
0.0
 40
0.3000000000000114
100
AcDbArc
 50
0.0
 51
90.0
  0
ARC
  5
55B
330
1F
100
AcDbEntity
  8
0
  6
Continuous
 62
     7
370
    25
100
AcDbCircle
 10
133.35
 20
-38.1
 30
0.0
 40
0.3000000000000114
100
AcDbArc
 50
90.0
 51
180.0
  0
ARC
  5
55C
330
1F
100
AcDbEntity
  8
0
  6
Continuous
 62
     7
370
    25
100
AcDbCircle
 10
133.35
 20
-51.5
 30
0.0
 40
0.3000000000000185
100
AcDbArc
 50
180.0
 51
270.0
  0
ARC
  5
55D
330
1F
100
AcDbEntity
  8
0
  6
Continuous
 62
     7
370
    25
100
AcDbCircle
 10
146.75
 20
-51.5
 30
0.0
 40
0.3000000000000114
100
AcDbArc
 50
270.0
 51
0.0
  0
ARC
  5
55E
330
1F
100
AcDbEntity
  8
0
  6
Continuous
 62
     7
370
    25
100
AcDbCircle
 10
165.8
 20
-38.1
 30
0.0
 40
0.3000000000000398
100
AcDbArc
 50
0.0
 51
90.0
  0
ARC
  5
55F
330
1F
100
AcDbEntity
  8
0
  6
Continuous
 62
     7
370
    25
100
AcDbCircle
 10
152.4
 20
-38.1
 30
0.0
 40
0.3000000000000114
100
AcDbArc
 50
90.0
 51
180.0
  0
ARC
  5
560
330
1F
100
AcDbEntity
  8
0
  6
Continuous
 62
     7
370
    25
100
AcDbCircle
 10
152.4
 20
-51.5
 30
0.0
 40
0.3000000000000114
100
AcDbArc
 50
180.0
 51
270.0
  0
ARC
  5
561
330
1F
100
AcDbEntity
  8
0
  6
Continuous
 62
     7
370
    25
100
AcDbCircle
 10
165.8
 20
-51.5
 30
0.0
 40
0.2999999999999901
100
AcDbArc
 50
270.0
 51
0.0
  0
ARC
  5
562
330
1F
100
AcDbEntity
  8
0
  6
Continuous
 62
     7
370
    25
100
AcDbCircle
 10
184.85
 20
-38.1
 30
0.0
 40
0.3000000000000185
100
AcDbArc
 50
0.0
 51
90.0
  0
ARC
  5
563
330
1F
100
AcDbEntity
  8
0
  6
Continuous
 62
     7
370
    25
100
AcDbCircle
 10
171.45
 20
-38.1
 30
0.0
 40
0.3000000000000114
100
AcDbArc
 50
90.0
 51
180.0
  0
ARC
  5
564
330
1F
100
AcDbEntity
  8
0
  6
Continuous
 62
     7
370
    25
100
AcDbCircle
 10
171.45
 20
-51.5
 30
0.0
 40
0.3000000000000114
100
AcDbArc
 50
180.0
 51
270.0
  0
ARC
  5
565
330
1F
100
AcDbEntity
  8
0
  6
Continuous
 62
     7
370
    25
100
AcDbCircle
 10
184.85
 20
-51.5
 30
0.0
 40
0.3000000000000114
100
AcDbArc
 50
270.0
 51
0.0
  0
ARC
  5
566
330
1F
100
AcDbEntity
  8
0
  6
Continuous
 62
     7
370
    25
100
AcDbCircle
 10
203.9
 20
-38.1
 30
0.0
 40
0.3000000000000398
100
AcDbArc
 50
0.0
 51
90.0
  0
ARC
  5
567
330
1F
100
AcDbEntity
  8
0
  6
Continuous
 62
     7
370
    25
100
AcDbCircle
 10
190.5
 20
-38.1
 30
0.0
 40
0.3000000000000114
100
AcDbArc
 50
90.0
 51
180.0
  0
ARC
  5
568
330
1F
100
AcDbEntity
  8
0
  6
Continuous
 62
     7
370
    25
100
AcDbCircle
 10
190.5
 20
-51.5
 30
0.0
 40
0.3000000000000185
100
AcDbArc
 50
180.0
 51
270.0
  0
ARC
  5
569
330
1F
100
AcDbEntity
  8
0
  6
Continuous
 62
     7
370
    25
100
AcDbCircle
 10
203.9
 20
-51.5
 30
0.0
 40
0.2999999999999829
100
AcDbArc
 50
270.0
 51
0.0
  0
ARC
  5
56A
330
1F
100
AcDbEntity
  8
0
  6
Continuous
 62
     7
370
    25
100
AcDbCircle
 10
222.95
 20
-38.1
 30
0.0
 40
0.3000000000000185
100
AcDbArc
 50
0.0
 51
90.0
  0
ARC
  5
56B
330
1F
100
AcDbEntity
  8
0
  6
Continuous
 62
     7
370
    25
100
AcDbCircle
 10
209.55
 20
-38.1
 30
0.0
 40
0.3000000000000114
100
AcDbArc
 50
90.0
 51
180.0
  0
ARC
  5
56C
330
1F
100
AcDbEntity
  8
0
  6
Continuous
 62
     7
370
    25
100
AcDbCircle
 10
209.55
 20
-51.5
 30
0.0
 40
0.3000000000000114
100
AcDbArc
 50
180.0
 51
270.0
  0
ARC
  5
56D
330
1F
100
AcDbEntity
  8
0
  6
Continuous
 62
     7
370
    25
100
AcDbCircle
 10
222.95
 20
-51.5
 30
0.0
 40
0.3000000000000114
100
AcDbArc
 50
270.0
 51
0.0
  0
ARC
  5
56E
330
1F
100
AcDbEntity
  8
0
  6
Continuous
 62
     7
370
    25
100
AcDbCircle
 10
242.0
 20
-38.1
 30
0.0
 40
0.3000000000000398
100
AcDbArc
 50
0.0
 51
90.0
  0
ARC
  5
56F
330
1F
100
AcDbEntity
  8
0
  6
Continuous
 62
     7
370
    25
100
AcDbCircle
 10
228.6
 20
-38.1
 30
0.0
 40
0.3000000000000114
100
AcDbArc
 50
90.0
 51
180.0
  0
ARC
  5
570
330
1F
100
AcDbEntity
  8
0
  6
Continuous
 62
     7
370
    25
100
AcDbCircle
 10
228.6
 20
-51.5
 30
0.0
 40
0.3000000000000114
100
AcDbArc
 50
180.0
 51
270.0
  0
ARC
  5
571
330
1F
100
AcDbEntity
  8
0
  6
Continuous
 62
     7
370
    25
100
AcDbCircle
 10
242.0
 20
-51.5
 30
0.0
 40
0.2999999999999901
100
AcDbArc
 50
270.0
 51
0.0
  0
ARC
  5
572
330
1F
100
AcDbEntity
  8
0
  6
Continuous
 62
     7
370
    25
100
AcDbCircle
 10
261.05
 20
-38.1
 30
0.0
 40
0.3000000000000682
100
AcDbArc
 50
0.0
 51
90.0
  0
ARC
  5
573
330
1F
100
AcDbEntity
  8
0
  6
Continuous
 62
     7
370
    25
100
AcDbCircle
 10
247.65
 20
-38.1
 30
0.0
 40
0.3000000000000398
100
AcDbArc
 50
90.0
 51
180.0
  0
ARC
  5
574
330
1F
100
AcDbEntity
  8
0
  6
Continuous
 62
     7
370
    25
100
AcDbCircle
 10
247.65
 20
-51.5
 30
0.0
 40
0.3000000000000966
100
AcDbArc
 50
180.0
 51
270.0
  0
ARC
  5
575
330
1F
100
AcDbEntity
  8
0
  6
Continuous
 62
     7
370
    25
100
AcDbCircle
 10
261.05
 20
-51.5
 30
0.0
 40
0.3000000000001819
100
AcDbArc
 50
270.0
 51
360.0
  0
ARC
  5
576
330
1F
100
AcDbEntity
  8
0
  6
Continuous
 62
     7
370
    25
100
AcDbCircle
 10
280.1
 20
-38.1
 30
0.0
 40
0.3000000000000682
100
AcDbArc
 50
0.0
 51
90.0
  0
ARC
  5
577
330
1F
100
AcDbEntity
  8
0
  6
Continuous
 62
     7
370
    25
100
AcDbCircle
 10
266.7
 20
-38.1
 30
0.0
 40
0.3000000000000114
100
AcDbArc
 50
90.0
 51
180.0
  0
ARC
  5
578
330
1F
100
AcDbEntity
  8
0
  6
Continuous
 62
     7
370
    25
100
AcDbCircle
 10
266.7
 20
-51.5
 30
0.0
 40
0.3000000000000682
100
AcDbArc
 50
180.0
 51
270.0
  0
ARC
  5
579
330
1F
100
AcDbEntity
  8
0
  6
Continuous
 62
     7
370
    25
100
AcDbCircle
 10
280.1
 20
-51.5
 30
0.0
 40
0.3000000000001819
100
AcDbArc
 50
270.0
 51
360.0
  0
ARC
  5
57A
330
1F
100
AcDbEntity
  8
0
  6
Continuous
 62
     7
370
    25
100
AcDbCircle
 10
99.125
 20
-57.15
 30
0.0
 40
0.2999999999999972
100
AcDbArc
 50
0.0
 51
90.0
  0
ARC
  5
57B
330
1F
100
AcDbEntity
  8
0
  6
Continuous
 62
     7
370
    25
100
AcDbCircle
 10
85.725
 20
-57.15
 30
0.0
 40
0.3000000000000398
100
AcDbArc
 50
90.0
 51
180.0
  0
ARC
  5
57C
330
1F
100
AcDbEntity
  8
0
  6
Continuous
 62
     7
370
    25
100
AcDbCircle
 10
85.725
 20
-70.55
 30
0.0
 40
0.3000000000000256
100
AcDbArc
 50
180.0
 51
270.0
  0
ARC
  5
57D
330
1F
100
AcDbEntity
  8
0
  6
Continuous
 62
     7
370
    25
100
AcDbCircle
 10
99.125
 20
-70.55
 30
0.0
 40
0.2999999999999545
100
AcDbArc
 50
270.0
 51
0.0
  0
ARC
  5
57E
330
1F
100
AcDbEntity
  8
0
  6
Continuous
 62
     7
370
    25
100
AcDbCircle
 10
118.175
 20
-57.15
 30
0.0
 40
0.2999999999999972
100
AcDbArc
 50
0.0
 51
90.0
  0
ARC
  5
57F
330
1F
100
AcDbEntity
  8
0
  6
Continuous
 62
     7
370
    25
100
AcDbCircle
 10
104.775
 20
-57.15
 30
0.0
 40
0.3000000000000398
100
AcDbArc
 50
90.0
 51
180.0
  0
ARC
  5
580
330
1F
100
AcDbEntity
  8
0
  6
Continuous
 62
     7
370
    25
100
AcDbCircle
 10
104.775
 20
-70.55
 30
0.0
 40
0.3000000000000398
100
AcDbArc
 50
180.0
 51
270.0
  0
ARC
  5
581
330
1F
100
AcDbEntity
  8
0
  6
Continuous
 62
     7
370
    25
100
AcDbCircle
 10
118.175
 20
-70.55
 30
0.0
 40
0.2999999999999545
100
AcDbArc
 50
270.0
 51
0.0
  0
ARC
  5
582
330
1F
100
AcDbEntity
  8
0
  6
Continuous
 62
     7
370
    25
100
AcDbCircle
 10
137.225
 20
-57.15
 30
0.0
 40
0.3000000000000682
100
AcDbArc
 50
0.0
 51
90.0
  0
ARC
  5
583
330
1F
100
AcDbEntity
  8
0
  6
Continuous
 62
     7
370
    25
100
AcDbCircle
 10
123.825
 20
-57.15
 30
0.0
 40
0.3000000000000398
100
AcDbArc
 50
90.0
 51
180.0
  0
ARC
  5
584
330
1F
100
AcDbEntity
  8
0
  6
Continuous
 62
     7
370
    25
100
AcDbCircle
 10
123.825
 20
-70.55
 30
0.0
 40
0.3000000000000398
100
AcDbArc
 50
180.0
 51
270.0
  0
ARC
  5
585
330
1F
100
AcDbEntity
  8
0
  6
Continuous
 62
     7
370
    25
100
AcDbCircle
 10
137.225
 20
-70.55
 30
0.0
 40
0.3000000000000398
100
AcDbArc
 50
270.0
 51
0.0
  0
ARC
  5
586
330
1F
100
AcDbEntity
  8
0
  6
Continuous
 62
     7
370
    25
100
AcDbCircle
 10
156.275
 20
-57.15
 30
0.0
 40
0.3000000000000682
100
AcDbArc
 50
0.0
 51
90.0
  0
ARC
  5
587
330
1F
100
AcDbEntity
  8
0
  6
Continuous
 62
     7
370
    25
100
AcDbCircle
 10
142.875
 20
-57.15
 30
0.0
 40
0.3000000000000398
100
AcDbArc
 50
90.0
 51
180.0
  0
ARC
  5
588
330
1F
100
AcDbEntity
  8
0
  6
Continuous
 62
     7
370
    25
100
AcDbCircle
 10
142.875
 20
-70.55
 30
0.0
 40
0.3000000000000682
100
AcDbArc
 50
180.0
 51
270.0
  0
ARC
  5
589
330
1F
100
AcDbEntity
  8
0
  6
Continuous
 62
     7
370
    25
100
AcDbCircle
 10
156.275
 20
-70.55
 30
0.0
 40
0.3000000000000114
100
AcDbArc
 50
270.0
 51
0.0
  0
ARC
  5
58A
330
1F
100
AcDbEntity
  8
0
  6
Continuous
 62
     7
370
    25
100
AcDbCircle
 10
175.325
 20
-57.15
 30
0.0
 40
0.3000000000000682
100
AcDbArc
 50
0.0
 51
90.0
  0
ARC
  5
58B
330
1F
100
AcDbEntity
  8
0
  6
Continuous
 62
     7
370
    25
100
AcDbCircle
 10
161.925
 20
-57.15
 30
0.0
 40
0.3000000000000398
100
AcDbArc
 50
90.0
 51
180.0
  0
ARC
  5
58C
330
1F
100
AcDbEntity
  8
0
  6
Continuous
 62
     7
370
    25
100
AcDbCircle
 10
161.925
 20
-70.55
 30
0.0
 40
0.3000000000000682
100
AcDbArc
 50
180.0
 51
270.0
  0
ARC
  5
58D
330
1F
100
AcDbEntity
  8
0
  6
Continuous
 62
     7
370
    25
100
AcDbCircle
 10
175.325
 20
-70.55
 30
0.0
 40
0.3000000000000398
100
AcDbArc
 50
270.0
 51
0.0
  0
ARC
  5
58E
330
1F
100
AcDbEntity
  8
0
  6
Continuous
 62
     7
370
    25
100
AcDbCircle
 10
194.375
 20
-57.15
 30
0.0
 40
0.3000000000000682
100
AcDbArc
 50
0.0
 51
90.0
  0
ARC
  5
58F
330
1F
100
AcDbEntity
  8
0
  6
Continuous
 62
     7
370
    25
100
AcDbCircle
 10
180.975
 20
-57.15
 30
0.0
 40
0.3000000000000398
100
AcDbArc
 50
90.0
 51
180.0
  0
ARC
  5
590
330
1F
100
AcDbEntity
  8
0
  6
Continuous
 62
     7
370
    25
100
AcDbCircle
 10
180.975
 20
-70.55
 30
0.0
 40
0.3000000000000398
100
AcDbArc
 50
180.0
 51
270.0
  0
ARC
  5
591
330
1F
100
AcDbEntity
  8
0
  6
Continuous
 62
     7
370
    25
100
AcDbCircle
 10
194.375
 20
-70.55
 30
0.0
 40
0.3000000000000682
100
AcDbArc
 50
270.0
 51
360.0
  0
ARC
  5
592
330
1F
100
AcDbEntity
  8
0
  6
Continuous
 62
     7
370
    25
100
AcDbCircle
 10
213.425
 20
-57.15
 30
0.0
 40
0.3000000000000398
100
AcDbArc
 50
0.0
 51
90.0
  0
ARC
  5
593
330
1F
100
AcDbEntity
  8
0
  6
Continuous
 62
     7
370
    25
100
AcDbCircle
 10
200.025
 20
-57.15
 30
0.0
 40
0.3000000000000398
100
AcDbArc
 50
90.0
 51
180.0
  0
ARC
  5
594
330
1F
100
AcDbEntity
  8
0
  6
Continuous
 62
     7
370
    25
100
AcDbCircle
 10
200.025
 20
-70.55
 30
0.0
 40
0.3000000000000114
100
AcDbArc
 50
180.0
 51
270.0
  0
ARC
  5
595
330
1F
100
AcDbEntity
  8
0
  6
Continuous
 62
     7
370
    25
100
AcDbCircle
 10
213.425
 20
-70.55
 30
0.0
 40
0.3000000000000398
100
AcDbArc
 50
270.0
 51
0.0
  0
ARC
  5
596
330
1F
100
AcDbEntity
  8
0
  6
Continuous
 62
     7
370
    25
100
AcDbCircle
 10
232.475
 20
-57.15
 30
0.0
 40
0.3000000000000682
100
AcDbArc
 50
0.0
 51
90.0
  0
ARC
  5
597
330
1F
100
AcDbEntity
  8
0
  6
Continuous
 62
     7
370
    25
100
AcDbCircle
 10
219.075
 20
-57.15
 30
0.0
 40
0.3000000000000398
100
AcDbArc
 50
90.0
 51
180.0
  0
ARC
  5
598
330
1F
100
AcDbEntity
  8
0
  6
Continuous
 62
     7
370
    25
100
AcDbCircle
 10
219.075
 20
-70.55
 30
0.0
 40
0.3000000000000398
100
AcDbArc
 50
180.0
 51
270.0
  0
ARC
  5
599
330
1F
100
AcDbEntity
  8
0
  6
Continuous
 62
     7
370
    25
100
AcDbCircle
 10
232.475
 20
-70.55
 30
0.0
 40
0.3000000000000398
100
AcDbArc
 50
270.0
 51
360.0
  0
ARC
  5
59A
330
1F
100
AcDbEntity
  8
0
  6
Continuous
 62
     7
370
    25
100
AcDbCircle
 10
251.525
 20
-57.15
 30
0.0
 40
0.3000000000000398
100
AcDbArc
 50
0.0
 51
90.0
  0
ARC
  5
59B
330
1F
100
AcDbEntity
  8
0
  6
Continuous
 62
     7
370
    25
100
AcDbCircle
 10
238.125
 20
-57.15
 30
0.0
 40
0.3000000000000398
100
AcDbArc
 50
90.0
 51
180.0
  0
ARC
  5
59C
330
1F
100
AcDbEntity
  8
0
  6
Continuous
 62
     7
370
    25
100
AcDbCircle
 10
238.125
 20
-70.55
 30
0.0
 40
0.3000000000000398
100
AcDbArc
 50
180.0
 51
270.0
  0
ARC
  5
59D
330
1F
100
AcDbEntity
  8
0
  6
Continuous
 62
     7
370
    25
100
AcDbCircle
 10
251.525
 20
-70.55
 30
0.0
 40
0.3000000000000966
100
AcDbArc
 50
270.0
 51
360.0
  0
ARC
  5
59E
330
1F
100
AcDbEntity
  8
0
  6
Continuous
 62
     7
370
    25
100
AcDbCircle
 10
270.575
 20
-57.15
 30
0.0
 40
0.3000000000000114
100
AcDbArc
 50
360.0
 51
90.0
  0
ARC
  5
59F
330
1F
100
AcDbEntity
  8
0
  6
Continuous
 62
     7
370
    25
100
AcDbCircle
 10
257.175
 20
-57.15
 30
0.0
 40
0.3000000000000114
100
AcDbArc
 50
90.0
 51
180.0
  0
ARC
  5
5A0
330
1F
100
AcDbEntity
  8
0
  6
Continuous
 62
     7
370
    25
100
AcDbCircle
 10
257.175
 20
-70.55
 30
0.0
 40
0.3000000000000256
100
AcDbArc
 50
180.0
 51
270.0
  0
ARC
  5
5A1
330
1F
100
AcDbEntity
  8
0
  6
Continuous
 62
     7
370
    25
100
AcDbCircle
 10
270.575
 20
-70.55
 30
0.0
 40
0.3000000000001251
100
AcDbArc
 50
270.0
 51
360.0
  0
ARC
  5
5A2
330
1F
100
AcDbEntity
  8
0
  6
Continuous
 62
     7
370
    25
100
AcDbCircle
 10
296.76875
 20
-57.15
 30
0.0
 40
0.3000000000000398
100
AcDbArc
 50
0.0
 51
90.0
  0
ARC
  5
5A3
330
1F
100
AcDbEntity
  8
0
  6
Continuous
 62
     7
370
    25
100
AcDbCircle
 10
283.36875
 20
-57.15
 30
0.0
 40
0.3000000000000114
100
AcDbArc
 50
90.0
 51
180.0
  0
ARC
  5
5A4
330
1F
100
AcDbEntity
  8
0
  6
Continuous
 62
     7
370
    25
100
AcDbCircle
 10
283.36875
 20
-70.55
 30
0.0
 40
0.3000000000000682
100
AcDbArc
 50
180.0
 51
270.0
  0
ARC
  5
5A5
330
1F
100
AcDbEntity
  8
0
  6
Continuous
 62
     7
370
    25
100
AcDbCircle
 10
296.76875
 20
-70.55
 30
0.0
 40
0.3000000000001819
100
AcDbArc
 50
270.0
 51
360.0
  0
ARC
  5
5A6
330
1F
100
AcDbEntity
  8
0
  6
Continuous
 62
     7
370
    25
100
AcDbCircle
 10
342.8375
 20
0.825
 30
0.0
 40
2.000000000000114
100
AcDbArc
 50
0.0
 51
90.0
  0
ARC
  5
5A7
330
1F
100
AcDbEntity
  8
0
  6
Continuous
 62
     7
370
    25
100
AcDbCircle
 10
342.8375
 20
-90.425
 30
0.0
 40
2.000000000000114
100
AcDbArc
 50
270.0
 51
360.0
  0
ARC
  5
5A8
330
1F
100
AcDbEntity
  8
0
  6
Continuous
 62
     7
370
    25
100
AcDbCircle
 10
-0.825
 20
-90.425
 30
0.0
 40
2.000000000000028
100
AcDbArc
 50
180.0
 51
270.0
  0
ARC
  5
5A9
330
1F
100
AcDbEntity
  8
0
  6
Continuous
 62
     7
370
    25
100
AcDbCircle
 10
-0.825
 20
0.825
 30
0.0
 40
1.999999999999997
100
AcDbArc
 50
90.0
 51
180.0
  0
ARC
  5
5AA
330
1F
100
AcDbEntity
  8
0
  6
Continuous
 62
     7
370
    25
100
AcDbCircle
 10
164.30625
 20
-76.2
 30
0.0
 40
0.3000000000000398
100
AcDbArc
 50
90.0
 51
180.0
  0
ARC
  5
5AB
330
1F
100
AcDbEntity
  8
0
  6
Continuous
 62
     7
370
    25
100
AcDbCircle
 10
164.30625
 20
-89.6
 30
0.0
 40
0.3000000000000682
100
AcDbArc
 50
180.0
 51
270.0
  0
ARC
  5
5AC
330
1F
100
AcDbEntity
  8
0
  6
Continuous
 62
     7
370
    25
100
AcDbCircle
 10
189.6125
 20
-89.6
 30
0.0
 40
0.2999999999999829
100
AcDbArc
 50
270.0
 51
0.0
  0
ARC
  5
5AD
330
1F
100
AcDbEntity
  8
0
  6
Continuous
 62
     7
370
    25
100
AcDbCircle
 10
189.6125
 20
-76.2
 30
0.0
 40
0.2999999999998408
100
AcDbArc
 50
360.0
 51
90.0
  0
ARC
  5
5AE
330
1F
100
AcDbEntity
  8
0
  6
Continuous
 62
     7
370
    25
100
AcDbCircle
 10
217.80625
 20
-88.8
 30
0.0
 40
0.3000000000012377
100
AcDbArc
 50
180.0
 51
196.5978421359
  0
ARC
  5
5AF
330
1F
100
AcDbEntity
  8
0
  6
Continuous
 62
     7
370
    25
100
AcDbCircle
 10
235.74375
 20
-76.2
 30
0.0
 40
0.3000000000000966
100
AcDbArc
 50
90.0
 51
180.0
  0
ARC
  5
5B0
330
1F
100
AcDbEntity
  8
0
  6
Continuous
 62
     7
370
    25
100
AcDbCircle
 10
235.74375
 20
-89.6
 30
0.0
 40
0.2999999999999829
100
AcDbArc
 50
180.0
 51
270.0
  0
ARC
  5
5B1
330
1F
100
AcDbEntity
  8
0
  6
Continuous
 62
     7
370
    25
100
AcDbCircle
 10
249.14375
 20
-89.6
 30
0.0
 40
0.2999999999999545
100
AcDbArc
 50
270.0
 51
0.0
  0
ARC
  5
5B2
330
1F
100
AcDbEntity
  8
0
  6
Continuous
 62
     7
370
    25
100
AcDbCircle
 10
249.14375
 20
-76.2
 30
0.0
 40
0.2999999999999687
100
AcDbArc
 50
360.0
 51
90.0
  0
ENDSEC
  0
SECTION
  2
OBJECTS
  0
DICTIONARY
  5
C
330
0
100
AcDbDictionary
281
     1
  3
ACAD_GROUP
350
D
  3
ACAD_LAYOUT
350
1A
  3
ACAD_MLINESTYLE
350
17
  3
ACAD_PLOTSETTINGS
350
19
  3
ACAD_PLOTSTYLENAME
350
E
  3
ACAD_SCALELIST
350
47
  0
DICTIONARY
  5
D
102
{ACAD_REACTORS
330
C
102
}
330
C
100
AcDbDictionary
281
     1
  0
DICTIONARY
  5
1A
102
{ACAD_REACTORS
330
C
102
}
330
C
100
AcDbDictionary
281
     1
  3
Layout1
350
1E
  3
Layout2
350
26
  3
Model
350
22
  0
DICTIONARY
  5
17
102
{ACAD_REACTORS
330
C
102
}
330
C
100
AcDbDictionary
281
     1
  3
Standard
350
18
  0
DICTIONARY
  5
19
102
{ACAD_REACTORS
330
C
102
}
330
C
100
AcDbDictionary
281
     1
  0
ACDBDICTIONARYWDFLT
  5
E
102
{ACAD_REACTORS
330
C
102
}
330
C
100
AcDbDictionary
281
     1
  3
Normal
350
F
100
AcDbDictionaryWithDefault
340
F
  0
DICTIONARY
  5
47
102
{ACAD_REACTORS
330
C
102
}
330
C
100
AcDbDictionary
281
     1
  3
A0
350
48
  3
A1
350
49
  3
A2
350
4A
  3
A3
350
4B
  3
A4
350
4C
  3
A5
350
4D
  3
A6
350
4E
  3
A7
350
4F
  3
A8
350
50
  3
A9
350
51
  3
B0
350
52
  3
B1
350
53
  3
B2
350
54
  3
B3
350
55
  3
B4
350
56
  3
B5
350
57
  3
B6
350
58
  3
B7
350
59
  3
B8
350
5A
  3
B9
350
5B
  3
C0
350
5C
  3
C1
350
5D
  3
C2
350
5E
  3
C3
350
5F
  3
C4
350
60
  3
C5
350
61
  3
C6
350
62
  3
C7
350
63
  3
C8
350
64
  3
C9
350
65
  3
D0
350
66
  3
D1
350
67
  3
D2
350
68
  0
LAYOUT
  5
1E
102
{ACAD_REACTORS
330
1A
102
}
330
1A
100
AcDbPlotSettings
  1

  2
none_device
  4

  6

 40
0.0
 41
0.0
 42
0.0
 43
0.0
 44
0.0
 45
0.0
 46
0.0
 47
0.0
 48
0.0
 49
0.0
140
0.0
141
0.0
142
1.0
143
1.0
 70
   688
 72
     1
 73
     0
 74
     5
  7

 75
    16
147
1.0
148
0.0
149
0.0
100
AcDbLayout
  1
Layout1
 70
     1
 71
     1
 10
0.0
 20
0.0
 11
420.0
 21
297.0
 12
0.0
 22
0.0
 32
0.0
 14
1.0000000000E+20
 24
1.0000000000E+20
 34
1.0000000000E+20
 15
-1.0000000000E+20
 25
-1.0000000000E+20
 35
-1.0000000000E+20
146
0.0
 13
0.0
 23
0.0
 33
0.0
 16
1.0
 26
0.0
 36
0.0
 17
0.0
 27
1.0
 37
0.0
 76
     0
330
1B
  0
LAYOUT
  5
26
102
{ACAD_REACTORS
330
1A
102
}
330
1A
100
AcDbPlotSettings
  1

  2
none_device
  4

  6

 40
0.0
 41
0.0
 42
0.0
 43
0.0
 44
0.0
 45
0.0
 46
0.0
 47
0.0
 48
0.0
 49
0.0
140
0.0
141
0.0
142
1.0
143
1.0
 70
   688
 72
     1
 73
     0
 74
     5
  7

 75
    16
147
1.0
148
0.0
149
0.0
100
AcDbLayout
  1
Layout2
 70
     1
 71
     2
 10
0.0
 20
0.0
 11
0.0
 21
0.0
 12
0.0
 22
0.0
 32
0.0
 14
0.0
 24
0.0
 34
0.0
 15
0.0
 25
0.0
 35
0.0
146
0.0
 13
0.0
 23
0.0
 33
0.0
 16
1.0
 26
0.0
 36
0.0
 17
0.0
 27
1.0
 37
0.0
 76
     0
330
23
  0
LAYOUT
  5
22
102
{ACAD_REACTORS
330
1A
102
}
330
1A
100
AcDbPlotSettings
  1

  2
none_device
  4
ANSI_A_(11.00_x_8.50_Inches)
  6

 40
6.35
 41
19.05
 42
6.35000508
 43
19.05000254
 44
279.4
 45
215.9
 46
-2.7053861016
 47
124.5436151684
 48
0.0
 49
0.0
140
0.0
141
0.0
142
0.0313234818
143
1.0
 70
  1696
 72
     0
 73
     0
 74
     0
  7

 75
     0
147
0.0179189148
148
-1300.4909072572
149
0.0
100
AcDbLayout
  1
Model
 70
     1
 71
     0
 10
0.0
 20
0.0
 11
420.0
 21
297.0
 12
0.0
 22
0.0
 32
0.0
 14
-2.825
 24
-92.425
 34
0.0
 15
344.8375
 25
2.825
 35
0.0
146
0.0
 13
0.0
 23
0.0
 33
0.0
 16
1.0
 26
0.0
 36
0.0
 17
0.0
 27
1.0
 37
0.0
 76
     0
330
1F
331
29
  0
MLINESTYLE
  5
18
102
{ACAD_REACTORS
330
17
102
}
330
17
100
AcDbMlineStyle
  2
Standard
 70
     0
  3

 62
   256
 51
90.0
 52
90.0
 71
     2
 49
0.5
 62
   256
  6
BYLAYER
 49
-0.5
 62
   256
  6
BYLAYER
  0
ACDBPLACEHOLDER
  5
F
102
{ACAD_REACTORS
330
E
102
}
330
E
  0
SCALE
  5
48
102
{ACAD_REACTORS
330
47
102
}
330
47
100
AcDbScale
 70
     0
300
1:1
140
1.0
141
1.0
290
     1
  0
SCALE
  5
49
102
{ACAD_REACTORS
330
47
102
}
330
47
100
AcDbScale
 70
     0
300
1:2
140
1.0
141
2.0
290
     0
  0
SCALE
  5
4A
102
{ACAD_REACTORS
330
47
102
}
330
47
100
AcDbScale
 70
     0
300
1:4
140
1.0
141
4.0
290
     0
  0
SCALE
  5
4B
102
{ACAD_REACTORS
330
47
102
}
330
47
100
AcDbScale
 70
     0
300
1:5
140
1.0
141
5.0
290
     0
  0
SCALE
  5
4C
102
{ACAD_REACTORS
330
47
102
}
330
47
100
AcDbScale
 70
     0
300
1:8
140
1.0
141
8.0
290
     0
  0
SCALE
  5
4D
102
{ACAD_REACTORS
330
47
102
}
330
47
100
AcDbScale
 70
     0
300
1:10
140
1.0
141
10.0
290
     0
  0
SCALE
  5
4E
102
{ACAD_REACTORS
330
47
102
}
330
47
100
AcDbScale
 70
     0
300
1:16
140
1.0
141
16.0
290
     0
  0
SCALE
  5
4F
102
{ACAD_REACTORS
330
47
102
}
330
47
100
AcDbScale
 70
     0
300
1:20
140
1.0
141
20.0
290
     0
  0
SCALE
  5
50
102
{ACAD_REACTORS
330
47
102
}
330
47
100
AcDbScale
 70
     0
300
1:30
140
1.0
141
30.0
290
     0
  0
SCALE
  5
51
102
{ACAD_REACTORS
330
47
102
}
330
47
100
AcDbScale
 70
     0
300
1:40
140
1.0
141
40.0
290
     0
  0
SCALE
  5
52
102
{ACAD_REACTORS
330
47
102
}
330
47
100
AcDbScale
 70
     0
300
1:50
140
1.0
141
50.0
290
     0
  0
SCALE
  5
53
102
{ACAD_REACTORS
330
47
102
}
330
47
100
AcDbScale
 70
     0
300
1:100
140
1.0
141
100.0
290
     0
  0
SCALE
  5
54
102
{ACAD_REACTORS
330
47
102
}
330
47
100
AcDbScale
 70
     0
300
2:1
140
2.0
141
1.0
290
     0
  0
SCALE
  5
55
102
{ACAD_REACTORS
330
47
102
}
330
47
100
AcDbScale
 70
     0
300
4:1
140
4.0
141
1.0
290
     0
  0
SCALE
  5
56
102
{ACAD_REACTORS
330
47
102
}
330
47
100
AcDbScale
 70
     0
300
8:1
140
8.0
141
1.0
290
     0
  0
SCALE
  5
57
102
{ACAD_REACTORS
330
47
102
}
330
47
100
AcDbScale
 70
     0
300
10:1
140
10.0
141
1.0
290
     0
  0
SCALE
  5
58
102
{ACAD_REACTORS
330
47
102
}
330
47
100
AcDbScale
 70
     0
300
100:1
140
100.0
141
1.0
290
     0
  0
SCALE
  5
59
102
{ACAD_REACTORS
330
47
102
}
330
47
100
AcDbScale
 70
     0
300
1/128" = 1'-0"
140
0.0078125
141
12.0
290
     0
  0
SCALE
  5
5A
102
{ACAD_REACTORS
330
47
102
}
330
47
100
AcDbScale
 70
     0
300
1/64" = 1'-0"
140
0.015625
141
12.0
290
     0
  0
SCALE
  5
5B
102
{ACAD_REACTORS
330
47
102
}
330
47
100
AcDbScale
 70
     0
300
1/32" = 1'-0"
140
0.03125
141
12.0
290
     0
  0
SCALE
  5
5C
102
{ACAD_REACTORS
330
47
102
}
330
47
100
AcDbScale
 70
     0
300
1/16" = 1'-0"
140
0.0625
141
12.0
290
     0
  0
SCALE
  5
5D
102
{ACAD_REACTORS
330
47
102
}
330
47
100
AcDbScale
 70
     0
300
3/32" = 1'-0"
140
0.09375
141
12.0
290
     0
  0
SCALE
  5
5E
102
{ACAD_REACTORS
330
47
102
}
330
47
100
AcDbScale
 70
     0
300
1/8" = 1'-0"
140
0.125
141
12.0
290
     0
  0
SCALE
  5
5F
102
{ACAD_REACTORS
330
47
102
}
330
47
100
AcDbScale
 70
     0
300
3/16" = 1'-0"
140
0.1875
141
12.0
290
     0
  0
SCALE
  5
60
102
{ACAD_REACTORS
330
47
102
}
330
47
100
AcDbScale
 70
     0
300
1/4" = 1'-0"
140
0.25
141
12.0
290
     0
  0
SCALE
  5
61
102
{ACAD_REACTORS
330
47
102
}
330
47
100
AcDbScale
 70
     0
300
3/8" = 1'-0"
140
0.375
141
12.0
290
     0
  0
SCALE
  5
62
102
{ACAD_REACTORS
330
47
102
}
330
47
100
AcDbScale
 70
     0
300
1/2" = 1'-0"
140
0.5
141
12.0
290
     0
  0
SCALE
  5
63
102
{ACAD_REACTORS
330
47
102
}
330
47
100
AcDbScale
 70
     0
300
3/4" = 1'-0"
140
0.75
141
12.0
290
     0
  0
SCALE
  5
64
102
{ACAD_REACTORS
330
47
102
}
330
47
100
AcDbScale
 70
     0
300
1" = 1'-0"
140
1.0
141
12.0
290
     0
  0
SCALE
  5
65
102
{ACAD_REACTORS
330
47
102
}
330
47
100
AcDbScale
 70
     0
300
1-1/2" = 1'-0"
140
1.5
141
12.0
290
     0
  0
SCALE
  5
66
102
{ACAD_REACTORS
330
47
102
}
330
47
100
AcDbScale
 70
     0
300
3" = 1'-0"
140
3.0
141
12.0
290
     0
  0
SCALE
  5
67
102
{ACAD_REACTORS
330
47
102
}
330
47
100
AcDbScale
 70
     0
300
6" = 1'-0"
140
6.0
141
12.0
290
     0
  0
SCALE
  5
68
102
{ACAD_REACTORS
330
47
102
}
330
47
100
AcDbScale
 70
     0
300
1'-0" = 1'-0"
140
12.0
141
12.0
290
     0
  0
ENDSEC
  0
EOF
